<?xml version="1.0" encoding="utf-8"?>
<!-- Generator: Adobe Illustrator 18.1.1, SVG Export Plug-In . SVG Version: 6.00 Build 0)  -->
<!DOCTYPE svg PUBLIC "-//W3C//DTD SVG 1.1//EN" "http://www.w3.org/Graphics/SVG/1.1/DTD/svg11.dtd">
<svg version="1.1" id="Layer_1" xmlns="http://www.w3.org/2000/svg" xmlns:xlink="http://www.w3.org/1999/xlink" x="0px" y="0px"
	 viewBox="0 0 16 16" enable-background="new 0 0 16 16" xml:space="preserve">
<path fill="#006838" d="M16,16H0V0h16V16z"/>
<g>
	<path fill="#FFFFFF" d="M11,3H4.9C3.9,3,3,3.9,3,4.9V11c0,1.1,1,2,2,2h6c1.1,0,2-0.9,2-2V5C13,3.9,12.1,3,11,3z M12,11
		c0,0.5-0.5,1-1,1H5c-0.5,0-1-0.5-1-1V5c0-0.5,0.5-1,1-1h6c0.5,0,1,0.5,1,1C12,5,12,11,12,11z"/>
	<polygon fill="#FFFFFF" points="5.1,11 11,11 10,7 	"/>
	<circle fill="#FFFFFF" cx="5.6" cy="6.6" r="1.3"/>
</g>
</svg>
