<?xml version="1.0" encoding="UTF-8" standalone="no"?>
<!-- Generator: Adobe Illustrator 20.1.0, SVG Export Plug-In . SVG Version: 6.00 Build 0)  -->

<svg
   xmlns:dc="http://purl.org/dc/elements/1.1/"
   xmlns:cc="http://creativecommons.org/ns#"
   xmlns:rdf="http://www.w3.org/1999/02/22-rdf-syntax-ns#"
   xmlns:svg="http://www.w3.org/2000/svg"
   xmlns="http://www.w3.org/2000/svg"
   xmlns:sodipodi="http://sodipodi.sourceforge.net/DTD/sodipodi-0.dtd"
   xmlns:inkscape="http://www.inkscape.org/namespaces/inkscape"
   version="1.1"
   id="Layer_1"
   x="0px"
   y="0px"
   viewBox="0 0 18 18"
   style="enable-background:new 0 0 18 18;"
   xml:space="preserve"
   inkscape:version="0.91 r13725"
   sodipodi:docname="PrivateFolder.svg"><metadata
     id="metadata4152"><rdf:RDF><cc:Work
         rdf:about=""><dc:format>image/svg+xml</dc:format><dc:type
           rdf:resource="http://purl.org/dc/dcmitype/StillImage" /><dc:title></dc:title></cc:Work></rdf:RDF></metadata><defs
     id="defs4150" /><sodipodi:namedview
     pagecolor="#ffffff"
     bordercolor="#666666"
     borderopacity="1"
     objecttolerance="10"
     gridtolerance="10"
     guidetolerance="10"
     inkscape:pageopacity="0"
     inkscape:pageshadow="2"
     inkscape:window-width="1920"
     inkscape:window-height="1017"
     id="namedview4148"
     showgrid="false"
     inkscape:zoom="13.111111"
     inkscape:cx="-0.49576271"
     inkscape:cy="9"
     inkscape:window-x="-8"
     inkscape:window-y="-8"
     inkscape:window-maximized="1"
     inkscape:current-layer="Layer_1" /><style
     type="text/css"
     id="style4136">
	.st0{opacity:0.5;fill:#FFFFFF;}
	.st1{fill:#FFFFFF;}
</style><g
     id="g4138"><path
       class="st0"
       d="M9,10c0-2.2,1.8-4,4-4c1.2,0,2.3,0.5,3,1.4V4h-6V3.5C10,2.7,9.3,2,8.5,2H3.6C2.8,2,2,2.6,2,3.4V13h8.4   C9.5,12.3,9,11.2,9,10z M4,3h4c0.5,0,1,0.4,1,1H3C3,3.5,3.4,3,4,3z"
       id="path4140"
       style="fill:#deb056;fill-opacity:1" /></g><circle
     class="st1"
     cx="13"
     cy="10"
     r="3"
     id="circle4142"
     style="fill:#deb056;fill-opacity:1" /><g
     id="g4144"><path
       class="st1"
       d="M18,17c0-1.6-1.4-3-3-3h-4c-1.6,0-3,1.4-3,3v1h10V17z"
       id="path4146"
       style="fill:#deb056;fill-opacity:1" /></g></svg>