<?xml version="1.0" encoding="utf-8"?>
<!-- Generator: Adobe Illustrator 18.1.1, SVG Export Plug-In . SVG Version: 6.00 Build 0)  -->
<!DOCTYPE svg PUBLIC "-//W3C//DTD SVG 1.1//EN" "http://www.w3.org/Graphics/SVG/1.1/DTD/svg11.dtd">
<svg version="1.1" id="Layer_1" xmlns="http://www.w3.org/2000/svg" xmlns:xlink="http://www.w3.org/1999/xlink" x="0px" y="0px"
	 viewBox="0 0 16 16" enable-background="new 0 0 16 16" xml:space="preserve">
<rect fill="#C76155" width="16" height="16"/>
<polygon fill="#E0ADAD" points="6,8 6,8 6,7 4,7 4,8 "/>
<path fill="#FFFFFF" d="M7.3,6h1.4C9.4,6,10,6.6,10,7.3v1.4C10,9.4,9.4,10,8.7,10H7.3C6.6,10,6,9.4,6,8.7V7.3C6,6.6,6.6,6,7.3,6z"/>
<path fill="#E0ADAD" d="M11,3H5C4,3,3,4,3,5v6c0,1,1,2,2,2h6c1,0,2-1,2-2V5C13,4,12,3,11,3z M12,11c0,0.5-0.5,1-1,1H5
	c-0.5,0-1-0.5-1-1V5c0-0.5,0.5-1,1-1h6c0.5,0,1,0.5,1,1C12,5,12,11,12,11z"/>
</svg>
