<?xml version="1.0" encoding="utf-8"?>
<!-- Generator: Adobe Illustrator 18.1.1, SVG Export Plug-In . SVG Version: 6.00 Build 0)  -->
<!DOCTYPE svg PUBLIC "-//W3C//DTD SVG 1.1//EN" "http://www.w3.org/Graphics/SVG/1.1/DTD/svg11.dtd">
<svg version="1.1" id="Layer_1" xmlns="http://www.w3.org/2000/svg" xmlns:xlink="http://www.w3.org/1999/xlink" x="0px" y="0px"
	 viewBox="0 0 16 16" enable-background="new 0 0 16 16" xml:space="preserve">
<rect fill="#C76155" width="16" height="16"/>
<rect x="3" y="3" fill="#FFFFFF" width="3" height="3"/>
<polygon fill="#E0ADAD" points="9,9 10,9 10,8 9,8 9,5 10,5 10,4 6,4 6,5 8,5 8,12 9,12 "/>
<path fill="#FFFFFF" d="M11,7h1c0.6,0,1,0.4,1,1v1c0,0.6-0.4,1-1,1h-1c-0.6,0-1-0.4-1-1V8C10,7.4,10.4,7,11,7z"/>
<path fill="#FFFFFF" d="M11,3h1c0.5,0,1,0.4,1,1v1c0,0.5-0.4,1-1,1h-1c-0.5,0-1-0.4-1-1V4C10,3.4,10.4,3,11,3z"/>
</svg>
