<?xml version="1.0" encoding="utf-8"?>
<!-- Generator: Adobe Illustrator 19.2.1, SVG Export Plug-In . SVG Version: 6.00 Build 0)  -->
<!DOCTYPE svg PUBLIC "-//W3C//DTD SVG 1.1//EN" "http://www.w3.org/Graphics/SVG/1.1/DTD/svg11.dtd">
<svg version="1.1" id="Layer_1" xmlns="http://www.w3.org/2000/svg" xmlns:xlink="http://www.w3.org/1999/xlink" x="0px" y="0px"
	 viewBox="0 0 16 16" style="enable-background:new 0 0 16 16;" xml:space="preserve">
<style type="text/css">
	.st0{fill:#231F20;}
</style>
<path class="st0" d="M2,3v10h11V3H2z M4,12H3v-1h1V12z M4,10H3V9h1V10z M4,8H3V7h1V8z M4,6H3V5h1V6z M6,12H5v-1h1V12z M6,10H5V9h1
	V10z M6,8H5V7h1V8z M6,6H5V5h1V6z M8,12H7v-1h1V12z M8,10H7V9h1V10z M8,8H7V7h1V8z M8,6H7V5h1V6z M10,12H9v-1h1V12z M10,10H9V9h1V10
	z M10,8H9V7h1V8z M10,6H9V5h1V6z M12,12h-1v-1h1V12z M12,10h-1V9h1V10z M12,8h-1V7h1V8z M12,6h-1V5h1V6z"/>
</svg>
