<?xml version="1.0" encoding="utf-8"?>
<!-- Generator: Adobe Illustrator 19.2.1, SVG Export Plug-In . SVG Version: 6.00 Build 0)  -->
<!DOCTYPE svg PUBLIC "-//W3C//DTD SVG 1.1//EN" "http://www.w3.org/Graphics/SVG/1.1/DTD/svg11.dtd">
<svg version="1.1" id="Layer_1" xmlns="http://www.w3.org/2000/svg" xmlns:xlink="http://www.w3.org/1999/xlink" x="0px" y="0px"
	 viewBox="0 0 16 16" style="enable-background:new 0 0 16 16;" xml:space="preserve">
<style type="text/css">
	.st0{fill:#231F20;}
</style>
<path class="st0" d="M8.9,8.1L13,3L8.4,7.5L4.8,3.2c0,0-0.1-0.1-0.1-0.1C4.2,2.7,3.5,2.7,3.1,3.2C2.7,3.7,2.7,4.4,3.2,4.8l4.3,3.6
	l-4.1,4c0,0,0,0-0.1,0.1c-0.3,0.4-0.2,0.9,0.1,1.2c0.4,0.3,0.9,0.2,1.2-0.1L8.2,9l4.7,4c0,0,0.1,0,0.1,0c0,0,0-0.1,0-0.1L8.9,8.1z"
	/>
</svg>
