<?xml version="1.0" encoding="utf-8"?>
<!-- Generator: Adobe Illustrator 19.2.1, SVG Export Plug-In . SVG Version: 6.00 Build 0)  -->
<svg version="1.1" id="Layer_1" xmlns="http://www.w3.org/2000/svg" xmlns:xlink="http://www.w3.org/1999/xlink" x="0px" y="0px"
	 viewBox="0 0 16 16" style="enable-background:new 0 0 16 16;" xml:space="preserve">
<style type="text/css">
	.st0{fill:#231F20;}
</style>
<g>
	<g>
		<path class="st0" d="M8,11.4c-0.3,0-0.5-0.2-0.5-0.5V5.1c0-0.3,0.2-0.5,0.5-0.5c0.3,0,0.5,0.2,0.5,0.5v5.8
			C8.5,11.2,8.3,11.4,8,11.4z"/>
	</g>
	<g>
		<path class="st0" d="M8,11.4c-0.1,0-0.3,0-0.4-0.1c-0.2-0.2-0.2-0.5,0-0.7l2.9-2.9c0.2-0.2,0.5-0.2,0.7,0c0.2,0.2,0.2,0.5,0,0.7
			l-2.9,2.9C8.3,11.4,8.1,11.4,8,11.4z"/>
	</g>
	<g>
		<path class="st0" d="M8,11.4c-0.1,0-0.3,0-0.4-0.1L4.8,8.4c-0.2-0.2-0.2-0.5,0-0.7c0.2-0.2,0.5-0.2,0.7,0l2.9,2.9
			c0.2,0.2,0.2,0.5,0,0.7C8.3,11.4,8.1,11.4,8,11.4z"/>
	</g>
</g>
<g>
	<path class="st0" d="M8,14c-3.3,0-6-2.7-6-6s2.7-6,6-6s6,2.7,6,6S11.3,14,8,14z M8,3C5.2,3,3,5.2,3,8c0,2.8,2.2,5,5,5
		c2.8,0,5-2.2,5-5C13,5.2,10.8,3,8,3z"/>
</g>
</svg>
