<?xml version="1.0" encoding="utf-8"?>
<!-- Generator: Adobe Illustrator 19.2.1, SVG Export Plug-In . SVG Version: 6.00 Build 0)  -->
<!DOCTYPE svg PUBLIC "-//W3C//DTD SVG 1.1//EN" "http://www.w3.org/Graphics/SVG/1.1/DTD/svg11.dtd">
<svg version="1.1" id="Layer_1" xmlns="http://www.w3.org/2000/svg" xmlns:xlink="http://www.w3.org/1999/xlink" x="0px" y="0px"
	 viewBox="0 0 16 16" style="enable-background:new 0 0 16 16;" xml:space="preserve">
<style type="text/css">
	.st0{fill:#231F20;}
</style>
<path class="st0" d="M2,3v10h11V3H2z M5,12H3v-1h2V12z M5,10H3V9h2V10z M5,8H3V7h2V8z M5,6H3V5h2V6z M9,12H6v-1h3V12z M9,10H6V9h3
	V10z M9,8H6V7h3V8z M9,6H6V5h3V6z M12,12h-2v-1h2V12z M12,10h-2V9h2V10z M12,8h-2V7h2V8z M12,6h-2V5h2V6z"/>
</svg>
