<?xml version="1.0" encoding="utf-8"?>
<!-- Generator: Adobe Illustrator 19.2.1, SVG Export Plug-In . SVG Version: 6.00 Build 0)  -->
<!DOCTYPE svg PUBLIC "-//W3C//DTD SVG 1.1//EN" "http://www.w3.org/Graphics/SVG/1.1/DTD/svg11.dtd">
<svg version="1.1" id="Layer_1" xmlns="http://www.w3.org/2000/svg" xmlns:xlink="http://www.w3.org/1999/xlink" x="0px" y="0px"
	 viewBox="0 0 16 16" style="enable-background:new 0 0 16 16;" xml:space="preserve">
<style type="text/css">
	.st0{fill:#231F20;}
</style>
<path class="st0" d="M12.9,5.1L11,7h-1C9.4,7,9,6.6,9,6V5l1.9-1.9c-0.8-0.2-1.7-0.3-2.7,0.7C7.5,4.4,7,5.1,7,6
	c0,0.3,0.1,0.6,0.1,0.9L3,11.1C3,12.2,3.9,13,5,13l4.1-4.1C9.4,8.9,9.7,9,10,9c0.8,0,1.6-0.5,2.2-1.1C13.1,6.8,13.1,5.9,12.9,5.1z"
	/>
</svg>
