<?xml version="1.0" encoding="utf-8"?>
<!-- Generator: Adobe Illustrator 18.1.1, SVG Export Plug-In . SVG Version: 6.00 Build 0)  -->
<!DOCTYPE svg PUBLIC "-//W3C//DTD SVG 1.1//EN" "http://www.w3.org/Graphics/SVG/1.1/DTD/svg11.dtd">
<svg version="1.1" id="Layer_1" xmlns="http://www.w3.org/2000/svg" xmlns:xlink="http://www.w3.org/1999/xlink" x="0px" y="0px"
	 viewBox="0 0 60 50" enable-background="new 0 0 60 50" xml:space="preserve">
<g>
	<path fill="#7FB642" d="M57.7,0h-56C0.6,0,0,0.1,0,1.2v46C0,48.3,0.6,50,1.7,50h56c1.1,0,2.3-1.7,2.3-2.8v-46C60,0.1,58.8,0,57.7,0
		z M40,35H20V17h3v-2h3v2h8v-2h3v2h3V35z"/>
	<path fill="#7FB642" d="M22,33h16V21H22V33z M26,26h3v-3h2v3h3v2h-3v3h-2v-3h-3V26z"/>
</g>
</svg>
