<?xml version="1.0" encoding="utf-8"?>
<!-- Generator: Adobe Illustrator 18.1.1, SVG Export Plug-In . SVG Version: 6.00 Build 0)  -->
<!DOCTYPE svg PUBLIC "-//W3C//DTD SVG 1.1//EN" "http://www.w3.org/Graphics/SVG/1.1/DTD/svg11.dtd">
<svg version="1.1" id="Layer_1" xmlns="http://www.w3.org/2000/svg" xmlns:xlink="http://www.w3.org/1999/xlink" x="0px" y="0px"
	 viewBox="0 0 60 50" enable-background="new 0 0 60 50" xml:space="preserve">
<g>
	<path fill="#6C6D4B" d="M58,0H2C0.9,0,0,0.9,0,2v46c0,1.1,0.9,2,2,2h56c1.1,0,2-0.9,2-2V2C60,0.9,59.1,0,58,0z M38,19h-2l-5.6,6.4
		l4.1,7.6H37v1h-7v-1h2l-3-5.5L24,33h2v1h-6v-1h2l6-7l-4-7h-2v-1c1,0,7.1,0,8,0v1h-3l2.9,5.4L34,19h-2v-1h6V19z"/>
</g>
</svg>
