<?xml version="1.0" encoding="UTF-8" standalone="no"?>
<!-- Created with Inkscape (http://www.inkscape.org/) -->

<svg
   xmlns:dc="http://purl.org/dc/elements/1.1/"
   xmlns:cc="http://creativecommons.org/ns#"
   xmlns:rdf="http://www.w3.org/1999/02/22-rdf-syntax-ns#"
   xmlns:svg="http://www.w3.org/2000/svg"
   xmlns="http://www.w3.org/2000/svg"
   xmlns:sodipodi="http://sodipodi.sourceforge.net/DTD/sodipodi-0.dtd"
   xmlns:inkscape="http://www.inkscape.org/namespaces/inkscape"
   width="16.933332mm"
   height="14.111111mm"
   viewBox="0 0 59.999997 49.999998"
   id="svg4414"
   version="1.1"
   inkscape:version="0.91pre3 r13670"
   sodipodi:docname="cast_activityTypeLog.svg">
  <defs
     id="defs4416" />
  <sodipodi:namedview
     id="base"
     pagecolor="#ffffff"
     bordercolor="#666666"
     borderopacity="1.0"
     inkscape:pageopacity="0.0"
     inkscape:pageshadow="2"
     inkscape:zoom="1"
     inkscape:cx="202.59236"
     inkscape:cy="-3.8387256"
     inkscape:document-units="px"
     inkscape:current-layer="layer1"
     showgrid="false"
     fit-margin-top="0"
     fit-margin-left="0"
     fit-margin-right="0"
     fit-margin-bottom="0"
     inkscape:window-width="1920"
     inkscape:window-height="1017"
     inkscape:window-x="1912"
     inkscape:window-y="-8"
     inkscape:window-maximized="1" />
  <metadata
     id="metadata4419">
    <rdf:RDF>
      <cc:Work
         rdf:about="">
        <dc:format>image/svg+xml</dc:format>
        <dc:type
           rdf:resource="http://purl.org/dc/dcmitype/StillImage" />
        <dc:title></dc:title>
      </cc:Work>
    </rdf:RDF>
  </metadata>
  <g
     inkscape:label="Layer 1"
     inkscape:groupmode="layer"
     id="layer1"
     transform="translate(-347.14286,-573.07649)">
    <g
       transform="translate(79.142857,547.07649)"
       id="g4395">
      <g
         transform="translate(268,25.999999)"
         style="fill:#ff6600;fill-opacity:1"
         id="g5-1-1">
        <path
           d="m 28,18.1 2,0 c 0.6,0 1,0.4 1,1 l 0,3 c 0,0.6 -0.4,1 -1,1 l -2,0 c -0.6,0 -1,-0.4 -1,-1 l 0,-3 c 0,-0.6 0.4,-1 1,-1 z"
           id="path7-2-9"
           inkscape:connector-curvature="0"
           style="fill:#ff6600;fill-opacity:1" />
        <path
           sodipodi:nodetypes="cssccccccccsssssscc"
           d="M 0,43.25 0,48 c 0,1.1 0.9,2 2,2 l 5,0 C 6.5417063,46.487608 2.8933643,43.409014 0,43.25 Z M 12,50 17,50 C 16.340101,42.100815 8.1794177,33.722929 0,33.75 l 0,4.75 c 6.1599603,0.970158 11.198944,6.108312 12,11.5 z m 10,0 36,0 c 1.1,0 2,-0.9 2,-2 L 60,2 C 60,0.9 59.1,0 58,0 L 2,0 C 0.9,0 0,0.9 0,2 l 0,27 c 12.301225,1.640049 20.322214,9.594042 22,21 z"
           id="path9-04-8"
           inkscape:connector-curvature="0"
           style="fill:#ff6600;fill-opacity:1" />
      </g>
      <path
         inkscape:connector-curvature="0"
         d="m 288.24913,43.435872 0,1.601562 2.21707,0 0,-1.601562 z m 0,4.375 0,1.601562 2.21707,0 0,-1.601562 z m 0,4.375 0,1.601562 2.21707,0 0,-1.601562 z m 0,4.375 0,1.601562 2.21707,0 0,-1.601562 z m 2.25174,-16.685873 0,3.578125 2.12109,0 0,1.601562 -2.12109,0 0,2.773438 2.12109,0 0,1.601562 -2.12109,0 0,2.773438 2.12109,0 0,1.601562 -2.12109,0 0,2.773438 2.12109,0 0,1.601562 -2.12109,0 0,3.945313 17.25,0 0,-22.25 -17.25,0 z m 3.61132,2.210937 3.28907,0 -0.36133,8.339844 -2.56445,0 -0.36329,-8.339844 z m 7.83789,6.695313 c 1.21586,0 2.18078,0.268137 2.89454,0.804687 0.71376,0.536553 1.07031,1.23911 1.07031,2.105469 0,0.497172 -0.073,0.93636 -0.2207,1.320312 -0.14276,0.379033 -0.34747,0.709653 -0.61329,0.990235 -0.26581,0.280582 -0.58487,0.53044 -0.95898,0.751953 -0.36918,0.22151 -0.78822,0.423335 -1.25586,0.605469 l 0,1.683593 -2.59961,0 0,-2.488281 c 0.34949,-0.09353 0.66473,-0.188661 0.94531,-0.287109 0.2855,-0.09845 0.5844,-0.258956 0.89454,-0.480469 0.29042,-0.196901 0.5153,-0.424657 0.67773,-0.685547 0.16737,-0.260893 0.25195,-0.556913 0.25195,-0.886718 0,-0.492251 -0.1605,-0.842085 -0.48047,-1.048829 -0.31504,-0.211666 -0.76,-0.316406 -1.33593,-0.316406 -0.35442,0 -0.75518,0.07592 -1.20313,0.228516 -0.44303,0.152595 -0.84957,0.348639 -1.21875,0.589843 l -0.29492,0 0,-2.251953 c 0.31505,-0.132906 0.79844,-0.271309 1.45312,-0.414062 0.6547,-0.147673 1.31977,-0.220703 1.99414,-0.220703 z m -7.7832,2.943359 3.17969,0 0,2.078125 -3.17969,0 0,-2.078125 z m 5.92383,6.324219 2.98242,0 0,1.949219 -2.98242,0 0,-1.949219 z"
         style="color:#000000;font-style:normal;font-variant:normal;font-weight:normal;font-stretch:normal;font-size:medium;line-height:normal;font-family:sans-serif;text-indent:0;text-align:start;text-decoration:none;text-decoration-line:none;text-decoration-style:solid;text-decoration-color:#000000;letter-spacing:normal;word-spacing:normal;text-transform:none;direction:ltr;block-progression:tb;writing-mode:lr-tb;baseline-shift:baseline;text-anchor:start;white-space:normal;clip-rule:nonzero;display:inline;overflow:visible;visibility:visible;opacity:1;isolation:auto;mix-blend-mode:normal;color-interpolation:sRGB;color-interpolation-filters:linearRGB;solid-color:#000000;solid-opacity:1;fill:#803300;fill-opacity:1;fill-rule:evenodd;stroke:none;stroke-width:1.60000002;stroke-linecap:butt;stroke-linejoin:miter;stroke-miterlimit:4;stroke-dasharray:none;stroke-dashoffset:0;stroke-opacity:1;color-rendering:auto;image-rendering:auto;shape-rendering:auto;text-rendering:auto;enable-background:accumulate"
         id="path4283-8-1" />
    </g>
  </g>
</svg>
