<?xml version="1.0" encoding="UTF-8" standalone="no"?>
<!-- Created with Inkscape (http://www.inkscape.org/) -->

<svg
   xmlns:dc="http://purl.org/dc/elements/1.1/"
   xmlns:cc="http://creativecommons.org/ns#"
   xmlns:rdf="http://www.w3.org/1999/02/22-rdf-syntax-ns#"
   xmlns:svg="http://www.w3.org/2000/svg"
   xmlns="http://www.w3.org/2000/svg"
   xmlns:sodipodi="http://sodipodi.sourceforge.net/DTD/sodipodi-0.dtd"
   xmlns:inkscape="http://www.inkscape.org/namespaces/inkscape"
   width="16.933332mm"
   height="14.111111mm"
   viewBox="0 0 59.999997 49.999998"
   id="svg5552"
   version="1.1"
   inkscape:version="0.91pre3 r13670"
   sodipodi:docname="cast_activityTypeCreateUser.svg">
  <defs
     id="defs5554" />
  <sodipodi:namedview
     id="base"
     pagecolor="#ffffff"
     bordercolor="#666666"
     borderopacity="1.0"
     inkscape:pageopacity="0.0"
     inkscape:pageshadow="2"
     inkscape:zoom="0.35"
     inkscape:cx="1220.7143"
     inkscape:cy="110.71429"
     inkscape:document-units="px"
     inkscape:current-layer="layer1"
     showgrid="false"
     fit-margin-top="0"
     fit-margin-left="0"
     fit-margin-right="0"
     fit-margin-bottom="0"
     inkscape:window-width="1920"
     inkscape:window-height="1017"
     inkscape:window-x="1912"
     inkscape:window-y="-8"
     inkscape:window-maximized="1" />
  <metadata
     id="metadata5557">
    <rdf:RDF>
      <cc:Work
         rdf:about="">
        <dc:format>image/svg+xml</dc:format>
        <dc:type
           rdf:resource="http://purl.org/dc/dcmitype/StillImage" />
        <dc:title></dc:title>
      </cc:Work>
    </rdf:RDF>
  </metadata>
  <g
     inkscape:label="Layer 1"
     inkscape:groupmode="layer"
     id="layer1"
     transform="translate(1281.4286,-593.07649)">
    <g
       id="g6114">
      <g
         transform="translate(-1281.4286,593.07649)"
         style="fill:#ff6600;fill-opacity:1"
         id="g5">
        <path
           d="m 28,18.1 2,0 c 0.6,0 1,0.4 1,1 l 0,3 c 0,0.6 -0.4,1 -1,1 l -2,0 c -0.6,0 -1,-0.4 -1,-1 l 0,-3 c 0,-0.6 0.4,-1 1,-1 z"
           id="path7"
           inkscape:connector-curvature="0"
           style="fill:#ff6600;fill-opacity:1" />
        <path
           sodipodi:nodetypes="cssccccccccsssssscc"
           d="M 0,43.25 0,48 c 0,1.1 0.9,2 2,2 l 5,0 C 6.5417063,46.487608 2.8933643,43.409014 0,43.25 Z M 12,50 17,50 C 16.340101,42.100815 8.1794177,33.722929 0,33.75 l 0,4.75 c 6.1599603,0.970158 11.198944,6.108312 12,11.5 z m 10,0 36,0 c 1.1,0 2,-0.9 2,-2 L 60,2 C 60,0.9 59.1,0 58,0 L 2,0 C 0.9,0 0,0.9 0,2 l 0,27 c 12.301225,1.640049 20.322214,9.594042 22,21 z"
           id="path9"
           inkscape:connector-curvature="0"
           style="fill:#ff6600;fill-opacity:1" />
      </g>
      <path
         style="fill:#803300;fill-opacity:1"
         sodipodi:nodetypes="ccccccccccccc"
         inkscape:connector-curvature="0"
         d="m -1224.3517,602.97366 0,-2.73346 -4.0758,0 0,-4.07578 -2.7334,0 0,4.07578 -4.1002,0 0,2.73346 4.1002,0 0,4.1002 2.7334,0 0,-4.1002 z"
         id="path3071-4" />
      <path
         sodipodi:nodetypes="ccccccsssc"
         inkscape:connector-curvature="0"
         d="m -1261.927,628.4281 20.9969,-0.0489 c -0.1811,-2.56233 -1.1421,-7.24288 -5.5996,-9.41721 -3.1769,2.51755 -7.0723,2.32638 -9.8467,-0.026 -4.1548,2.20173 -5.5228,6.30406 -5.5506,9.49212 z m 16.2004,-14.95233 c 0,3.17614 -2.5529,5.7509 -5.702,5.7509 -3.1491,0 -5.7019,-2.57476 -5.7019,-5.7509 0,-3.17613 2.5528,-5.75089 5.7019,-5.75089 3.1409,0 5.6903,2.56177 5.7019,5.72955"
         style="fill:#803300;fill-opacity:1;stroke:none"
         id="path3135-1" />
    </g>
  </g>
</svg>
