<?xml version="1.0" encoding="UTF-8" standalone="no"?>
<!-- Created with Inkscape (http://www.inkscape.org/) -->

<svg
   xmlns:dc="http://purl.org/dc/elements/1.1/"
   xmlns:cc="http://creativecommons.org/ns#"
   xmlns:rdf="http://www.w3.org/1999/02/22-rdf-syntax-ns#"
   xmlns:svg="http://www.w3.org/2000/svg"
   xmlns="http://www.w3.org/2000/svg"
   xmlns:sodipodi="http://sodipodi.sourceforge.net/DTD/sodipodi-0.dtd"
   xmlns:inkscape="http://www.inkscape.org/namespaces/inkscape"
   width="16.933332mm"
   height="14.111111mm"
   viewBox="0 0 59.999997 49.999998"
   id="svg5129"
   version="1.1"
   inkscape:version="0.91pre3 r13670"
   sodipodi:docname="cast_activityTypeDisableTenant.svg">
  <defs
     id="defs5131" />
  <sodipodi:namedview
     id="base"
     pagecolor="#ffffff"
     bordercolor="#666666"
     borderopacity="1.0"
     inkscape:pageopacity="0.0"
     inkscape:pageshadow="2"
     inkscape:zoom="0.35"
     inkscape:cx="677.85714"
     inkscape:cy="-929.28571"
     inkscape:document-units="px"
     inkscape:current-layer="layer1"
     showgrid="false"
     fit-margin-top="0"
     fit-margin-left="0"
     fit-margin-right="0"
     fit-margin-bottom="0"
     inkscape:window-width="1920"
     inkscape:window-height="1017"
     inkscape:window-x="1912"
     inkscape:window-y="-8"
     inkscape:window-maximized="1" />
  <metadata
     id="metadata5134">
    <rdf:RDF>
      <cc:Work
         rdf:about="">
        <dc:format>image/svg+xml</dc:format>
        <dc:type
           rdf:resource="http://purl.org/dc/dcmitype/StillImage" />
        <dc:title></dc:title>
      </cc:Work>
    </rdf:RDF>
  </metadata>
  <g
     inkscape:label="Layer 1"
     inkscape:groupmode="layer"
     id="layer1"
     transform="translate(738.57143,446.92351)">
    <g
       id="g5691">
      <g
         transform="translate(-738.57143,-446.92351)"
         style="fill:#ff6600;fill-opacity:1"
         id="g5-1-1-9">
        <path
           d="m 28,18.1 2,0 c 0.6,0 1,0.4 1,1 l 0,3 c 0,0.6 -0.4,1 -1,1 l -2,0 c -0.6,0 -1,-0.4 -1,-1 l 0,-3 c 0,-0.6 0.4,-1 1,-1 z"
           id="path7-2-9-3"
           inkscape:connector-curvature="0"
           style="fill:#ff6600;fill-opacity:1" />
        <path
           sodipodi:nodetypes="cssccccccccsssssscc"
           d="M 0,43.25 0,48 c 0,1.1 0.9,2 2,2 l 5,0 C 6.5417063,46.487608 2.8933643,43.409014 0,43.25 Z M 12,50 17,50 C 16.340101,42.100815 8.1794177,33.722929 0,33.75 l 0,4.75 c 6.1599603,0.970158 11.198944,6.108312 12,11.5 z m 10,0 36,0 c 1.1,0 2,-0.9 2,-2 L 60,2 C 60,0.9 59.1,0 58,0 L 2,0 C 0.9,0 0,0.9 0,2 l 0,27 c 12.301225,1.640049 20.322214,9.594042 22,21 z"
           id="path9-04-8-3"
           inkscape:connector-curvature="0"
           style="fill:#ff6600;fill-opacity:1" />
      </g>
      <path
         id="rect2427-1-5"
         d="m -687.01953,-441.56333 c -1.31947,0.007 -2.35497,0.37106 -3.11348,1.45563 -0.28484,0.40727 -0.58885,1.06 -0.58592,1.63771 l 0.005,0.71837 -0.38592,0 c -0.75535,0 -1.36345,0.54344 -1.36345,1.2182 l 0,5.82445 c 0,0.67476 0.60811,1.21788 1.36345,1.21788 l 8.26437,0 c 0.75536,0 1.36347,-0.54312 1.36347,-1.21788 l 0,-5.82445 c 0,-0.67476 -0.60811,-1.2182 -1.36347,-1.2182 l -0.43422,0 c -0.006,-1.12919 -0.0121,0.44634 -0.0182,-0.75613 -0.003,-0.57771 -0.31389,-1.22761 -0.60286,-1.63195 -0.76954,-1.07676 -1.80876,-1.43037 -3.12822,-1.42363 z m 0.90268,2.17817 c 0.29724,-0.001 0.89326,0.29257 0.8963,0.88701 l 0.018,0.74653 -3.58005,0 -0.005,-0.72829 c -0.004,-0.59444 0.58978,-0.89446 0.887,-0.89597 0.59444,-0.003 1.18886,-0.006 1.7833,-0.009 z"
         style="display:inline;overflow:visible;visibility:visible;fill:#803300;fill-opacity:1;fill-rule:nonzero;stroke:#000000;stroke-width:0.00870095;stroke-linecap:round;stroke-linejoin:round;stroke-miterlimit:4;stroke-dasharray:none;stroke-dashoffset:0;stroke-opacity:1;marker:none;marker-start:none;marker-mid:none;marker-end:none;enable-background:accumulate"
         inkscape:connector-curvature="0" />
      <path
         style="fill:#803300;fill-opacity:1"
         sodipodi:nodetypes="cccccccccccc"
         inkscape:connector-curvature="0"
         id="polygon3007-6-7"
         d="m -710.70728,-411.05011 0,-6.21337 4.27169,0 0,6.21337 7.18421,0 0,-9.32006 3.10669,0 -12.42674,-12.42674 -12.42674,12.42674 3.10668,0 0,9.32006 z" />
    </g>
  </g>
</svg>
