<?xml version="1.0" encoding="utf-8"?>
<!-- Generator: Adobe Illustrator 18.1.1, SVG Export Plug-In . SVG Version: 6.00 Build 0)  -->
<!DOCTYPE svg PUBLIC "-//W3C//DTD SVG 1.1//EN" "http://www.w3.org/Graphics/SVG/1.1/DTD/svg11.dtd">
<svg version="1.1" id="Layer_1" xmlns="http://www.w3.org/2000/svg" xmlns:xlink="http://www.w3.org/1999/xlink" x="0px" y="0px"
	 viewBox="0 0 60 50" enable-background="new 0 0 60 50" xml:space="preserve">
<g>
	<rect x="19" y="18" fill="#5B8DAE" width="8" height="1"/>
	<rect x="19" y="20" fill="#5B8DAE" width="8" height="1"/>
	<rect x="19" y="22" fill="#5B8DAE" width="4" height="1"/>
	<path fill="#5B8DAE" d="M58,0H2C0.9,0,0,0.9,0,2v46c0,1.1,0.9,2,2,2h56c1.1,0,2-0.9,2-2V2C60,0.9,59.1,0,58,0z M17,15h12v13H17V15z
		 M33,18h8v1h-8V18z M33,20h8v1h-8V20z M33,22h4v1h-4V22z M31,15h12v13H31V15z"/>
</g>
<polygon fill="#FFFFFF" points="22,32 23,32 23,36 37,36 37,33 35,33 37.5,30 40,33 38,33 38,37 22,37 "/>
</svg>
