<?xml version="1.0" encoding="utf-8"?>
<!-- Generator: Adobe Illustrator 18.1.1, SVG Export Plug-In . SVG Version: 6.00 Build 0)  -->
<!DOCTYPE svg PUBLIC "-//W3C//DTD SVG 1.1//EN" "http://www.w3.org/Graphics/SVG/1.1/DTD/svg11.dtd">
<svg version="1.1" id="Layer_1" xmlns="http://www.w3.org/2000/svg" xmlns:xlink="http://www.w3.org/1999/xlink" x="0px" y="0px"
	 viewBox="0 0 60 50" enable-background="new 0 0 60 50" xml:space="preserve">
<g>
	<g>
		<rect x="19" y="23" fill="#5B8DAE" width="5" height="1"/>
		<rect x="19" y="21" fill="#5B8DAE" width="11" height="1"/>
		<rect x="19" y="19" fill="#5B8DAE" width="11" height="1"/>
		<path fill="#5B8DAE" d="M58,0H2C0.9,0,0,0.9,0,2v46c0,1.1,0.9,2,2,2h56c1.1,0,2-0.9,2-2V2C60,0.9,59.1,0,58,0z M32,34H17V16h15V34
			z"/>
	</g>
</g>
<rect x="39" y="23" fill="#FFFFFF" width="1" height="3"/>
<rect x="39" y="31" fill="#FFFFFF" width="1" height="3"/>
<rect x="42" y="28" fill="#FFFFFF" width="3" height="1"/>
<rect x="34" y="28" fill="#FFFFFF" width="3" height="1"/>
<rect x="41.8" y="24.2" transform="matrix(0.7071 0.7071 -0.7071 0.7071 30.5503 -22.4117)" fill="#FFFFFF" width="1" height="3"/>
<rect x="36.2" y="29.8" transform="matrix(0.7071 0.7071 -0.7071 0.7071 32.8934 -16.7548)" fill="#FFFFFF" width="1" height="3"/>
<rect x="41.8" y="29.8" transform="matrix(-0.7071 0.7071 -0.7071 -0.7071 94.4117 23.5503)" fill="#FFFFFF" width="1" height="3"/>
<rect x="36.2" y="24.2" transform="matrix(-0.7071 0.7071 -0.7071 -0.7071 80.7548 17.8934)" fill="#FFFFFF" width="1" height="3"/>
</svg>
