<?xml version="1.0" encoding="utf-8"?>
<!-- Generator: Adobe Illustrator 18.1.1, SVG Export Plug-In . SVG Version: 6.00 Build 0)  -->
<!DOCTYPE svg PUBLIC "-//W3C//DTD SVG 1.1//EN" "http://www.w3.org/Graphics/SVG/1.1/DTD/svg11.dtd">
<svg version="1.1" id="Layer_1" xmlns="http://www.w3.org/2000/svg" xmlns:xlink="http://www.w3.org/1999/xlink" x="0px" y="0px"
	 viewBox="0 0 60 50" enable-background="new 0 0 60 50" xml:space="preserve">
<g>
	<path fill="#BCA94B" d="M25,28.4c-0.4,0.4-1.1,0.4-1.6,0l-0.5-0.5c-0.4-0.4-0.4-1.1,0-1.6l1.8-1.8c-0.1-0.1-0.3-0.1-0.5-0.1
		c-0.3,0-0.6,0.1-0.8,0.3l-3.1,3.1C20.1,28,20,28.3,20,28.6c0,0.3,0.1,0.6,0.3,0.8l1.5,1.5c0.4,0.4,1.2,0.4,1.7,0l3.1-3.1
		c0.4-0.4,0.4-0.9,0.3-1.3L25,28.4z"/>
	<path fill="#BCA94B" d="M33.5,16.3c-0.2-0.2-0.5-0.3-0.8-0.3c-0.3,0-0.6,0.1-0.8,0.3l-3.1,3.1c-0.4,0.4-0.4,0.9-0.3,1.3l1.3-1.3
		c0.4-0.4,1.1-0.4,1.6,0l0.5,0.5c0.4,0.4,0.4,1.1,0,1.6l-1.3,1.3c0.4,0.2,1,0.1,1.3-0.2l3.1-3.1c0.2-0.2,0.3-0.5,0.3-0.8
		c0-0.3-0.1-0.6-0.3-0.8L33.5,16.3z"/>
	<path fill="#BCA94B" d="M58.4,0h-56C1.3,0,0,0.9,0,2v46c0,1.1,1.3,2,2.4,2h56c1.1,0,1.6-0.9,1.6-2V2C60,0.9,59.6,0,58.4,0z
		 M43.1,28.3l0.7,0.7l-2.1,2.1L41,30.4L43.1,28.3z M31.1,25.1c-0.8,0-1.5-0.3-2.1-0.7L28.4,25c1,1.3,0.9,3.3-0.3,4.5L25,32.5
		c-0.6,0.6-1.5,1-2.4,1c-0.9,0-1.8-0.4-2.4-1L18.7,31c-0.6-0.6-1-1.5-1-2.4s0.4-1.8,1-2.4l3.1-3.1c0.6-0.6,1.5-1,2.4-1
		c0.8,0,1.5,0.3,2.1,0.7l0.6-0.6c-1-1.3-0.9-3.3,0.3-4.5l3.1-3.1c0.6-0.6,1.5-1,2.4-1c0.9,0,1.8,0.4,2.4,1l1.5,1.5
		c0.6,0.6,1,1.5,1,2.4c0,0.9-0.4,1.8-1,2.4l-3.1,3.1C32.8,24.7,32,25.1,31.1,25.1z M34,32h3v1h-3V32z M36,36.7L35.3,36l2.1-2.1
		l0.7,0.7L36,36.7z M37.4,31.1L35.3,29l0.7-0.7l2.1,2.1L37.4,31.1z M40,38h-1v-3h1V38z M40,30h-1v-3h1V30z M43.1,36.7L41,34.6
		l0.7-0.7l2.1,2.1L43.1,36.7z M45,33h-3v-1h3V33z"/>
</g>
</svg>
