<?xml version="1.0" encoding="utf-8"?>
<!-- Generator: Adobe Illustrator 18.1.1, SVG Export Plug-In . SVG Version: 6.00 Build 0)  -->
<!DOCTYPE svg PUBLIC "-//W3C//DTD SVG 1.1//EN" "http://www.w3.org/Graphics/SVG/1.1/DTD/svg11.dtd">
<svg version="1.1" id="Layer_1" xmlns="http://www.w3.org/2000/svg" xmlns:xlink="http://www.w3.org/1999/xlink" x="0px" y="0px"
	 viewBox="0 0 60 50" enable-background="new 0 0 60 50" xml:space="preserve">
<path fill="#F9A51A" d="M53.6,24L30,0.4c-0.6-0.6-1.5-0.6-2,0L4.4,24c-0.6,0.6-0.6,1.5,0,2L28,49.6c0.6,0.6,1.5,0.6,2,0L53.6,26
	C54.1,25.5,54.1,24.5,53.6,24z M31,33h-3v-3h3V33z M32.9,26.1c-0.8,0.5-1.3,0.9-1.5,1.2s-0.3,0.9-0.3,1.7H28v-0.5
	c0-1.5,0.1-2.5,0.4-2.9c0.2-0.4,0.9-1,1.9-1.7c0.5-0.4,0.9-0.8,1.1-1.1c0.2-0.3,0.3-0.8,0.3-1.3c0-0.6-0.2-1.1-0.6-1.5
	c-0.4-0.4-0.9-0.5-1.4-0.5c-1.5,0-2.3,1-2.5,3.1l-3.4-0.5c0.3-1.9,0.9-3.3,2.1-4.3c1.1-1,2.5-1.4,4.1-1.4c1.6,0,3,0.5,4.1,1.4
	c1.1,1,1.7,2.2,1.7,3.6C35.7,23.4,34.8,24.9,32.9,26.1z"/>
</svg>
