<?xml version="1.0" encoding="utf-8"?>
<!-- Generator: Adobe Illustrator 18.1.1, SVG Export Plug-In . SVG Version: 6.00 Build 0)  -->
<!DOCTYPE svg PUBLIC "-//W3C//DTD SVG 1.1//EN" "http://www.w3.org/Graphics/SVG/1.1/DTD/svg11.dtd">
<svg version="1.1" id="Layer_1" xmlns="http://www.w3.org/2000/svg" xmlns:xlink="http://www.w3.org/1999/xlink" x="0px" y="0px"
	 viewBox="0 0 60 50" enable-background="new 0 0 60 50" xml:space="preserve">
<g>
	<path fill="#669933" d="M58,0H2C0.9,0,0,0.9,0,2v46c0,1.1,0.9,2,2,2h56c1.1,0,2-0.9,2-2V2C60,0.9,59.1,0,58,0z M27,17h1v1h-1V17z
		 M27,19h1v1h-1V19z M29,17h1v1h-1V17z M29,19h1v1h-1V19z M25,17h1v1h-1V17z M25,19h1v1h-1V19z M23,17h1v1h-1V17z M23,19h1v1h-1V19z
		 M21,17h1v1h-1V17z M21,19h1v1h-1V19z M19,17h1v1h-1V17z M19,19h1v1h-1V19z M17,17h1v1h-1V17z M17,19h1v1h-1V19z M15,17h1v1h-1V17z
		 M15,19h1v1h-1V19z M32,26H15v-3h17V26z M32,20h-1v-1h1V20z M32,18h-1v-1h1V18z M27,29h1v1h-1V29z M27,31h1v1h-1V31z M29,29h1v1h-1
		V29z M29,31h1v1h-1V31z M25,29h1v1h-1V29z M25,31h1v1h-1V31z M23,29h1v1h-1V29z M23,31h1v1h-1V31z M21,29h1v1h-1V29z M21,31h1v1h-1
		V31z M19,29h1v1h-1V29z M19,31h1v1h-1V31z M17,29h1v1h-1V29z M17,31h1v1h-1V31z M15,29h1v1h-1V29z M15,31h1v1h-1V31z M32,32h-1v-1
		h1V32z M32,30h-1v-1h1V30z M39,28l-4-3l2-2l2,2l7.8-6H48L39,28z"/>
</g>
</svg>
