<?xml version="1.0" encoding="utf-8"?>
<!-- Generator: Adobe Illustrator 20.1.0, SVG Export Plug-In . SVG Version: 6.00 Build 0)  -->
<svg version="1.1" id="Layer_1" xmlns="http://www.w3.org/2000/svg" xmlns:xlink="http://www.w3.org/1999/xlink" x="0px" y="0px"
	 viewBox="0 0 60 50" style="enable-background:new 0 0 60 50;" xml:space="preserve">
<style type="text/css">
	.st0{fill:#004C92;}
	.st1{fill:#FFFFFF;}
	.st2{opacity:0.3;fill:#FFFFFF;}
</style>
<g>
	<path class="st0" d="M58,0H2C0.9,0,0,0.9,0,2v46c0,1.1,0.9,2,2,2h56c1.1,0,2-0.9,2-2V2C60,0.9,59.1,0,58,0z"/>
</g>
<g>
	<path class="st1" d="M25,15H10v18h15V15z M12,17h3v1h-3V17z M15,24h-3v-1h3V24z M15,22h-3v-1h3V22z M15,20h-3v-1h3V20z M16,17h3v1
		h-3V17z M19,24h-3v-1h3V24z M19,22h-3v-1h3V22z M19,20h-3v-1h3V20z M20,17h3v1h-3V17z M23,24h-3v-1h3V24z M23,22h-3v-1h3V22z
		 M15,28h-3v-1h3V28z M15,26h-3v-1h3V26z M19,28h-3v-1h3V28z M19,26h-3v-1h3V26z M23,28h-3v-1h3V28z M23,26h-3v-1h3V26z M23,20h-3
		v-1h3V20z"/>
</g>
<rect x="36" y="15" class="st2" width="11" height="16"/>
<polygon class="st2" points="48,17 48,32 37,32 37,33 49,33 49,17 "/>
<path class="st1" d="M27,27c0,0,0.8-6,7-6v-3l5,4.5L34,27v-3C34,24,28.1,23.1,27,27z"/>
</svg>
