<?xml version="1.0" encoding="UTF-8" standalone="no"?>
<!-- Generator: Adobe Illustrator 19.2.1, SVG Export Plug-In . SVG Version: 6.00 Build 0)  -->

<svg
   xmlns:dc="http://purl.org/dc/elements/1.1/"
   xmlns:cc="http://creativecommons.org/ns#"
   xmlns:rdf="http://www.w3.org/1999/02/22-rdf-syntax-ns#"
   xmlns:svg="http://www.w3.org/2000/svg"
   xmlns="http://www.w3.org/2000/svg"
   xmlns:sodipodi="http://sodipodi.sourceforge.net/DTD/sodipodi-0.dtd"
   xmlns:inkscape="http://www.inkscape.org/namespaces/inkscape"
   version="1.1"
   id="Layer_1"
   x="0px"
   y="0px"
   viewBox="0 0 60 50"
   style="enable-background:new 0 0 60 50;"
   xml:space="preserve"
   inkscape:version="0.91pre3 r13670"
   sodipodi:docname="launchPersonCampaignActivity.svg"><metadata
   id="metadata19"><rdf:RDF><cc:Work
       rdf:about=""><dc:format>image/svg+xml</dc:format><dc:type
         rdf:resource="http://purl.org/dc/dcmitype/StillImage" /></cc:Work></rdf:RDF></metadata><defs
   id="defs17">
	
	
	
	
</defs><sodipodi:namedview
   pagecolor="#ffffff"
   bordercolor="#666666"
   borderopacity="1"
   objecttolerance="10"
   gridtolerance="10"
   guidetolerance="10"
   inkscape:pageopacity="0"
   inkscape:pageshadow="2"
   inkscape:window-width="1920"
   inkscape:window-height="1017"
   id="namedview15"
   showgrid="false"
   inkscape:zoom="6.675088"
   inkscape:cx="39.544749"
   inkscape:cy="25.736451"
   inkscape:window-x="1912"
   inkscape:window-y="-8"
   inkscape:window-maximized="1"
   inkscape:current-layer="Layer_1" />
<style
   type="text/css"
   id="style3">
	.st0{fill:#0C734B;}
</style>
<rect
   style="fill:#0c734b"
   id="rect7"
   height="1"
   width="1"
   class="st0"
   y="23"
   x="25" /><rect
   style="fill:#0c734b"
   id="rect9"
   height="1"
   width="1"
   class="st0"
   y="27"
   x="25" /><rect
   style="fill:#0c734b"
   id="rect11"
   height="1"
   width="1"
   class="st0"
   y="19"
   x="25" /><path
   style="fill:#0c734b"
   d="M 2 0 C 0.9 0 0 0.9 0 2 L 0 48 C 0 49.1 0.9 50 2 50 L 58 50 C 59.1 50 60 49.1 60 48 L 60 2 C 60 0.9 59.1 0 58 0 L 2 0 z M 26 13 L 32 13 L 32 14 L 37 14 L 37 26 L 36 26 L 36 15 L 32 15 L 32 16 L 26 16 L 26 15 L 22 15 L 22 34 L 32 34 L 32 35 L 21 35 L 21 14 L 26 14 L 26 13 z M 24 18 L 27 18 L 27 21 L 24 21 L 24 18 z M 28 19 L 34 19 L 34 20 L 28 20 L 28 19 z M 24 22 L 27 22 L 27 25 L 24 25 L 24 22 z M 28 23 L 34 23 L 34 24 L 28 24 L 28 23 z M 24 26 L 27 26 L 27 29 L 24 29 L 24 26 z M 28 27 L 34 27 L 34 28 L 28 28 L 28 27 z M 38.560547 27.148438 C 40.415764 27.148438 41.922835 28.66211 41.929688 30.533203 L 41.929688 30.544922 C 41.929688 32.420954 40.420608 33.941406 38.560547 33.941406 C 36.700487 33.941406 35.193359 32.420954 35.193359 30.544922 C 35.193359 28.668896 36.700487 27.148438 38.560547 27.148438 z M 35.638672 33.769531 C 37.27741 35.159 39.578597 35.272182 41.455078 33.785156 C 44.087963 35.069455 44.65475 37.834179 44.761719 39.347656 L 32.359375 39.376953 C 32.375795 37.493881 33.184581 35.070014 35.638672 33.769531 z "
   id="path13" />
</svg>