<?xml version="1.0" encoding="utf-8"?>
<!-- Generator: Adobe Illustrator 18.1.1, SVG Export Plug-In . SVG Version: 6.00 Build 0)  -->
<!DOCTYPE svg PUBLIC "-//W3C//DTD SVG 1.1//EN" "http://www.w3.org/Graphics/SVG/1.1/DTD/svg11.dtd">
<svg version="1.1" id="Layer_1" xmlns="http://www.w3.org/2000/svg" xmlns:xlink="http://www.w3.org/1999/xlink" x="0px" y="0px"
	 viewBox="0 0 60 50" enable-background="new 0 0 60 50" xml:space="preserve">
<g>
	<g>
		<path fill="#8A6352" d="M28,18.1h2c0.6,0,1,0.4,1,1v3c0,0.6-0.4,1-1,1h-2c-0.6,0-1-0.4-1-1v-3C27,18.5,27.4,18.1,28,18.1z"/>
		<path fill="#8A6352" d="M58,0H2C0.9,0,0,0.9,0,2v46c0,1.1,0.9,2,2,2h56c1.1,0,2-0.9,2-2V2C60,0.9,59.1,0,58,0z M20,17l1,0.1v6h4v1
			h-5V17z M25,26.1v1h-2v-1H25z M28,26.1v1h-2v-1H28z M20,26.1h2v1h-2V26.1z M20,28.1h7v1h-7V28.1z M27,17.1h4c0.6,0,1,0.4,1,1v5
			c0,0.6-0.4,1-1,1h-4c-0.6,0-1-0.4-1-1v-5C26,17.5,26.4,17.1,27,17.1z M34,26.1v1h-5v-1H34z M30,29.1h-2v-1h2V29.1z M31,28.1h2v1
			h-2V28.1z M34,28.1h2v1h-2V28.1z M37,28.1h2v1h-2V28.1z M39,27.1h-4v-1h4V27.1z M25,30.1v1h-2v-1H25z M28,30.1v1h-2v-1H28z
			 M20,30.1h2v1h-2V30.1z M20,32.1h7v1h-7V32.1z M34,30.1v1h-5v-1H34z M30,33.1h-2v-1h2V33.1z M31,32.1h2v1h-2V32.1z M34,32.1h2v1
			h-2V32.1z M37,32.1h2v1h-2V32.1z M39,31.1h-4v-1h4V31.1z M39,18.1h-4v5h3v-2h-1v-1h2v4h-5v-7h5V18.1z"/>
	</g>
</g>
</svg>
