<?xml version="1.0" encoding="utf-8"?>
<!-- Generator: Adobe Illustrator 20.1.0, SVG Export Plug-In . SVG Version: 6.00 Build 0)  -->
<svg version="1.1" id="Layer_1" xmlns="http://www.w3.org/2000/svg" xmlns:xlink="http://www.w3.org/1999/xlink" x="0px" y="0px"
	 viewBox="0 0 60 50" style="enable-background:new 0 0 60 50;" xml:space="preserve">
<style type="text/css">
	.st0{fill:#FFFFFF;}
	.st1{fill:#E17B11;}
</style>
<rect x="16" y="13" class="st0" width="28" height="25"/>
<path class="st1" d="M58,0H2C0.9,0,0,0.9,0,2v46c0,1.1,0.9,2,2,2h56c1.1,0,2-0.9,2,0V4C60,0.9,59.1,0,58,0z M32,32l-3,5l0-5h-1
	c-6.6,0-10-4-10-9s3.4-9,10-9h4c6.6,0,10,4,10,9S38.6,32,32,32z"/>
<rect x="29" y="18" class="st1" width="2" height="7"/>
<rect x="29" y="26" class="st1" width="2" height="2"/>
</svg>
