<?xml version="1.0" encoding="utf-8"?>
<!-- Generator: Adobe Illustrator 19.1.0, SVG Export Plug-In . SVG Version: 6.00 Build 0)  -->
<!DOCTYPE svg PUBLIC "-//W3C//DTD SVG 1.1//EN" "http://www.w3.org/Graphics/SVG/1.1/DTD/svg11.dtd">
<svg version="1.1" id="Layer_1" xmlns="http://www.w3.org/2000/svg" xmlns:xlink="http://www.w3.org/1999/xlink" x="0px" y="0px"
	 viewBox="0 0 60 50" style="enable-background:new 0 0 60 50;" xml:space="preserve">
<style type="text/css">
	.st0{fill:#4847A9;}
</style>
<g>
	<path class="st0" d="M58,0H2C0.9,0,0,0.9,0,2v46c0,1.1,0.9,2,2,2h56c1.1,0,2-0.9,2-2V2C60,0.9,59.1,0,58,0z M41,31H19V17h15v1H20
		v12h20v-5h1V31z M22,23v-3h7v3H22z M29,24v3h-7v-3H29z M35,26h-3v-3l8-8l3,3L35,26z M44,17l-3-3l2-2l3,3L44,17z"/>
	<rect x="23" y="21" class="st0" width="5" height="1"/>
	<rect x="23" y="25" class="st0" width="5" height="1"/>
</g>
</svg>
