<?xml version="1.0" encoding="utf-8"?>
<!-- Generator: Adobe Illustrator 18.1.1, SVG Export Plug-In . SVG Version: 6.00 Build 0)  -->
<!DOCTYPE svg PUBLIC "-//W3C//DTD SVG 1.1//EN" "http://www.w3.org/Graphics/SVG/1.1/DTD/svg11.dtd">
<svg version="1.1" id="Layer_1" xmlns="http://www.w3.org/2000/svg" xmlns:xlink="http://www.w3.org/1999/xlink" x="0px" y="0px"
	 viewBox="0 0 60 50" enable-background="new 0 0 60 50" xml:space="preserve">
<g>
	<path fill="#9E2B58" d="M58,0H2C0.9,0,0,0.9,0,2v46c0,1.1,0.9,2,2,2h56c1.1,0,2-0.9,2-2V2C60,0.9,59.1,0,58,0z M29,24c0,0-8,0-8,0
		v-8h8V24z M39,34h-8v-8h8V34z"/>
</g>
<rect x="22" y="26" fill="#FFFFFF" width="1" height="1"/>
<rect x="23" y="29" fill="#FFFFFF" width="1" height="1"/>
<rect x="25" y="31" fill="#FFFFFF" width="1" height="1"/>
<rect x="37" y="23" fill="#FFFFFF" width="1" height="1"/>
<rect x="36" y="20" fill="#FFFFFF" width="1" height="1"/>
<rect x="34" y="18" fill="#FFFFFF" width="1" height="1"/>
</svg>
