<?xml version="1.0" encoding="utf-8"?>
<!-- Generator: Adobe Illustrator 19.2.1, SVG Export Plug-In . SVG Version: 6.00 Build 0)  -->
<!DOCTYPE svg PUBLIC "-//W3C//DTD SVG 1.1//EN" "http://www.w3.org/Graphics/SVG/1.1/DTD/svg11.dtd">
<svg version="1.1" id="Layer_1" xmlns="http://www.w3.org/2000/svg" xmlns:xlink="http://www.w3.org/1999/xlink" x="0px" y="0px"
	 viewBox="0 0 60 50" style="enable-background:new 0 0 60 50;" xml:space="preserve">
<style type="text/css">
	.st0{fill:#0C734B;}
</style>
<g>
	<rect x="25" y="23" class="st0" width="1" height="1"/>
	<rect x="25" y="27" class="st0" width="1" height="1"/>
	<rect x="25" y="19" class="st0" width="1" height="1"/>
	<circle class="st0" cx="37" cy="33" r="2.8"/>
	<path class="st0" d="M58,0H2C0.9,0,0,0.9,0,2v46c0,1.1,0.9,2,2,2h56c1.1,0,2-0.9,2-2V2C60,0.9,59.1,0,58,0z M32,33H21V14h5v-1h6v1
		h5v14h-1V15h-4v1h-6v-1h-4v17h10V33z M28,24v-1h6v1H28z M34,27v1h-6v-1H34z M28,20v-1h6v1H28z M24,25v-3h3v3H24z M27,26v3h-3v-3H27
		z M24,21v-3h3v3H24z M43.8,40.3c-0.1,0.1-0.3,0.2-0.5,0.2s-0.4-0.1-0.5-0.2L39,36.5c0,0,0,0,0-0.1C38.4,36.8,37.7,37,37,37
		c-2.2,0-4-1.8-4-4s1.8-4,4-4c2.2,0,4,1.8,4,4c0,1-0.4,1.8-0.9,2.5l3.7,3.7C44.1,39.5,44.1,40,43.8,40.3z"/>
</g>
</svg>
