<?xml version="1.0" encoding="utf-8"?>
<!-- Generator: Adobe Illustrator 18.1.1, SVG Export Plug-In . SVG Version: 6.00 Build 0)  -->
<!DOCTYPE svg PUBLIC "-//W3C//DTD SVG 1.1//EN" "http://www.w3.org/Graphics/SVG/1.1/DTD/svg11.dtd">
<svg version="1.1" id="Layer_1" xmlns="http://www.w3.org/2000/svg" xmlns:xlink="http://www.w3.org/1999/xlink" x="0px" y="0px"
	 viewBox="0 0 60 50" enable-background="new 0 0 60 50" xml:space="preserve">
<g>
	<g>
		<path fill="#595F68" d="M58,0H2C0.9,0,0,0.9,0,2v46c0,1.1,0.9,2,2,2h56c1.1,0,2-0.9,2-2V2C60,0.9,59.1,0,58,0z M24,32H12v-1h12
			L24,32L24,32z M24,29h-8v-1h8V29z M24,26h-4v-1h4V26z M45,32H26V18h19V32z"/>
		<path fill="#929497" d="M26,32l6-7h7l6,7v-1l-5-6v-1l5-6h-1l-5,6h-7l-5-6h-1l5,6v1l-5,6V32z"/>
	</g>
</g>
</svg>
