<?xml version="1.0" encoding="utf-8"?>
<!-- Generator: Adobe Illustrator 18.1.1, SVG Export Plug-In . SVG Version: 6.00 Build 0)  -->
<!DOCTYPE svg PUBLIC "-//W3C//DTD SVG 1.1//EN" "http://www.w3.org/Graphics/SVG/1.1/DTD/svg11.dtd">
<svg version="1.1" id="Layer_1" xmlns="http://www.w3.org/2000/svg" xmlns:xlink="http://www.w3.org/1999/xlink" x="0px" y="0px"
	 viewBox="0 0 60 50" enable-background="new 0 0 60 50" xml:space="preserve">
<g>
	<path fill="#4DA3A0" d="M57.7,0h-56C0.6,0,0,0.6,0,1.7v46C0,48.8,0.6,50,1.7,50h56c1.1,0,2.3-1.2,2.3-2.3v-46C60,0.6,58.8,0,57.7,0
		z"/>
</g>
<rect x="21" y="18" fill="#FFFFFF" width="14" height="3"/>
<rect x="36" y="18" fill="#FFFFFF" width="4" height="3"/>
<rect x="37" y="19" fill="#4DA3A0" width="2" height="1"/>
<polygon fill="#FFFFFF" points="39,23 39,32 22,32 22,23 21,23 21,33 40,33 40,23 "/>
<rect x="24" y="23" fill="#FFFFFF" width="1" height="1"/>
<rect x="26" y="23" fill="#FFFFFF" width="11" height="1"/>
<rect x="24" y="25" fill="#FFFFFF" width="1" height="1"/>
<rect x="26" y="25" fill="#FFFFFF" width="11" height="1"/>
<rect x="24" y="27" fill="#FFFFFF" width="1" height="1"/>
<rect x="26" y="27" fill="#FFFFFF" width="11" height="1"/>
<rect x="24" y="29" fill="#FFFFFF" width="1" height="1"/>
<rect x="26" y="29" fill="#FFFFFF" width="11" height="1"/>
</svg>
