<?xml version="1.0" encoding="utf-8"?>
<!-- Generator: Adobe Illustrator 18.1.1, SVG Export Plug-In . SVG Version: 6.00 Build 0)  -->
<!DOCTYPE svg PUBLIC "-//W3C//DTD SVG 1.1//EN" "http://www.w3.org/Graphics/SVG/1.1/DTD/svg11.dtd">
<svg version="1.1" id="Layer_1" xmlns="http://www.w3.org/2000/svg" xmlns:xlink="http://www.w3.org/1999/xlink" x="0px" y="0px"
	 viewBox="0 0 60 50" enable-background="new 0 0 60 50" xml:space="preserve">
<path fill="#70C168" d="M58,0H2C0.9,0,0,0.9,0,2v46c0,1.1,0.9,2,2,2h56c1.1,0,2-0.9,2-2V2C60,0.9,59.1,0,58,0z M18,14h2v-1h2v1h3v-1
	h2v1h2v11H18V14z M42,25H31V14h11V25z"/>
<polygon fill="#70C168" points="40,19 36,19 36,16 35,16 35,20 40,20 "/>
<path fill="#70C168" d="M19,24h9v-7h-9V24z M26,18h1v1h-1V18z M26,20h1v1h-1V20z M26,22h1v1h-1V22z M24,18h1v1h-1V18z M24,20h1v1h-1
	V20z M24,22h1v1h-1V22z M22,18h1v1h-1V18z M22,20h1v1h-1V20z M22,22h1v1h-1V22z M20,18h1v1h-1V18z M20,20h1v1h-1V20z M20,22h1v1h-1
	V22z"/>
<polygon fill="#FFFFFF" points="31,31 31,27 30,27 30,31 22,31 22,32 22,35 23,35 23,32 30,32 30,35 31,35 31,32 38,32 38,35 39,35 
	39,32 39,31 "/>
</svg>
