<?xml version="1.0" encoding="utf-8"?>
<!-- Generator: Adobe Illustrator 15.1.0, SVG Export Plug-In . SVG Version: 6.00 Build 0)  -->
<!DOCTYPE svg PUBLIC "-//W3C//DTD SVG 1.1//EN" "http://www.w3.org/Graphics/SVG/1.1/DTD/svg11.dtd">
<svg version="1.1" id="Layer_1" xmlns="http://www.w3.org/2000/svg" xmlns:xlink="http://www.w3.org/1999/xlink" x="0px" y="0px"
	 width="30px" height="24px" viewBox="0 0 30 24" enable-background="new 0 0 30 24" xml:space="preserve">
<g>
	<path fill="#5EBB5E" d="M18.783,0h-7.566C5.022,0,0,5.373,0,12c0,6.628,5.022,12,11.217,12h7.566C24.978,24,30,18.629,30,12
		C30,5.373,24.978,0,18.783,0z"/>
	<path fill="#FFFFFF" d="M19.497,12.832l-6.733,4.16c-0.139,0.085-0.294,0.129-0.449,0.129c-0.155,0-0.31-0.044-0.449-0.129
		c-0.278-0.17-0.449-0.487-0.449-0.831V7.842c0-0.343,0.171-0.66,0.449-0.831c0.277-0.173,0.62-0.173,0.897,0l6.733,4.16
		c0.278,0.17,0.448,0.488,0.448,0.83C19.945,12.344,19.775,12.661,19.497,12.832z"/>
</g>
</svg>
