<?xml version="1.0" encoding="utf-8"?>
<!-- Generator: Adobe Illustrator 19.2.1, SVG Export Plug-In . SVG Version: 6.00 Build 0)  -->
<!DOCTYPE svg PUBLIC "-//W3C//DTD SVG 1.1//EN" "http://www.w3.org/Graphics/SVG/1.1/DTD/svg11.dtd">
<svg version="1.1" id="Layer_1" xmlns="http://www.w3.org/2000/svg" xmlns:xlink="http://www.w3.org/1999/xlink" x="0px" y="0px"
	 viewBox="0 0 60 50" style="enable-background:new 0 0 60 50;" xml:space="preserve">
<style type="text/css">
	.st0{fill:#0C734B;}
</style>
<g>
	<rect x="25" y="23" class="st0" width="1" height="1"/>
	<rect x="25" y="27" class="st0" width="1" height="1"/>
	<rect x="25" y="19" class="st0" width="1" height="1"/>
	<path class="st0" d="M58,0H2C0.9,0,0,0.9,0,2v46c0,1.1,0.9,2,2,2h56c1.1,0,2-0.9,2-2V2C60,0.9,59.1,0,58,0z M32,35H21V14h5v-1h6v1
		h5v14h-1V15h-4v1h-6v-1h-4v19h10V35z M28,24v-1h6v1H28z M34,27v1h-6v-1H34z M28,20v-1h6v1H28z M24,25v-3h3v3H24z M27,26v3h-3v-3H27
		z M24,21v-3h3v3H24z M37.5,37.5L31.7,30l0.3-0.3l5,2.5l9.7-8.5l0.7,0.7L37.5,37.5z"/>
</g>
</svg>
