<?xml version="1.0" encoding="utf-8"?>
<!-- Generator: Adobe Illustrator 15.1.0, SVG Export Plug-In . SVG Version: 6.00 Build 0)  -->
<!DOCTYPE svg PUBLIC "-//W3C//DTD SVG 1.1//EN" "http://www.w3.org/Graphics/SVG/1.1/DTD/svg11.dtd">
<svg version="1.1" id="Layer_1" xmlns="http://www.w3.org/2000/svg" xmlns:xlink="http://www.w3.org/1999/xlink" x="0px" y="0px"
	 width="30px" height="24px" viewBox="0 0 30 24" enable-background="new 0 0 30 24" xml:space="preserve">
<g>
	<path fill="#EF4B4C" d="M18.783,0h-7.566C5.022,0,0,5.373,0,12c0,6.628,5.022,12,11.217,12h7.566C24.978,24,30,18.629,30,12
		C30,5.373,24.978,0,18.783,0z"/>
	<path fill="#FFFFFF" d="M19.702,15.634c0,0.771-0.586,1.396-1.307,1.396h-6.791c-0.72,0-1.306-0.625-1.306-1.396V8.368
		c0-0.771,0.586-1.397,1.306-1.397h6.791c0.721,0,1.307,0.626,1.307,1.397V15.634z"/>
</g>
</svg>
