<?xml version="1.0" encoding="utf-8"?>
<!-- Generator: Adobe Illustrator 18.1.1, SVG Export Plug-In . SVG Version: 6.00 Build 0)  -->
<!DOCTYPE svg PUBLIC "-//W3C//DTD SVG 1.1//EN" "http://www.w3.org/Graphics/SVG/1.1/DTD/svg11.dtd">
<svg version="1.1" id="Layer_1" xmlns="http://www.w3.org/2000/svg" xmlns:xlink="http://www.w3.org/1999/xlink" x="0px" y="0px"
	 viewBox="0 0 60 50" enable-background="new 0 0 60 50" xml:space="preserve">
<path fill="#5BA8AE" d="M58,0H2C0.9,0,0,0.9,0,2v46c0,1.1,0.9,2,2,2h56c1.1,0,2-0.9,2-2V2C60,0.9,59.1,0,58,0z M22,31h-2v-2h2V31z
	 M22,27h-2v-2h2V27z M22,23h-2v-2h2V23z M22,19h-2v-2h2V19z M37,31H24v-2h13V31z M37,27H24v-2h13V27z M37,23H24v-2h13V23z M37,19H24
	v-2h13V19z"/>
<path fill="#F4F4F4" d="M44.1,29v-3l-4,3.5l4,3.5v-3c1.1,0,2,0.9,2,2v1c0,1.1-0.9,2-2,2h-1c-1.7,0-3-1.3-3-3v0h-1v0c0,2.2,1.8,4,4,4
	H44c1.7,0,3.1-1.4,3.1-3.1V32C47.1,30.3,45.7,29,44.1,29z"/>
</svg>
