<?xml version="1.0" encoding="utf-8"?>
<!-- Generator: Adobe Illustrator 19.2.1, SVG Export Plug-In . SVG Version: 6.00 Build 0)  -->
<!DOCTYPE svg PUBLIC "-//W3C//DTD SVG 1.1//EN" "http://www.w3.org/Graphics/SVG/1.1/DTD/svg11.dtd">
<svg version="1.1" id="Layer_1" xmlns="http://www.w3.org/2000/svg" xmlns:xlink="http://www.w3.org/1999/xlink" x="0px" y="0px"
	 viewBox="0 0 16 16" style="enable-background:new 0 0 16 16;" xml:space="preserve">
<style type="text/css">
	.st0{fill:#221F1F;}
</style>
<g>
	<path class="st0" d="M7.9,2.2C7.7,2,7.4,1.9,7.2,2.1L3.1,5.8L1.9,4.2C1.7,4,1.4,3.9,1.2,4.1C1,4.3,0.9,4.6,1.1,4.8l1.5,2
		C2.7,6.9,2.8,7,3,7c0,0,0,0,0,0c0.1,0,0.2,0,0.3-0.1l4.5-4C8,2.7,8.1,2.4,7.9,2.2z"/>
	<path class="st0" d="M14.5,9.5h-2c0-0.1,0-0.2,0-0.2l2.4-2.4c0.2-0.2,0.2-0.5,0-0.7s-0.5-0.2-0.7,0l-2.4,2.4c-0.1,0-0.2,0-0.2,0
		c0-0.6-0.4-1-1-1s-1,0.4-1,1c-0.1,0-0.2,0-0.2,0L6.9,6.1C6.7,6,6.3,6,6.1,6.1S6,6.7,6.1,6.9l2.4,2.4c0,0.1,0,0.2,0,0.2h-2
		C6.2,9.5,6,9.7,6,10s0.2,0.5,0.5,0.5h2c0,0.1,0,0.2,0,0.2l-1.4,1.4c-0.2,0.2-0.2,0.5,0,0.7C7.2,13,7.4,13,7.5,13s0.3,0,0.4-0.1
		l1.4-1.4c0.1,0,0.2,0,0.2,0h2c0.1,0,0.2,0,0.2,0l1.4,1.4c0.1,0.1,0.2,0.1,0.4,0.1s0.3,0,0.4-0.1c0.2-0.2,0.2-0.5,0-0.7l-1.4-1.4
		c0-0.1,0-0.2,0-0.2h2c0.3,0,0.5-0.2,0.5-0.5S14.8,9.5,14.5,9.5z"/>
</g>
</svg>
