<?xml version="1.0" encoding="utf-8"?>
<!-- Generator: Adobe Illustrator 19.2.1, SVG Export Plug-In . SVG Version: 6.00 Build 0)  -->
<!DOCTYPE svg PUBLIC "-//W3C//DTD SVG 1.1//EN" "http://www.w3.org/Graphics/SVG/1.1/DTD/svg11.dtd">
<svg version="1.1" id="Layer_1" xmlns="http://www.w3.org/2000/svg" xmlns:xlink="http://www.w3.org/1999/xlink" x="0px" y="0px"
	 viewBox="0 0 16 16" style="enable-background:new 0 0 16 16;" xml:space="preserve">
<style type="text/css">
	.st0{fill:#231F20;}
</style>
<path class="st0" d="M12.8,7h-2.4l1.7-1.7c0.1-0.1,0.1-0.2,0-0.2l-1.2-1.2c-0.1-0.1-0.2-0.1-0.2,0L9,5.6V3.2C9,3.1,8.9,3,8.8,3H7.2
	C7.1,3,7,3.1,7,3.2v2.4L5.3,3.9c-0.1-0.1-0.2-0.1-0.2,0L3.9,5.1c-0.1,0.1-0.1,0.2,0,0.2L5.6,7H3.2C3.1,7,3,7.1,3,7.2v1.7
	C3,8.9,3.1,9,3.2,9h2.4l-1.7,1.7c-0.1,0.1-0.1,0.2,0,0.2l1.2,1.2c0.1,0.1,0.2,0.1,0.2,0L7,10.4v2.4C7,12.9,7.1,13,7.2,13h1.7
	C8.9,13,9,12.9,9,12.8v-2.4l1.7,1.7c0.1,0.1,0.2,0.1,0.2,0l1.2-1.2c0.1-0.1,0.1-0.2,0-0.2L10.4,9h2.4C12.9,9,13,8.9,13,8.8V7.2
	C13,7.1,12.9,7,12.8,7z M8,9.5L8,9.5C7.2,9.5,6.5,8.8,6.5,8v0c0-0.8,0.7-1.5,1.5-1.5h0c0.8,0,1.5,0.7,1.5,1.5v0
	C9.5,8.8,8.8,9.5,8,9.5z"/>
</svg>
