<?xml version="1.0" encoding="utf-8"?>
<!-- Generator: Adobe Illustrator 19.2.1, SVG Export Plug-In . SVG Version: 6.00 Build 0)  -->
<!DOCTYPE svg PUBLIC "-//W3C//DTD SVG 1.1//EN" "http://www.w3.org/Graphics/SVG/1.1/DTD/svg11.dtd">
<svg version="1.1" id="Layer_1" xmlns="http://www.w3.org/2000/svg" xmlns:xlink="http://www.w3.org/1999/xlink" x="0px" y="0px"
	 viewBox="0 0 16 16" style="enable-background:new 0 0 16 16;" xml:space="preserve">
<style type="text/css">
	.st0{fill:#231F20;}
</style>
<rect x="10" y="11" class="st0" width="5" height="1"/>
<path class="st0" d="M9.4,6.9C9.3,6.6,9.1,6.4,8.8,6.4C8.5,6.4,8.2,6.5,8,6.8l-2.5,3.4c-0.2,0.3-0.5,0.4-0.8,0.5
	c-0.3,0.1-0.7,0-0.9-0.2C3.5,10.3,3.3,10,3.3,9.6C3.2,9.3,3.3,9,3.5,8.7l1.5-2c0,0,0.3-0.3,0.2-0.7c0-0.2-0.1-0.3-0.3-0.5
	c-0.5-0.4-1,0-1.2,0.3l-1.5,2c-0.9,1.2-0.6,3,0.6,3.9c0.5,0.3,1,0.5,1.6,0.5c0.1,0,0.3,0,0.4,0c0.7-0.1,1.4-0.5,1.8-1.1l2.5-3.4
	C9.4,7.4,9.5,7.2,9.4,6.9z"/>
<g>
	<path class="st0" d="M11,3.5c0.3,0,0.5,0.1,0.7,0.3c0.4,0.4,0.4,1,0,1.4l-3,3C8.5,8.4,8.3,8.5,8,8.5S7.5,8.4,7.3,8.2
		c-0.4-0.4-0.4-1,0-1.4l3-3C10.5,3.6,10.7,3.5,11,3.5 M11,2c-0.6,0-1.3,0.2-1.8,0.7l-3,3c-1,1-1,2.6,0,3.5l0,0C6.7,9.8,7.4,10,8,10
		s1.3-0.2,1.8-0.7l3-3c1-1,1-2.6,0-3.5l0,0C12.3,2.2,11.6,2,11,2L11,2z"/>
</g>
<rect x="5" y="1" class="st0" width="1" height="2"/>
<rect x="2" y="3" class="st0" width="2" height="1"/>
</svg>
