<?xml version="1.0" encoding="utf-8"?>
<!-- Generator: Adobe Illustrator 19.2.1, SVG Export Plug-In . SVG Version: 6.00 Build 0)  -->
<!DOCTYPE svg PUBLIC "-//W3C//DTD SVG 1.1//EN" "http://www.w3.org/Graphics/SVG/1.1/DTD/svg11.dtd">
<svg version="1.1" id="Layer_1" xmlns="http://www.w3.org/2000/svg" xmlns:xlink="http://www.w3.org/1999/xlink" x="0px" y="0px"
	 viewBox="0 0 16 16" style="enable-background:new 0 0 16 16;" xml:space="preserve">
<style type="text/css">
	.st0{fill:#231F20;}
</style>
<polygon class="st0" points="15,11 13,11 13,9 12,9 12,11 10,11 10,12 12,12 12,14 13,14 13,12 15,12 "/>
<g>
	<path class="st0" d="M7,5.5c0.3,0,0.5,0.1,0.7,0.3c0.4,0.4,0.4,1,0,1.4l-3,3c-0.2,0.2-0.4,0.3-0.7,0.3s-0.5-0.1-0.7-0.3
		c-0.4-0.4-0.4-1,0-1.4l3-3C6.5,5.6,6.7,5.5,7,5.5 M7,4C6.3,4,5.7,4.2,5.2,4.7l-3,3c-1,1-1,2.6,0,3.5l0,0C2.7,11.8,3.4,12,4,12
		s1.3-0.2,1.8-0.7l3-3c1-1,1-2.6,0-3.5l0,0C8.3,4.2,7.6,4,7,4L7,4z"/>
</g>
<g>
	<path class="st0" d="M11,3.5c0.3,0,0.5,0.1,0.7,0.3c0.4,0.4,0.4,1,0,1.4l-3,3C8.5,8.4,8.3,8.5,8,8.5S7.5,8.4,7.3,8.2
		c-0.4-0.4-0.4-1,0-1.4l3-3C10.5,3.6,10.7,3.5,11,3.5 M11,2c-0.6,0-1.3,0.2-1.8,0.7l-3,3c-1,1-1,2.6,0,3.5l0,0C6.7,9.8,7.4,10,8,10
		s1.3-0.2,1.8-0.7l3-3c1-1,1-2.6,0-3.5l0,0C12.3,2.2,11.6,2,11,2L11,2z"/>
</g>
</svg>
