<?xml version="1.0" encoding="utf-8"?>
<!-- Generator: Adobe Illustrator 19.2.1, SVG Export Plug-In . SVG Version: 6.00 Build 0)  -->
<svg version="1.1" id="Layer_1" xmlns="http://www.w3.org/2000/svg" xmlns:xlink="http://www.w3.org/1999/xlink" x="0px" y="0px"
	 viewBox="0 0 32 32" style="enable-background:new 0 0 32 32;" xml:space="preserve">
<style type="text/css">
	.st0{fill:#FFFFFF;}
</style>
<path class="st0" d="M18.7,16L31.4,3.3c0.8-0.8,0.8-2,0-2.7c-0.8-0.8-2-0.8-2.7,0L16,13.3L3.3,0.6c-0.8-0.8-2-0.8-2.7,0
	c-0.8,0.8-0.8,2,0,2.7L13.3,16L0.6,28.7c-0.8,0.8-0.8,2,0,2.7C0.9,31.8,1.4,32,1.9,32s1-0.2,1.4-0.6L16,18.7l12.7,12.7
	c0.4,0.4,0.9,0.6,1.4,0.6s1-0.2,1.4-0.6c0.8-0.8,0.8-2,0-2.7L18.7,16z"/>
</svg>
