<?xml version="1.0" encoding="utf-8"?>
<!-- Generator: Adobe Illustrator 19.2.1, SVG Export Plug-In . SVG Version: 6.00 Build 0)  -->
<svg version="1.1" id="Layer_1" xmlns="http://www.w3.org/2000/svg" xmlns:xlink="http://www.w3.org/1999/xlink" x="0px" y="0px"
	 viewBox="0 0 32 32" style="enable-background:new 0 0 32 32;" xml:space="preserve">
<style type="text/css">
	.st0{fill:#FFFFFF;}
</style>
<g>
	<path class="st0" d="M30.3,17.7H1.7C0.8,17.7,0,16.9,0,16c0-0.9,0.8-1.7,1.7-1.7h28.6c0.9,0,1.7,0.8,1.7,1.7
		C32,16.9,31.2,17.7,30.3,17.7z"/>
</g>
<path class="st0" d="M4.1,16L16.2,3.9c0.7-0.7,0.7-1.7,0-2.4c-0.7-0.7-1.7-0.7-2.4,0L0.5,14.8c-0.2,0.2-0.3,0.4-0.4,0.6
	c0,0.1-0.1,0.2-0.1,0.3c0,0.1,0,0.2,0,0.3c0,0.1,0,0.2,0,0.3c0.1,0.3,0.2,0.6,0.5,0.9c0,0,0,0,0,0l13.3,13.3
	c0.3,0.3,0.8,0.5,1.2,0.5c0.4,0,0.9-0.2,1.2-0.5c0.7-0.7,0.7-1.7,0-2.4L4.1,16z"/>
</svg>
