<?xml version="1.0" encoding="utf-8"?>
<!-- Generator: Adobe Illustrator 19.2.1, SVG Export Plug-In . SVG Version: 6.00 Build 0)  -->
<svg version="1.1" id="Layer_1" xmlns="http://www.w3.org/2000/svg" xmlns:xlink="http://www.w3.org/1999/xlink" x="0px" y="0px"
	 viewBox="0 0 32 32" style="enable-background:new 0 0 32 32;" xml:space="preserve">
<style type="text/css">
	.st0{fill:#FFFFFF;}
</style>
<g>
	<path class="st0" d="M31.1,7.5l-6.5-6.5C23.9,0.3,23.2,0,22.3,0h-8v8.4H4.5V0H3.1C1.4,0,0,1.4,0,3.1v25.8C0,30.6,1.4,32,3.1,32
		h25.8c1.7,0,3.1-1.4,3.1-3.1V9.7C32,8.8,31.7,8.1,31.1,7.5z M26.9,26.9H5.1v-1.7h21.7V26.9z M26.9,21.4H5.1v-1.7h21.7V21.4z
		 M26.9,15.9H5.1v-1.7h21.7V15.9z"/>
	<rect x="6.2" class="st0" width="6.5" height="6.7"/>
</g>
</svg>
