<?xml version="1.0" encoding="utf-8"?>
<!-- Generator: Adobe Illustrator 19.2.1, SVG Export Plug-In . SVG Version: 6.00 Build 0)  -->
<svg version="1.1" id="Layer_1" xmlns="http://www.w3.org/2000/svg" xmlns:xlink="http://www.w3.org/1999/xlink" x="0px" y="0px"
	 viewBox="0 0 32 32" style="enable-background:new 0 0 32 32;" xml:space="preserve">
<style type="text/css">
	.st0{fill:#FFFFFF;}
</style>
<g>
	<g>
		<path class="st0" d="M24.7,11.6H7.3C6.6,11.6,6,11,6,10.3c0-0.7,0.6-1.3,1.3-1.3h17.3c0.7,0,1.3,0.6,1.3,1.3
			C26,11,25.4,11.6,24.7,11.6z"/>
	</g>
	<g>
		<path class="st0" d="M24.7,17.3H7.3C6.6,17.3,6,16.7,6,16c0-0.7,0.6-1.3,1.3-1.3h17.3c0.7,0,1.3,0.6,1.3,1.3
			C26,16.7,25.4,17.3,24.7,17.3z"/>
	</g>
	<g>
		<path class="st0" d="M24.7,23.1H7.3c-0.7,0-1.3-0.6-1.3-1.3c0-0.7,0.6-1.3,1.3-1.3h17.3c0.7,0,1.3,0.6,1.3,1.3
			C26,22.4,25.4,23.1,24.7,23.1z"/>
	</g>
</g>
</svg>
