<?xml version="1.0" encoding="utf-8"?>
<!-- Generator: Adobe Illustrator 19.2.1, SVG Export Plug-In . SVG Version: 6.00 Build 0)  -->
<svg version="1.1" id="Layer_1" xmlns="http://www.w3.org/2000/svg" xmlns:xlink="http://www.w3.org/1999/xlink" x="0px" y="0px"
	 viewBox="0 0 16 16" style="enable-background:new 0 0 16 16;" xml:space="preserve">
<style type="text/css">
	.st0{fill:#FFFFFF;}
</style>
<path class="st0" d="M13.4,12.6l-4-4c0,0,0,0-0.1,0C9.7,8,10,7.3,10,6.5C10,4.6,8.4,3,6.5,3S3,4.6,3,6.5S4.6,10,6.5,10
	C7.3,10,8,9.7,8.6,9.3c0,0,0,0,0,0.1l4,4c0.1,0.1,0.2,0.1,0.4,0.1s0.3,0,0.4-0.1C13.5,13.2,13.5,12.8,13.4,12.6z M6.5,9
	C5.1,9,4,7.9,4,6.5S5.1,4,6.5,4S9,5.1,9,6.5S7.9,9,6.5,9z"/>
</svg>
