<?xml version="1.0" encoding="utf-8"?>
<!-- Generator: Adobe Illustrator 19.2.1, SVG Export Plug-In . SVG Version: 6.00 Build 0)  -->
<svg version="1.1" id="Layer_1" xmlns="http://www.w3.org/2000/svg" xmlns:xlink="http://www.w3.org/1999/xlink" x="0px" y="0px"
	 viewBox="0 0 16 16" style="enable-background:new 0 0 16 16;" xml:space="preserve">
<style type="text/css">
	.st0{fill:#231F20;}
</style>
<g>
	<path class="st0" d="M8,11c-2.5,0-4.6-1.4-5.6-2.2C2.1,8.6,2,8.3,2,8c0-0.3,0.1-0.6,0.4-0.8C3.4,6.3,5.5,5,8,5
		c2.5,0,4.6,1.4,5.6,2.2C13.9,7.3,14,7.7,14,8c0,0.3-0.1,0.7-0.4,0.9C12.6,9.7,10.5,11,8,11z M3.1,7.7c-0.2,0.1-0.2,0.4,0,0.5
		C4.1,9,5.9,10,8,10c2.1,0,3.9-1.1,4.9-1.8c0.2-0.1,0.2-0.4,0-0.5C11.9,7,10.1,6,8,6C5.9,6,4.1,7,3.1,7.7z M12.9,8.1L12.9,8.1
		L12.9,8.1z"/>
</g>
<g>
	<path class="st0" d="M7.8,5.7c-1.4,0-2.5,1.1-2.5,2.5s1.1,2.5,2.5,2.5s2.5-1.1,2.5-2.5S9.2,5.7,7.8,5.7z M6.9,7.7
		c-0.2,0-0.5-0.2-0.5-0.5s0.2-0.5,0.5-0.5c0.2,0,0.5,0.2,0.5,0.5S7.2,7.7,6.9,7.7z"/>
</g>
</svg>
