<?xml version="1.0" encoding="utf-8"?>
<!-- Generator: Adobe Illustrator 20.0.0, SVG Export Plug-In . SVG Version: 6.00 Build 0)  -->
<svg version="1.1" id="Layer_1" xmlns="http://www.w3.org/2000/svg" xmlns:xlink="http://www.w3.org/1999/xlink" x="0px" y="0px"
	 viewBox="0 0 32 32" style="enable-background:new 0 0 32 32;" xml:space="preserve">
<style type="text/css">
	.st0{fill:#FFFFFF;}
</style>
<path class="st0" d="M17,22h-2l-0.8-9c-0.1-1.1,0.8-2,1.8-2h0c1.1,0,1.9,0.9,1.8,2L17,22z"/>
<g>
	<path class="st0" d="M16,4c0.8,0,1.6,0.4,2,1.1L29.7,25c0.8,1.3-0.1,3-1.7,3H4c-1.5,0-2.5-1.6-1.8-3L14,5.2C14.4,4.5,15.1,4,16,4
		 M16,2c-1.6,0-3,0.8-3.8,2.2L0.5,24c-0.7,1.3-0.7,2.8,0,4c0.7,1.2,2,2,3.5,2h24c1.5,0,2.8-0.8,3.5-2.1c0.7-1.3,0.7-2.8-0.1-4
		L19.7,4.1C18.9,2.8,17.5,2,16,2L16,2z"/>
</g>
<rect x="15" y="24" class="st0" width="2" height="2"/>
</svg>
