<?xml version="1.0" encoding="utf-8"?>
<!-- Generator: Adobe Illustrator 20.0.0, SVG Export Plug-In . SVG Version: 6.00 Build 0)  -->
<svg version="1.1" id="Layer_1" xmlns="http://www.w3.org/2000/svg" xmlns:xlink="http://www.w3.org/1999/xlink" x="0px" y="0px"
	 viewBox="0 0 32 32" style="enable-background:new 0 0 32 32;" xml:space="preserve">
<style type="text/css">
	.st0{fill:#FFFFFF;}
</style>
<circle class="st0" cx="17" cy="11" r="2"/>
<path class="st0" d="M16.4,21.3l1.5-6.5C18,14.4,17.6,14,17,14h-1.9h-1.7c1.7,0,1.4,1.4,1.4,1.4l-1.7,7c-0.2,0.9,0.3,1.4,1.6,1.6
	s4.4-1,4.4-1s-1,0-2,0C16.3,23,16.2,22.1,16.4,21.3z"/>
<g>
	<path class="st0" d="M16,2c7.7,0,14,6.3,14,14c0,7.7-6.3,14-14,14S2,23.7,2,16C2,8.3,8.3,2,16,2 M16,0C7.2,0,0,7.2,0,16
		s7.2,16,16,16s16-7.2,16-16S24.8,0,16,0L16,0z"/>
</g>
</svg>
