<?xml version="1.0" encoding="utf-8"?>
<!-- Generator: Adobe Illustrator 20.0.0, SVG Export Plug-In . SVG Version: 6.00 Build 0)  -->
<svg version="1.1" id="Layer_1" xmlns="http://www.w3.org/2000/svg" xmlns:xlink="http://www.w3.org/1999/xlink" x="0px" y="0px"
	 viewBox="0 0 32 32" style="enable-background:new 0 0 32 32;" xml:space="preserve">
<style type="text/css">
	.st0{fill:#FFFFFF;}
</style>
<path class="st0" d="M26.3,8.4c-0.5-0.5-1.5-0.5-2,0L11.1,21.6l-3.7-3.7c-0.5-0.5-1.5-0.5-2,0c-0.3,0.3-0.4,0.6-0.4,1
	c0,0.4,0.2,0.8,0.4,1l5.4,5.4c0.1,0.1,0.2,0.1,0.4,0.1c0.1,0,0.3-0.1,0.4-0.1l14.9-14.9c0.3-0.3,0.4-0.6,0.4-1
	C26.8,9,26.6,8.7,26.3,8.4z"/>
</svg>
