<?xml version="1.0" encoding="utf-8"?>
<!-- Generator: Adobe Illustrator 20.0.0, SVG Export Plug-In . SVG Version: 6.00 Build 0)  -->
<svg version="1.1" id="Layer_1" xmlns="http://www.w3.org/2000/svg" xmlns:xlink="http://www.w3.org/1999/xlink" x="0px" y="0px"
	 viewBox="0 0 16 16" style="enable-background:new 0 0 16 16;" xml:space="preserve">
<style type="text/css">
	.st0{fill:#B85F53;}
</style>
<path class="st0" d="M9.5,8l4.2-4.2c0.4-0.4,0.4-1.1,0-1.5c-0.4-0.4-1.1-0.4-1.5,0L8,6.5L3.8,2.3c-0.4-0.4-1.1-0.4-1.5,0
	c-0.4,0.4-0.4,1.1,0,1.5L6.5,8l-4.2,4.2c-0.4,0.4-0.4,1.1,0,1.5c0.4,0.4,1.1,0.4,1.5,0L8,9.5l4.2,4.2c0.4,0.4,1.1,0.4,1.5,0
	c0.4-0.4,0.4-1.1,0-1.5L9.5,8z"/>
</svg>
