<?xml version="1.0" encoding="utf-8"?>
<!-- Generator: Adobe Illustrator 20.1.0, SVG Export Plug-In . SVG Version: 6.00 Build 0)  -->
<svg version="1.1" id="Layer_1" xmlns="http://www.w3.org/2000/svg" xmlns:xlink="http://www.w3.org/1999/xlink" x="0px" y="0px"
	 viewBox="0 0 16 16" style="enable-background:new 0 0 16 16;" xml:space="preserve">
<style type="text/css">
	.st0{fill:#E5F3FF;}
	.st1{fill:#0080FF;}
</style>
<g>
	<circle class="st0" cx="8" cy="8" r="7.5"/>
	<path class="st1" d="M8,1c3.9,0,7,3.1,7,7s-3.1,7-7,7s-7-3.1-7-7S4.1,1,8,1 M8,0C3.6,0,0,3.6,0,8s3.6,8,8,8s8-3.6,8-8S12.4,0,8,0
		L8,0z"/>
</g>
<g>
	<g>
		<circle class="st1" cx="8.7" cy="4.1" r="1.1"/>
		<path class="st1" d="M7.8,11c0,0,0.1-0.1,0.1-0.2c0.4-1.2,1.4-4.6,1.4-4.6L6.4,6.6L6.3,7c0,0,0.3,0,0.5,0.1C6.9,7.1,7,7.2,7,7.4
			c0,0.3-1.3,4.3-1.3,4.3s-0.2,1,0.4,1.2s1.3,0.1,1.8-0.4C8.4,12,8.6,11.8,9,11.1l-0.3-0.2c0,0-0.1,0.1-0.1,0.2c0,0,0,0,0,0
			C8.4,11.5,8,12,7.8,12c0,0,0,0-0.1,0c0,0,0,0,0,0c-0.2-0.1-0.1-0.5,0-0.8C7.8,11.1,7.8,11,7.8,11z"/>
	</g>
</g>
</svg>
