<?xml version="1.0" encoding="utf-8"?>
<!-- Generator: Adobe Illustrator 20.1.0, SVG Export Plug-In . SVG Version: 6.00 Build 0)  -->
<svg version="1.1" id="Layer_1" xmlns="http://www.w3.org/2000/svg" xmlns:xlink="http://www.w3.org/1999/xlink" x="0px" y="0px"
	 viewBox="0 0 16 16" style="enable-background:new 0 0 16 16;" xml:space="preserve">
<style type="text/css">
	.st0{fill:#424242;}
</style>
<path class="st0" d="M11,5v6c-0.2,1.2-1.2,2-2.5,2S6.2,12.2,6,11V3c0-0.7,0.8-1,1.5-1S9,2.3,9,3v7c0,0,0,0.4-0.5,0.4S8,10,8,10V5H7
	v5c0,0,0,1,1.5,1s1.5-1,1.5-1V3c0-1.1-1-2-2.5-2S5,1.9,5,3v8c0.2,1.7,1.7,3,3.5,3s3.3-1.3,3.5-3V5H11z"/>
</svg>
