<?xml version="1.0" encoding="utf-8"?>
<!-- Generator: Adobe Illustrator 21.0.0, SVG Export Plug-In . SVG Version: 6.00 Build 0)  -->
<svg version="1.1" id="Layer_1" xmlns="http://www.w3.org/2000/svg" xmlns:xlink="http://www.w3.org/1999/xlink" x="0px" y="0px"
	 viewBox="0 0 18 18" style="enable-background:new 0 0 18 18;" xml:space="preserve">
<style type="text/css">
	.st0{fill:#FFFFFF;}
</style>
<path class="st0" d="M10.4,8.7l5.5-6.5L9.7,7.9l-5-5.4C4.7,2.4,4.6,2.4,4.5,2.3C3.9,1.8,2.9,1.9,2.4,2.5C1.8,3.1,1.9,4,2.5,4.5
	l5.9,4.6l-5.6,5.1c0,0-0.1,0.1-0.1,0.1c-0.4,0.5-0.3,1.1,0.2,1.5c0.5,0.4,1.2,0.3,1.6-0.2l4.9-5.7l6.5,5.1c0,0,0.1,0,0.1,0
	c0,0,0-0.1,0-0.1L10.4,8.7z"/>
</svg>
