<?xml version="1.0" encoding="utf-8"?>
<!-- Generator: Adobe Illustrator 21.0.0, SVG Export Plug-In . SVG Version: 6.00 Build 0)  -->
<svg version="1.1" id="Layer_1" xmlns="http://www.w3.org/2000/svg" xmlns:xlink="http://www.w3.org/1999/xlink" x="0px" y="0px"
	 viewBox="0 0 18 18" style="enable-background:new 0 0 18 18;" xml:space="preserve">
<style type="text/css">
	.st0{fill:#FFFFFF;}
</style>
<path class="st0" d="M15.8,5l-2.6,2.6h-0.6c-1.2,0-2.2-1-2.2-2.2V4.8L13,2.2c-1.1-0.3-2.3-0.4-3.8,0.9C8.3,3.9,7.6,5,7.6,6.2
	c0,0.4,0.1,0.9,0.2,1.3L2,13.3C2,14.9,3.3,16,4.8,16l5.8-5.8c0.4,0.1,0.8,0.2,1.2,0.2c1.2,0,2.3-0.7,3-1.6C16.2,7.3,16.1,6.1,15.8,5
	z"/>
</svg>
