<?xml version="1.0" encoding="utf-8"?>
<!-- Generator: Adobe Illustrator 19.2.1, SVG Export Plug-In . SVG Version: 6.00 Build 0)  -->
<!DOCTYPE svg PUBLIC "-//W3C//DTD SVG 1.1//EN" "http://www.w3.org/Graphics/SVG/1.1/DTD/svg11.dtd">
<svg version="1.1" id="Layer_1" xmlns="http://www.w3.org/2000/svg" xmlns:xlink="http://www.w3.org/1999/xlink" x="0px" y="0px"
	 viewBox="0 0 26 26" style="enable-background:new 0 0 26 26;" xml:space="preserve">
<style type="text/css">
	.st0{fill:#231F20;}
</style>
<g>
	<path class="st0" d="M20.8,9.8H20V6.9c0-3.3-2.7-5.9-6-5.9h-2.2C8.6,1,6,3.6,6,6.9v2.9H5.2C4,9.8,3,10.8,3,12v10.8
		C3,24,4,25,5.2,25h15.6c1.2,0,2.2-1,2.2-2.2V12C23,10.8,22,9.8,20.8,9.8z M8,7c0-2.4,1.6-4,4-4h2c2.4,0,4,1.6,4,4v3H8V7z M21,22.5
		c0,0.3-0.2,0.5-0.6,0.5H5.6C5.2,23,5,22.8,5,22.5v-9.9C5,12.2,5.2,12,5.6,12h14.9c0.3,0,0.6,0.2,0.6,0.5V22.5z"/>
	<path class="st0" d="M13,14.3c-0.5,0-0.8,0.4-0.8,0.8V19c0,0.5,0.4,0.8,0.8,0.8s0.8-0.4,0.8-0.8v-3.8C13.8,14.7,13.5,14.3,13,14.3z
		"/>
</g>
</svg>
