<?xml version="1.0" encoding="utf-8"?>
<!-- Generator: Adobe Illustrator 19.2.1, SVG Export Plug-In . SVG Version: 6.00 Build 0)  -->
<!DOCTYPE svg PUBLIC "-//W3C//DTD SVG 1.1//EN" "http://www.w3.org/Graphics/SVG/1.1/DTD/svg11.dtd">
<svg version="1.1" id="Layer_1" xmlns="http://www.w3.org/2000/svg" xmlns:xlink="http://www.w3.org/1999/xlink" x="0px" y="0px"
	 viewBox="0 0 26 26" style="enable-background:new 0 0 26 26;" xml:space="preserve">
<style type="text/css">
	.st0{fill:#231F20;}
</style>
<path class="st0" d="M17,13.9c2.1-1.3,3-3.7,3-6.4C20,3.4,17.2,0,13,0S6,3.4,6,7.5c0,2.7,0.9,5,3,6.4c-4.6,1.6-8,6.1-8,11.2
	C1,25.6,1.4,26,1.9,26h22.1c0.5,0,0.9-0.4,0.9-0.9C25,19.9,21.7,15.5,17,13.9z M8,7.5c0-3,2-5.5,5-5.5s5,2.5,5,5.5c0,3-2,5.5-5,5.5
	S8,10.5,8,7.5z M3,24c0.5-5.1,4.7-9,10-9s9.5,3.9,10,9H3z"/>
</svg>
