<?xml version="1.0" encoding="utf-8"?>
<!-- Generator: Adobe Illustrator 19.2.1, SVG Export Plug-In . SVG Version: 6.00 Build 0)  -->
<!DOCTYPE svg PUBLIC "-//W3C//DTD SVG 1.1//EN" "http://www.w3.org/Graphics/SVG/1.1/DTD/svg11.dtd">
<svg version="1.1" id="Layer_1" xmlns="http://www.w3.org/2000/svg" xmlns:xlink="http://www.w3.org/1999/xlink" x="0px" y="0px"
	 viewBox="0 0 26 26" style="enable-background:new 0 0 26 26;" xml:space="preserve">
<style type="text/css">
	.st0{fill:#231F20;}
</style>
<g>
	<g>
		<path class="st0" d="M16,7.6L16,7.6c-0.6,0-1-0.4-1-0.9V5.5c0-0.5,0.4-0.9,1-0.9h0c0.6,0,1,0.4,1,0.9v1.2C17,7.2,16.6,7.6,16,7.6z
			"/>
	</g>
</g>
<g>
	<g>
		<path class="st0" d="M20,7.6L20,7.6c-0.6,0-1-0.4-1-0.9V5.5c0-0.5,0.4-0.9,1-0.9h0c0.6,0,1,0.4,1,0.9v1.2C21,7.2,20.6,7.6,20,7.6z
			"/>
	</g>
</g>
<g>
	<g>
		<path class="st0" d="M16,12.7L16,12.7c-0.6,0-1-0.4-1-0.9v-1.2c0-0.5,0.4-0.9,1-0.9h0c0.6,0,1,0.4,1,0.9v1.2
			C17,12.2,16.6,12.7,16,12.7z"/>
	</g>
</g>
<g>
	<g>
		<path class="st0" d="M20,12.7L20,12.7c-0.6,0-1-0.4-1-0.9v-1.2c0-0.5,0.4-0.9,1-0.9h0c0.6,0,1,0.4,1,0.9v1.2
			C21,12.2,20.6,12.7,20,12.7z"/>
	</g>
</g>
<g>
	<g>
		<path class="st0" d="M16,17.7L16,17.7c-0.6,0-1-0.4-1-0.9v-1.2c0-0.5,0.4-0.9,1-0.9h0c0.6,0,1,0.4,1,0.9v1.2
			C17,17.3,16.6,17.7,16,17.7z"/>
	</g>
</g>
<g>
	<g>
		<path class="st0" d="M20,17.7L20,17.7c-0.6,0-1-0.4-1-0.9v-1.2c0-0.5,0.4-0.9,1-0.9h0c0.6,0,1,0.4,1,0.9v1.2
			C21,17.3,20.6,17.7,20,17.7z"/>
	</g>
</g>
<g>
	<g>
		<path class="st0" d="M6,14.5L6,14.5c-0.6,0-1-0.4-1-0.9v-1.2c0-0.5,0.4-0.9,1-0.9h0c0.6,0,1,0.4,1,0.9v1.2C7,14.1,6.6,14.5,6,14.5
			z"/>
	</g>
</g>
<g>
	<g>
		<path class="st0" d="M6,19.6L6,19.6c-0.6,0-1-0.4-1-0.9v-1.2c0-0.5,0.4-0.9,1-0.9h0c0.6,0,1,0.4,1,0.9v1.2C7,19.2,6.6,19.6,6,19.6
			z"/>
	</g>
</g>
<path class="st0" d="M23.5,0h-11C11.1,0,10,1.1,10,2.5V6H2.5C1.2,6,0,7.1,0,8.5L0,26h26V2.5C26,1.1,24.9,0,23.5,0z M10,24H2V8.7
	C2,8.3,2.3,8,2.6,8H10V24z M24,24H12V2.6C12,2.3,12.3,2,12.6,2h10.7C23.7,2,24,2.3,24,2.6V24z"/>
</svg>
