<?xml version="1.0" encoding="utf-8"?>
<!-- Generator: Adobe Illustrator 19.2.1, SVG Export Plug-In . SVG Version: 6.00 Build 0)  -->
<!DOCTYPE svg PUBLIC "-//W3C//DTD SVG 1.1//EN" "http://www.w3.org/Graphics/SVG/1.1/DTD/svg11.dtd">
<svg version="1.1" id="Layer_1" xmlns="http://www.w3.org/2000/svg" xmlns:xlink="http://www.w3.org/1999/xlink" x="0px" y="0px"
	 viewBox="0 0 26 26" style="enable-background:new 0 0 26 26;" xml:space="preserve">
<style type="text/css">
	.st0{fill:#231F20;}
</style>
<path class="st0" d="M23.7,4H2.3C1,4,0,5,0,6.3v14.3C0,22,1,23,2.3,23h21.4c1.3,0,2.3-1,2.3-2.3V6.3C26,5,25,4,23.7,4z M2.6,6h20.8
	C23.7,6,24,6.3,24,6.6v0.5c0,0-0.1,0-0.1,0.1l-10.9,8L2,7.5v-1C2,6.3,2.3,6,2.6,6z M23.4,21H2.6C2.3,21,2,20.7,2,20.4V9.6l10.5,7.3
	c0.2,0.1,0.3,0.2,0.5,0.2c0.2,0,0.4-0.1,0.5-0.2L24,9.2v11.3C24,20.7,23.7,21,23.4,21z"/>
</svg>
