<?xml version="1.0" encoding="utf-8"?>
<!-- Generator: Adobe Illustrator 20.1.0, SVG Export Plug-In . SVG Version: 6.00 Build 0)  -->
<svg version="1.1" id="Layer_1" xmlns="http://www.w3.org/2000/svg" xmlns:xlink="http://www.w3.org/1999/xlink" x="0px" y="0px"
	 viewBox="0 0 140 40" style="enable-background:new 0 0 140 40;" xml:space="preserve">
<style type="text/css">
	.st0{fill:#36A28E;}
	.st1{fill:#404041;}
</style>
<g>
	<polygon class="st0" points="0,21.2 27.3,27.9 122.6,21.2 27.3,33.3 	"/>
	<path class="st0" d="M51.4,33.3h1.5L51.3,40h-1.5L51.4,33.3z"/>
	<path class="st0" d="M60.2,40c-0.3-0.8-0.6-1.5-0.9-2.3c-0.3-0.8-0.7-1.5-1.1-2.2L57.2,40h-1.5l1.6-6.7h1.2
		c0.1,0.2,0.3,0.5,0.5,0.8c0.2,0.3,0.3,0.6,0.5,1c0.2,0.4,0.4,0.7,0.5,1.1c0.2,0.4,0.4,0.8,0.5,1.1l1-4H63L61.4,40H60.2z"/>
	<path class="st0" d="M70.3,40c-0.3-0.8-0.6-1.5-0.9-2.3c-0.3-0.8-0.7-1.5-1.1-2.2L67.3,40h-1.5l1.6-6.7h1.2
		c0.1,0.2,0.3,0.5,0.5,0.8c0.2,0.3,0.3,0.6,0.5,1c0.2,0.4,0.4,0.7,0.5,1.1c0.2,0.4,0.4,0.8,0.5,1.1l1-4h1.5L71.4,40H70.3z"/>
	<path class="st0" d="M78.6,40c-0.4,0-0.7-0.1-1-0.2c-0.3-0.1-0.6-0.3-0.8-0.5c-0.2-0.2-0.4-0.5-0.5-0.8c-0.1-0.3-0.2-0.7-0.2-1.1
		c0-0.5,0.1-1,0.3-1.4c0.2-0.5,0.4-0.9,0.7-1.3c0.3-0.4,0.7-0.7,1.1-0.9c0.5-0.2,1-0.4,1.5-0.4c0.4,0,0.7,0.1,1,0.2
		c0.3,0.1,0.6,0.3,0.8,0.5c0.2,0.2,0.4,0.5,0.5,0.8c0.1,0.3,0.2,0.7,0.2,1.1c0,0.5-0.1,1-0.2,1.4c-0.2,0.5-0.4,0.9-0.7,1.3
		c-0.3,0.4-0.7,0.7-1.1,0.9C79.7,39.9,79.2,40,78.6,40z M79.5,34.5c-0.3,0-0.5,0.1-0.8,0.2c-0.2,0.1-0.5,0.3-0.6,0.6
		c-0.2,0.2-0.3,0.5-0.4,0.9c-0.1,0.3-0.2,0.7-0.2,1c0,0.5,0.1,0.8,0.3,1.1c0.2,0.3,0.5,0.4,0.9,0.4c0.3,0,0.5-0.1,0.8-0.2
		c0.2-0.1,0.5-0.3,0.6-0.6c0.2-0.2,0.3-0.5,0.4-0.8c0.1-0.3,0.2-0.6,0.2-1c0-0.5-0.1-0.8-0.3-1.1C80.3,34.7,80,34.5,79.5,34.5z"/>
	<path class="st0" d="M87.3,40c-0.1-0.5-0.2-1.1-0.3-1.7c-0.1-0.6-0.2-1.2-0.3-1.7c-0.1-0.6-0.2-1.1-0.2-1.7
		c-0.1-0.6-0.1-1.1-0.2-1.6h1.6c0,0.4,0,0.8,0.1,1.2c0,0.4,0.1,0.8,0.1,1.3c0,0.4,0.1,0.9,0.1,1.3c0,0.4,0.1,0.8,0.1,1.2
		c0.2-0.3,0.4-0.7,0.6-1.1c0.2-0.4,0.5-0.8,0.7-1.2c0.2-0.4,0.5-0.9,0.7-1.3c0.2-0.4,0.4-0.9,0.6-1.3h1.6c-0.2,0.5-0.5,1-0.8,1.5
		c-0.3,0.5-0.6,1.1-0.9,1.7c-0.3,0.6-0.7,1.2-1.1,1.8c-0.4,0.6-0.8,1.2-1.2,1.8H87.3z"/>
	<path class="st0" d="M110.8,33.3l-0.3,1.3h-2l-1.3,5.4h-1.5l1.3-5.4h-2l0.3-1.3H110.8z"/>
	<path class="st0" d="M113.7,40l1.6-6.7h4.6l-0.3,1.2h-3.1l-0.3,1.4h2.5l-0.3,1.2h-2.5l-0.4,1.6h3.1l-0.3,1.2H113.7z"/>
	<path class="st0" d="M100.7,38.3c-0.1-0.6-0.1-1.2-0.2-1.8c-0.1-0.6-0.2-1.2-0.3-1.7c-0.1-0.6-0.2-1.1-0.3-1.5h-1.3
		c-0.3,0.5-0.7,0.9-1,1.4c-0.3,0.5-0.7,1-1,1.5c-0.3,0.5-0.7,1.1-1.1,1.7c-0.4,0.6-0.8,1.3-1.2,2H96c0.1-0.3,0.3-0.5,0.4-0.7
		c0.1-0.2,0.3-0.5,0.4-0.7l0.5-0.9h2l0.1,0.9c0,0.2,0,0.5,0.1,0.7c0,0.2,0,0.5,0,0.7h1.5C100.9,39.5,100.8,38.9,100.7,38.3z
		 M99,34.8c0.1,0.4,0.1,0.9,0.2,1.3c0,0.1,0,0.3,0,0.4h-1.2c0.1-0.1,0.2-0.3,0.3-0.4C98.4,35.6,98.7,35.2,99,34.8z"/>
</g>
<g>
	<path class="st1" d="M10.5,1.6H3.7L0.1,18.2l0,0.1h2.8l1.4-6.6h3.4l2.8,6.6h3.2l-3-6.9c1.2-0.3,2.1-0.9,2.9-1.7
		c0.8-0.8,1.3-1.8,1.6-3c0.3-1.6,0.1-2.8-0.8-3.7C13.6,2.1,12.3,1.6,10.5,1.6z M12.3,6.7c-0.2,0.9-0.6,1.6-1.2,2
		c-0.6,0.4-1.5,0.7-2.5,0.7H4.8L6,4.1h3.8c1.1,0,1.8,0.2,2.2,0.6C12.4,5.1,12.5,5.8,12.3,6.7z"/>
	<path class="st1" d="M24.4,5.4c-1.9,0-3.6,0.6-4.9,1.7c-1.3,1.2-2.2,2.8-2.6,4.8c-0.4,2.1-0.2,3.7,0.7,4.8c0.9,1.2,2.3,1.8,4.3,1.8
		c2.7,0,4.7-1,6.1-2.9l0.1-0.1l-2.2-1l0,0.1c-0.3,0.5-0.8,1-1.4,1.2c-0.6,0.3-1.3,0.4-2.1,0.4c-1,0-1.7-0.3-2.2-0.8
		c-0.5-0.5-0.7-1.4-0.6-2.4h9.2l0,0c0.2-0.4,0.3-0.9,0.4-1.4c0.4-1.9,0.2-3.4-0.6-4.5C27.6,6,26.3,5.4,24.4,5.4z M19.9,10.9
		c0.4-1,0.9-1.8,1.6-2.3C22.2,8,23,7.7,24,7.7c0.9,0,1.6,0.3,2,0.8c0.4,0.6,0.6,1.3,0.5,2.3H19.9z"/>
	<path class="st1" d="M42.1,16.4c-0.3,0-0.5-0.1-0.6-0.2c-0.1-0.1-0.1-0.3-0.1-0.6l1.2-5.7c0.3-1.5,0.1-2.6-0.7-3.4
		c-0.8-0.8-2-1.1-3.7-1.1c-1.4,0-2.6,0.3-3.6,0.9c-1.1,0.6-1.9,1.4-2.4,2.4l0,0.1l2,1.2l0-0.1c0.8-1.5,2-2.2,3.6-2.2
		c0.8,0,1.3,0.2,1.7,0.6c0.3,0.4,0.4,1,0.3,1.8l-0.1,0.6l-3.2,0.5c-1.7,0.3-3,0.8-4,1.5c-1,0.7-1.6,1.5-1.8,2.5
		c-0.2,1.1,0,1.9,0.6,2.5c0.6,0.6,1.6,0.9,2.8,0.9c0.9,0,1.8-0.2,2.7-0.5c0.8-0.3,1.4-0.7,1.9-1.2c0,0.6,0.2,1,0.6,1.3
		c0.4,0.3,0.9,0.4,1.7,0.4c0.6,0,1.1-0.1,1.6-0.3l0,0l0.6-2l-0.1,0C42.8,16.4,42.5,16.4,42.1,16.4z M39.2,12.7l-0.3,1.4
		c-0.1,0.7-0.6,1.3-1.4,1.7c-0.8,0.4-1.6,0.6-2.5,0.6c-0.6,0-1-0.1-1.3-0.3c-0.3-0.2-0.3-0.5-0.2-1c0.1-0.5,0.4-0.9,0.8-1.2
		c0.5-0.3,1.2-0.5,2.1-0.7L39.2,12.7z"/>
	<path class="st1" d="M56.3,7.5c-0.2-0.6-0.6-1.1-1.2-1.5c-0.6-0.4-1.4-0.6-2.3-0.6c-1.7,0-3.2,0.6-4.5,1.8C47,8.3,46.2,9.9,45.7,12
		c-0.4,2-0.3,3.7,0.5,4.8c0.8,1.2,2,1.8,3.8,1.8c1,0,1.9-0.2,2.7-0.7c0.8-0.4,1.4-0.9,1.9-1.6l-0.3,2h2.5l3.9-18.2l0-0.1h-2.8
		L56.3,7.5z M55.4,11.8l-0.1,0.3c-0.3,1.3-0.8,2.3-1.6,3c-0.8,0.7-1.7,1.1-2.7,1.1c-1.1,0-1.8-0.4-2.2-1.1c-0.4-0.7-0.5-1.8-0.2-3.2
		c0.3-1.3,0.8-2.4,1.6-3.2c0.8-0.7,1.7-1.1,2.7-1.1c1,0,1.8,0.4,2.2,1.1C55.5,9.5,55.6,10.5,55.4,11.8z"/>
	<path class="st1" d="M66.1,0.2c-0.6,0-1.1,0.1-1.5,0.4c-0.4,0.3-0.6,0.7-0.8,1.3c-0.1,0.6,0,1,0.2,1.3c0.3,0.3,0.7,0.5,1.3,0.5
		c0.6,0,1.1-0.2,1.5-0.5c0.4-0.3,0.6-0.7,0.8-1.3c0.1-0.6,0-1-0.2-1.3C67.1,0.4,66.7,0.2,66.1,0.2z"/>
	<polygon class="st1" points="60.8,18.2 60.8,18.3 63.7,18.3 66.3,5.7 66.4,5.6 63.5,5.6 	"/>
	<polygon class="st1" points="80.4,12.4 80,14.9 79.1,12.1 74.9,1.7 74.9,1.6 71.6,1.6 68.1,18.2 68.1,18.3 70.7,18.3 73,7.6 
		73.4,5 74.3,7.8 78.5,18.3 78.5,18.3 81.8,18.3 85.3,1.7 85.3,1.6 82.7,1.6 	"/>
	<path class="st1" d="M94.3,5.4c-2,0-3.6,0.6-5,1.7C87.9,8.3,87,9.9,86.6,12c-0.4,2.1-0.2,3.7,0.6,4.8c0.9,1.2,2.3,1.8,4.3,1.8
		c2,0,3.6-0.6,5-1.7c1.4-1.2,2.3-2.8,2.7-4.8c0.4-2.1,0.2-3.7-0.6-4.8C97.7,6,96.3,5.4,94.3,5.4z M96.4,12c-0.3,1.4-0.8,2.5-1.6,3.2
		c-0.8,0.8-1.7,1.1-2.8,1.1c-1.1,0-1.9-0.4-2.3-1.1c-0.4-0.7-0.5-1.8-0.2-3.2c0.3-1.4,0.8-2.5,1.6-3.2c0.8-0.7,1.7-1.1,2.8-1.1
		c1.1,0,1.9,0.4,2.3,1.1C96.6,9.5,96.7,10.6,96.4,12z"/>
	<polygon class="st1" points="119.6,5.6 114.7,15.5 113.8,5.7 113.8,5.6 111,5.6 105.8,15.5 105.2,5.7 105.2,5.6 102.1,5.6 
		103.6,18.3 103.6,18.3 106.7,18.3 111.6,9 112.7,18.3 112.7,18.3 115.8,18.3 122.7,5.8 122.7,5.6 	"/>
</g>
</svg>
