<?xml version="1.0" encoding="utf-8"?>
<!-- Generator: Adobe Illustrator 20.1.0, SVG Export Plug-In . SVG Version: 6.00 Build 0)  -->
<svg version="1.1" id="Layer_1" xmlns="http://www.w3.org/2000/svg" xmlns:xlink="http://www.w3.org/1999/xlink" x="0px" y="0px"
	 viewBox="0 0 215 66" style="enable-background:new 0 0 215 66;" xml:space="preserve">
<style type="text/css">
	.st0{fill:#FFFFFF;}
</style>
<g>
	<polygon class="st0" points="6,34.9 51.1,46 208.7,34.9 51.1,54.9 	"/>
	<path class="st0" d="M91,54.9h2.5L90.8,66h-2.4L91,54.9z"/>
	<path class="st0" d="M105.6,66c-0.4-1.3-0.9-2.5-1.5-3.8c-0.5-1.3-1.1-2.4-1.8-3.6l-1.8,7.3h-2.4l2.7-11.1h1.9
		c0.2,0.4,0.5,0.8,0.8,1.3c0.3,0.5,0.6,1.1,0.9,1.6c0.3,0.6,0.6,1.2,0.9,1.8c0.3,0.6,0.6,1.3,0.8,1.9l1.6-6.7h2.5L107.5,66H105.6z"
		/>
	<path class="st0" d="M122.2,66c-0.4-1.3-0.9-2.5-1.5-3.8c-0.5-1.3-1.1-2.4-1.8-3.6l-1.8,7.3h-2.4l2.7-11.1h1.9
		c0.2,0.4,0.5,0.8,0.8,1.3c0.3,0.5,0.6,1.1,0.9,1.6c0.3,0.6,0.6,1.2,0.9,1.8c0.3,0.6,0.6,1.3,0.8,1.9l1.6-6.7h2.5L124.1,66H122.2z"
		/>
	<path class="st0" d="M136,66c-0.6,0-1.2-0.1-1.7-0.3c-0.5-0.2-1-0.5-1.3-0.9c-0.4-0.4-0.7-0.9-0.9-1.4c-0.2-0.6-0.3-1.2-0.3-1.9
		c0-0.8,0.1-1.6,0.4-2.4c0.3-0.8,0.7-1.5,1.2-2.1c0.5-0.6,1.1-1.1,1.9-1.5c0.7-0.4,1.6-0.6,2.5-0.6c0.6,0,1.2,0.1,1.7,0.3
		c0.5,0.2,1,0.5,1.3,0.9c0.4,0.4,0.7,0.9,0.9,1.4c0.2,0.6,0.3,1.2,0.3,1.9c0,0.8-0.1,1.6-0.4,2.4c-0.3,0.8-0.7,1.5-1.2,2.1
		c-0.5,0.6-1.1,1.1-1.9,1.5C137.8,65.8,136.9,66,136,66z M137.5,57c-0.5,0-0.9,0.1-1.3,0.4c-0.4,0.2-0.8,0.6-1.1,1
		c-0.3,0.4-0.5,0.9-0.7,1.4c-0.2,0.5-0.3,1.1-0.3,1.6c0,0.8,0.2,1.4,0.5,1.9c0.3,0.5,0.8,0.7,1.6,0.7c0.5,0,0.9-0.1,1.3-0.4
		c0.4-0.2,0.8-0.6,1.1-1c0.3-0.4,0.5-0.9,0.7-1.4c0.2-0.5,0.3-1.1,0.3-1.6c0-0.8-0.2-1.4-0.5-1.9C138.7,57.2,138.2,57,137.5,57z"/>
	<path class="st0" d="M150.2,66c-0.2-0.9-0.3-1.8-0.5-2.8c-0.2-1-0.3-1.9-0.4-2.9c-0.1-1-0.3-1.9-0.4-2.8c-0.1-0.9-0.2-1.8-0.3-2.6
		h2.7c0,0.6,0.1,1.3,0.1,2c0,0.7,0.1,1.4,0.2,2.1c0.1,0.7,0.1,1.4,0.2,2.1c0.1,0.7,0.1,1.4,0.2,2c0.3-0.6,0.7-1.2,1.1-1.8
		c0.4-0.7,0.8-1.3,1.2-2.1c0.4-0.7,0.8-1.4,1.2-2.2c0.4-0.7,0.7-1.4,1-2.1h2.7c-0.4,0.8-0.8,1.6-1.3,2.5c-0.5,0.9-1,1.8-1.5,2.7
		c-0.5,0.9-1.1,1.9-1.7,2.9c-0.6,1-1.3,2-1.9,2.9H150.2z"/>
	<path class="st0" d="M189.2,54.9l-0.5,2.1h-3.2l-2.2,9h-2.5l2.2-9h-3.2l0.5-2.1H189.2z"/>
	<path class="st0" d="M194,66l2.7-11.1h7.5l-0.5,2h-5.1l-0.5,2.2h4.2l-0.5,2h-4.2l-0.6,2.7h5.1l-0.5,2.1H194z"/>
	<path class="st0" d="M172.5,63.3c-0.1-1-0.2-1.9-0.4-2.9c-0.1-1-0.3-1.9-0.4-2.9c-0.2-0.9-0.3-1.8-0.5-2.5H169
		c-0.6,0.8-1.1,1.6-1.6,2.4c-0.5,0.8-1.1,1.7-1.6,2.5c-0.6,0.9-1.1,1.8-1.7,2.9c-0.6,1-1.2,2.1-1.9,3.3h2.6c0.2-0.4,0.4-0.8,0.7-1.2
		c0.2-0.4,0.5-0.8,0.7-1.2l0.8-1.5h3.2l0.1,1.5c0,0.4,0.1,0.8,0.1,1.2c0,0.4,0.1,0.8,0.1,1.2h2.5C172.7,65.1,172.6,64.2,172.5,63.3z
		 M169.6,57.4c0.1,0.7,0.2,1.5,0.2,2.2c0,0.2,0,0.4,0.1,0.6h-2c0.1-0.2,0.3-0.5,0.4-0.7C168.7,58.8,169.2,58.1,169.6,57.4z"/>
</g>
<g>
	<path class="st0" d="M23.3,2.6H12.1L6.2,30l0,0.2h4.6l2.3-10.9h5.7l4.6,10.9h5.4l-5-11.5c1.9-0.6,3.5-1.5,4.8-2.8
		c1.3-1.3,2.2-3,2.6-5c0.6-2.6,0.1-4.7-1.3-6.1C28.5,3.3,26.3,2.6,23.3,2.6z M26.4,10.9c-0.3,1.5-1,2.6-2,3.3
		c-1,0.7-2.4,1.1-4.2,1.1H14l1.8-8.7h6.3c1.8,0,3,0.4,3.7,1.1C26.5,8.3,26.7,9.4,26.4,10.9z"/>
	<path class="st0" d="M46.4,8.8c-3.2,0-6,1-8.1,2.9c-2.2,1.9-3.7,4.6-4.4,8c-0.7,3.4-0.4,6.1,1.1,8c1.4,1.9,3.9,2.9,7.1,2.9
		c4.4,0,7.8-1.6,10-4.9l0.1-0.1L48.6,24l-0.1,0.1c-0.5,0.9-1.3,1.6-2.2,2c-1,0.5-2.1,0.7-3.5,0.7c-1.6,0-2.8-0.5-3.7-1.4
		c-0.8-0.9-1.2-2.2-1-4h15.1l0-0.1c0.3-0.7,0.5-1.5,0.7-2.3c0.7-3.1,0.3-5.6-1-7.5C51.7,9.7,49.5,8.8,46.4,8.8z M38.9,17.8
		c0.6-1.7,1.5-3,2.6-3.9c1.2-0.9,2.5-1.4,4.1-1.4c1.5,0,2.6,0.5,3.3,1.4c0.7,0.9,1,2.2,0.9,3.9H38.9z"/>
	<path class="st0" d="M75.6,27c-0.5,0-0.8-0.1-1-0.3c-0.2-0.2-0.2-0.6-0.1-1.1l2-9.4c0.5-2.4,0.1-4.3-1.2-5.6
		c-1.3-1.3-3.4-1.9-6.1-1.9c-2.2,0-4.3,0.5-6,1.5c-1.8,1-3.1,2.3-3.9,4l-0.1,0.1l3.3,1.9l0.1-0.1c1.3-2.4,3.4-3.7,6-3.7
		c1.3,0,2.2,0.4,2.8,1.1c0.6,0.7,0.7,1.7,0.5,2.9l-0.2,1l-5.4,0.9c-2.8,0.5-5,1.3-6.6,2.4c-1.6,1.1-2.6,2.5-3,4.2
		c-0.4,1.8,0,3.2,1,4.1c1.1,1,2.6,1.4,4.7,1.4c1.6,0,3-0.3,4.4-0.8c1.3-0.5,2.3-1.2,3.1-2.1c0,1,0.4,1.7,0.9,2.1
		c0.6,0.5,1.6,0.7,2.8,0.7c1,0,1.9-0.2,2.7-0.5l0.1,0l1-3.3l-0.2,0.1C76.7,27,76.2,27,75.6,27z M70.8,20.8l-0.5,2.3
		c-0.2,1.1-1,2.1-2.2,2.8C66.8,26.6,65.5,27,64,27c-1,0-1.7-0.2-2.1-0.6c-0.4-0.4-0.5-0.9-0.4-1.6c0.2-0.8,0.6-1.4,1.4-1.9
		c0.8-0.5,1.9-0.9,3.4-1.1L70.8,20.8z"/>
	<path class="st0" d="M99.1,12.2c-0.4-1-1.1-1.8-2-2.4c-1-0.7-2.3-1-3.9-1c-2.9,0-5.4,1-7.4,2.9c-2.1,1.9-3.5,4.6-4.2,8
		c-0.7,3.4-0.5,6.1,0.8,8c1.3,1.9,3.4,2.9,6.2,2.9c1.6,0,3.1-0.4,4.5-1.1c1.2-0.7,2.3-1.6,3.1-2.6l-0.5,3.3h4.1L106.3,0l0-0.2h-4.7
		L99.1,12.2z M97.5,19.4l-0.1,0.5c-0.5,2.1-1.3,3.8-2.6,5c-1.3,1.2-2.8,1.8-4.5,1.8c-1.7,0-3-0.6-3.7-1.8c-0.7-1.2-0.8-3-0.4-5.2
		c0.5-2.2,1.3-4,2.6-5.2c1.2-1.2,2.8-1.8,4.5-1.8c1.7,0,2.9,0.6,3.6,1.8C97.8,15.6,98,17.3,97.5,19.4z"/>
	<path class="st0" d="M115.3,0.2c-1,0-1.8,0.2-2.4,0.7c-0.6,0.5-1.1,1.2-1.3,2.1c-0.2,0.9-0.1,1.6,0.4,2.2c0.4,0.5,1.2,0.8,2.1,0.8
		c1,0,1.8-0.3,2.4-0.8c0.6-0.5,1.1-1.2,1.2-2.1c0.2-0.9,0.1-1.6-0.4-2.1C116.9,0.5,116.2,0.2,115.3,0.2z"/>
	<polygon class="st0" points="106.6,30 106.6,30.2 111.2,30.2 115.7,9.3 115.7,9.2 111,9.2 	"/>
	<polygon class="st0" points="138.9,20.3 138.2,24.5 136.7,19.8 129.8,2.6 129.8,2.6 124.4,2.6 118.6,30 118.5,30.2 122.8,30.2 
		126.6,12.4 127.4,8.2 128.8,12.9 135.7,30.1 135.8,30.2 141.2,30.2 147,2.7 147.1,2.6 142.7,2.6 	"/>
	<path class="st0" d="M161.9,8.8c-3.2,0-6,1-8.3,2.9c-2.2,1.9-3.7,4.6-4.5,8c-0.7,3.4-0.4,6.1,1.1,8c1.4,1.9,3.8,2.9,7.1,2.9
		c3.2,0,6-1,8.3-2.9c2.2-1.9,3.7-4.6,4.5-8c0.7-3.4,0.4-6.1-1.1-8C167.5,9.8,165.1,8.8,161.9,8.8z M165.3,19.7
		c-0.5,2.3-1.4,4.1-2.6,5.3c-1.3,1.2-2.8,1.9-4.7,1.9c-1.8,0-3.1-0.6-3.8-1.8c-0.7-1.2-0.8-3-0.3-5.3c0.5-2.3,1.4-4.1,2.6-5.3
		c1.2-1.2,2.8-1.8,4.6-1.8c1.8,0,3.1,0.6,3.8,1.8C165.7,15.6,165.8,17.4,165.3,19.7z"/>
	<polygon class="st0" points="203.8,9.2 195.7,25.5 194.1,9.3 194.1,9.2 189.5,9.2 181,25.4 179.9,9.3 179.8,9.2 174.8,9.2 
		177.3,30.1 177.3,30.2 182.4,30.2 190.5,14.8 192.4,30.1 192.4,30.2 197.4,30.2 208.8,9.4 208.9,9.2 	"/>
</g>
</svg>
