<?xml version="1.0" encoding="UTF-8" standalone="no"?>
<!-- Generator: Adobe Illustrator 15.1.0, SVG Export Plug-In . SVG Version: 6.00 Build 0)  -->

<svg
   xmlns:dc="http://purl.org/dc/elements/1.1/"
   xmlns:cc="http://creativecommons.org/ns#"
   xmlns:rdf="http://www.w3.org/1999/02/22-rdf-syntax-ns#"
   xmlns:svg="http://www.w3.org/2000/svg"
   xmlns="http://www.w3.org/2000/svg"
   xmlns:sodipodi="http://sodipodi.sourceforge.net/DTD/sodipodi-0.dtd"
   xmlns:inkscape="http://www.inkscape.org/namespaces/inkscape"
   version="1.1"
   id="Layer_1"
   x="0px"
   y="0px"
   width="732.89001"
   height="115"
   viewBox="0 0 732.89 114.99999"
   enable-background="new 0 0 841.89 595.28"
   xml:space="preserve"
   inkscape:version="0.48.2 r9819"
   sodipodi:docname="logo_SP.svg"><metadata
   id="metadata3163"><rdf:RDF><cc:Work
       rdf:about=""><dc:format>image/svg+xml</dc:format><dc:type
         rdf:resource="http://purl.org/dc/dcmitype/StillImage" /><dc:title></dc:title></cc:Work></rdf:RDF></metadata><defs
   id="defs3161" /><sodipodi:namedview
   pagecolor="#ffffff"
   bordercolor="#666666"
   borderopacity="1"
   objecttolerance="10"
   gridtolerance="10"
   guidetolerance="10"
   inkscape:pageopacity="0"
   inkscape:pageshadow="2"
   inkscape:window-width="1606"
   inkscape:window-height="943"
   id="namedview3159"
   showgrid="false"
   inkscape:zoom="0.36703132"
   inkscape:cx="0"
   inkscape:cy="297.64001"
   inkscape:window-x="42"
   inkscape:window-y="8"
   inkscape:window-maximized="0"
   inkscape:current-layer="Layer_1" />
<g
   id="g3076"
   transform="translate(-54.491262,-235.07261)">
	<path
   d="m 351.303,317.196 h 12.85 v 4.361 h -4.236 v 18.888 h -4.489 v -18.888 h -4.125 v -4.361 z"
   id="path3078"
   inkscape:connector-curvature="0"
   style="fill:#175f95" />
	<path
   d="m 368.348,316.611 h 4.283 v 8.377 c 0.843,-0.728 1.691,-1.272 2.545,-1.637 0.854,-0.363 1.717,-0.545 2.592,-0.545 1.707,0 3.146,0.59 4.315,1.771 1.001,1.021 1.501,2.523 1.501,4.504 v 11.364 h -4.251 v -7.539 c 0,-1.991 -0.095,-3.34 -0.285,-4.046 -0.189,-0.706 -0.514,-1.233 -0.972,-1.581 -0.458,-0.348 -1.024,-0.521 -1.699,-0.521 -0.875,0 -1.625,0.29 -2.252,0.869 -0.627,0.58 -1.062,1.37 -1.304,2.371 -0.126,0.517 -0.19,1.696 -0.19,3.54 v 6.907 h -4.283 v -23.834 z"
   id="path3080"
   inkscape:connector-curvature="0"
   style="fill:#175f95" />
	<path
   d="m 406.603,333.096 h -13.861 c 0.2,1.223 0.735,2.194 1.604,2.916 0.869,0.722 1.978,1.083 3.327,1.083 1.612,0 2.998,-0.563 4.157,-1.691 l 3.635,1.707 c -0.906,1.286 -1.992,2.236 -3.256,2.853 -1.265,0.617 -2.766,0.925 -4.505,0.925 -2.697,0 -4.894,-0.851 -6.59,-2.553 -1.697,-1.701 -2.545,-3.832 -2.545,-6.393 0,-2.624 0.846,-4.803 2.537,-6.536 1.691,-1.732 3.812,-2.6 6.362,-2.6 2.708,0 4.91,0.867 6.606,2.6 1.696,1.733 2.545,4.022 2.545,6.868 l -0.016,0.821 z m -4.315,-3.398 c -0.285,-0.959 -0.847,-1.739 -1.687,-2.34 -0.839,-0.601 -1.813,-0.9 -2.921,-0.9 -1.203,0 -2.259,0.337 -3.167,1.011 -0.57,0.422 -1.098,1.165 -1.583,2.229 h 9.358 z"
   id="path3082"
   inkscape:connector-curvature="0"
   style="fill:#175f95" />
	<path
   d="m 422.926,317.196 h 11.538 v 4.314 h -7.144 v 4.22 h 7.144 v 4.252 h -7.144 v 10.463 h -4.395 v -23.249 z"
   id="path3084"
   inkscape:connector-curvature="0"
   style="fill:#175f95" />
	<path
   d="m 439.527,323.249 h 4.362 v 8.282 c 0,1.612 0.111,2.731 0.333,3.358 0.222,0.627 0.578,1.114 1.069,1.462 0.491,0.348 1.096,0.521 1.814,0.521 0.718,0 1.328,-0.171 1.83,-0.514 0.502,-0.342 0.874,-0.846 1.116,-1.509 0.18,-0.495 0.27,-1.555 0.27,-3.177 v -8.425 h 4.315 v 7.286 c 0,3.003 -0.237,5.058 -0.712,6.164 -0.579,1.35 -1.433,2.385 -2.56,3.106 -1.128,0.721 -2.561,1.082 -4.3,1.082 -1.886,0 -3.411,-0.422 -4.575,-1.265 -1.164,-0.843 -1.983,-2.018 -2.458,-3.524 -0.337,-1.043 -0.506,-2.939 -0.506,-5.689 v -7.158 z"
   id="path3086"
   inkscape:connector-curvature="0"
   style="fill:#175f95" />
	<path
   d="m 461.108,316.911 h 4.314 v 6.338 h 2.561 v 3.715 h -2.561 v 13.481 h -4.314 v -13.481 h -2.213 v -3.715 h 2.213 v -6.338 z"
   id="path3088"
   inkscape:connector-curvature="0"
   style="fill:#175f95" />
	<path
   d="m 471.894,323.249 h 4.362 v 8.282 c 0,1.612 0.111,2.731 0.333,3.358 0.222,0.627 0.578,1.114 1.069,1.462 0.491,0.348 1.096,0.521 1.814,0.521 0.718,0 1.328,-0.171 1.83,-0.514 0.502,-0.342 0.874,-0.846 1.116,-1.509 0.18,-0.495 0.27,-1.555 0.27,-3.177 v -8.425 h 4.315 v 7.286 c 0,3.003 -0.237,5.058 -0.712,6.164 -0.579,1.35 -1.433,2.385 -2.56,3.106 -1.128,0.721 -2.561,1.082 -4.3,1.082 -1.886,0 -3.411,-0.422 -4.575,-1.265 -1.164,-0.843 -1.983,-2.018 -2.458,-3.524 -0.337,-1.043 -0.506,-2.939 -0.506,-5.689 v -7.158 z"
   id="path3090"
   inkscape:connector-curvature="0"
   style="fill:#175f95" />
	<path
   d="m 491.941,323.249 h 3.698 v 2.165 c 0.4,-0.853 0.933,-1.501 1.596,-1.943 0.664,-0.442 1.392,-0.664 2.182,-0.664 0.559,0 1.144,0.147 1.754,0.442 l -1.343,3.715 c -0.506,-0.253 -0.923,-0.38 -1.249,-0.38 -0.664,0 -1.225,0.411 -1.683,1.233 -0.459,0.821 -0.688,2.434 -0.688,4.836 l 0.017,0.838 v 6.954 h -4.283 v -17.196 z"
   id="path3092"
   inkscape:connector-curvature="0"
   style="fill:#175f95" />
	<path
   d="M 522.151,333.096 H 508.29 c 0.2,1.223 0.734,2.194 1.604,2.916 0.869,0.722 1.978,1.083 3.326,1.083 1.612,0 2.998,-0.563 4.157,-1.691 l 3.635,1.707 c -0.906,1.286 -1.991,2.236 -3.256,2.853 -1.264,0.617 -2.766,0.925 -4.504,0.925 -2.698,0 -4.895,-0.851 -6.591,-2.553 -1.697,-1.701 -2.545,-3.832 -2.545,-6.393 0,-2.624 0.846,-4.803 2.537,-6.536 1.69,-1.732 3.812,-2.6 6.361,-2.6 2.708,0 4.91,0.867 6.606,2.6 1.696,1.733 2.545,4.022 2.545,6.868 l -0.014,0.821 z m -4.315,-3.398 c -0.285,-0.959 -0.847,-1.739 -1.686,-2.34 -0.84,-0.601 -1.813,-0.9 -2.922,-0.9 -1.203,0 -2.258,0.337 -3.166,1.011 -0.569,0.422 -1.098,1.165 -1.583,2.229 h 9.357 z"
   id="path3094"
   inkscape:connector-curvature="0"
   style="fill:#175f95" />
	<path
   d="m 538.095,317.196 h 4.395 v 23.249 h -4.395 v -23.249 z"
   id="path3096"
   inkscape:connector-curvature="0"
   style="fill:#175f95" />
	<path
   d="m 559.138,325.651 -2.671,2.671 c -1.085,-1.074 -2.07,-1.611 -2.955,-1.611 -0.485,0 -0.864,0.103 -1.139,0.308 -0.273,0.206 -0.41,0.461 -0.41,0.767 0,0.232 0.087,0.445 0.261,0.641 0.174,0.194 0.603,0.461 1.288,0.798 l 1.58,0.79 c 1.665,0.822 2.808,1.66 3.43,2.514 0.622,0.854 0.933,1.854 0.933,3.003 0,1.527 -0.561,2.803 -1.684,3.824 -1.122,1.022 -2.626,1.533 -4.512,1.533 -2.508,0 -4.51,-0.979 -6.006,-2.939 l 2.655,-2.893 c 0.506,0.59 1.098,1.067 1.777,1.431 0.679,0.364 1.283,0.545 1.81,0.545 0.569,0 1.027,-0.137 1.376,-0.411 0.348,-0.273 0.521,-0.59 0.521,-0.948 0,-0.663 -0.627,-1.312 -1.881,-1.943 l -1.454,-0.728 c -2.782,-1.401 -4.173,-3.155 -4.173,-5.263 0,-1.359 0.524,-2.521 1.572,-3.485 1.049,-0.964 2.39,-1.446 4.022,-1.446 1.117,0 2.168,0.245 3.153,0.735 0.987,0.487 1.822,1.191 2.507,2.107 z"
   id="path3098"
   inkscape:connector-curvature="0"
   style="fill:#175f95" />
	<path
   d="m 575.636,317.196 h 4.245 l 9.948,15.299 v -15.299 h 4.426 v 23.249 h -4.258 l -9.936,-15.252 v 15.252 h -4.426 v -23.249 z"
   id="path3100"
   inkscape:connector-curvature="0"
   style="fill:#175f95" />
	<path
   d="m 608.786,322.807 c 1.622,0 3.147,0.406 4.575,1.217 1.428,0.812 2.542,1.913 3.343,3.304 0.801,1.391 1.201,2.893 1.201,4.504 0,1.623 -0.402,3.141 -1.209,4.553 -0.806,1.412 -1.904,2.516 -3.295,3.311 -1.392,0.796 -2.924,1.193 -4.6,1.193 -2.466,0 -4.57,-0.877 -6.314,-2.632 -1.744,-1.754 -2.615,-3.885 -2.615,-6.393 0,-2.688 0.984,-4.926 2.955,-6.718 1.729,-1.559 3.715,-2.339 5.959,-2.339 z m 0.071,4.061 c -1.341,0 -2.457,0.467 -3.349,1.399 -0.893,0.933 -1.338,2.126 -1.338,3.58 0,1.496 0.44,2.708 1.322,3.635 0.881,0.928 1.997,1.391 3.348,1.391 1.352,0 2.476,-0.469 3.373,-1.406 0.896,-0.938 1.346,-2.145 1.346,-3.619 0,-1.476 -0.441,-2.674 -1.322,-3.596 -0.882,-0.922 -2.008,-1.384 -3.38,-1.384 z"
   id="path3102"
   inkscape:connector-curvature="0"
   style="fill:#175f95" />
	<path
   d="m 621.144,323.249 h 4.224 l 3.458,9.783 3.721,-9.783 h 2.583 l 3.653,9.673 3.462,-9.673 h 4.251 l -6.274,17.196 h -2.734 l -3.667,-9.799 -3.777,9.799 h -2.702 l -6.198,-17.196 z"
   id="path3104"
   inkscape:connector-curvature="0"
   style="fill:#175f95" />
</g>
<polygon
   points="422.489,250.721 410.139,303.026 421.319,303.026 433.941,248.336 "
   id="polygon3106"
   transform="translate(-54.491262,-235.07261)" />
<path
   d="m 415.93274,31.86644 c -0.284,-1.713 -1.205,-3.22 -2.742,-4.489 -1.391,-1.14 -3.226,-1.968 -5.458,-2.458 -3.932,-0.861 -8.736,-0.857 -13.709,-0.221 -2.383,0.3 -5.248,0.861 -8.521,1.667 l -1.116,0.274 -0.336,1.101 c -0.651,2.149 -1.195,3.773 -1.61,4.824 l -1.647,4.183 4.222,-1.539 c 2.027,-0.737 3.628,-1.266 4.896,-1.616 1.252,-0.348 2.75,-0.652 4.461,-0.905 3.343,-0.501 6.771,-0.521 8.874,0.075 0.811,0.233 1.39,0.601 1.769,1.124 0.197,0.271 0.44,0.739 0.267,1.656 -0.056,0.298 -0.174,0.618 -0.346,0.942 -0.186,0.346 -0.458,0.705 -0.81,1.075 -0.366,0.381 -0.751,0.708 -1.146,0.966 -0.405,0.265 -0.877,0.503 -1.398,0.707 -0.626,0.243 -1.336,0.49 -2.138,0.743 -0.8,0.255 -1.753,0.502 -2.858,0.741 -3.655,0.841 -6.388,1.529 -8.12,2.043 -1.78,0.529 -3.29,1.043 -4.611,1.572 -1.387,0.551 -2.773,1.267 -4.119,2.13 -1.375,0.879 -2.499,1.786 -3.351,2.701 -0.846,0.915 -1.581,1.94 -2.189,3.054 -0.624,1.154 -1.066,2.42 -1.319,3.766 -0.44,2.339 -0.261,4.55 0.531,6.573 0.852,2.169 2.449,3.795 4.753,4.834 2.093,0.946 4.971,1.405 8.798,1.405 1.091,0 2.263,-0.046 3.503,-0.141 1.253,-0.091 2.856,-0.318 4.899,-0.695 l 1.083,-0.199 0.421,-1.02 c 0.812,-1.972 1.479,-3.436 1.983,-4.351 l 0.332,-0.603 -1.664,6.257 2.725,-0.093 c 1.486,-0.05 2.63,-0.073 3.432,-0.073 0.852,0 1.944,0.023 3.286,0.073 l 1.74,0.065 0.322,-1.711 c 0.523,-2.776 1.186,-5.919 1.966,-9.347 0.772,-3.402 1.675,-7.15 2.76,-11.461 1.066,-4.229 1.75,-7.167 2.092,-8.983 0.301,-1.621 0.334,-3.184 0.093,-4.646 z m -19.436,27.61 c -1.98,0.589 -3.525,0.954 -4.602,1.084 -2.736,0.342 -5.293,0.259 -6.857,-0.28 -0.72,-0.243 -1.229,-0.644 -1.608,-1.269 -0.357,-0.581 -0.45,-1.288 -0.286,-2.159 0.126,-0.664 0.373,-1.308 0.717,-1.889 0.282,-0.46 0.749,-0.958 1.389,-1.479 0.688,-0.565 1.539,-1.101 2.533,-1.594 1.016,-0.508 2.418,-1.031 4.21,-1.569 0.85,-0.274 2.276,-0.67 4.281,-1.193 2.09,-0.547 3.499,-0.931 4.229,-1.152 0.782,-0.235 1.504,-0.486 2.149,-0.747 0.058,-0.024 0.117,-0.045 0.172,-0.069 l -1.833,7.8 -0.917,3.45 -3.577,1.066 z"
   id="path3108"
   inkscape:connector-curvature="0" />
<path
   d="m 436.84574,25.27544 c 0.363,-1.669 0.831,-3.72 1.398,-6.132 l 0.749,-3.187 -3.187,0.756 c -1.688,0.401 -3.778,0.832 -6.216,1.282 l -1.312,0.243 -0.295,1.3 c -0.555,2.458 -1.001,4.354 -1.35,5.737 h -5.271 l -0.359,1.575 c -0.44,1.946 -0.811,3.441 -1.106,4.487 l -0.731,2.576 h 5.22 l -3.55,14.655 c -1.043,4.285 -1.644,6.789 -1.802,7.496 -0.168,0.747 -0.281,1.269 -0.336,1.567 -0.484,2.58 -0.401,4.633 0.253,6.274 0.691,1.737 1.981,3.071 3.726,3.851 1.557,0.699 3.574,1.039 6.166,1.039 0.964,0 2.016,-0.054 3.144,-0.16 1.138,-0.118 2.657,-0.39 4.515,-0.807 l 1.096,-0.246 0.372,-1.062 c 0.705,-2.021 1.315,-3.661 1.815,-4.874 l 1.523,-3.699 -3.883,0.964 c -2.321,0.579 -3.374,0.776 -3.846,0.839 -1.38,0.188 -2.483,0.249 -3.389,-0.237 -0.193,-0.103 -0.39,-0.265 -0.516,-0.745 -0.095,-0.355 -0.195,-1.258 0.18,-3.254 l 5.046,-21.604 h 10.648 l 0.332,-1.616 c 0.297,-1.444 0.654,-2.948 1.065,-4.473 l 0.686,-2.549 h -10.785 z"
   id="path3110"
   inkscape:connector-curvature="0" />
<path
   d="m 474.88674,11.163436 c -5.011,-1.191 -9.177,-1.24901 -12.437,-0.567 -1.492,0.311 -2.863,0.816 -4.072,1.5 -1.219,0.684 -2.24,1.462 -3.038,2.317 -0.799,0.855004 -1.482,1.901004 -2.029,3.108004 -0.512,1.124 -0.937,2.395 -1.265,3.773 -0.233,0.972 -0.523,2.274 -0.871,3.902 h -4.907 l -0.36,1.571 c -0.438,1.913 -0.821,3.43 -1.171,4.639 l -0.751,2.586 h 4.941 l -5.522,24.415 -2.385,9.633 2.674,-0.089 c 1.535,-0.05 2.657,-0.073 3.36,-0.073 0.725,0 1.861,0.023 3.408,0.073 l 1.692,0.056 3.398,-16.055 3.999,-17.96 h 10.245 l 0.368,-1.557 c 0.478,-2.013 0.883,-3.57 1.205,-4.625 l 0.798,-2.614 h -10.892 c 0.184,-0.879 0.383,-1.669 0.595,-2.355 0.233,-0.756 0.527,-1.411 0.873,-1.946 0.313,-0.48 0.66,-0.861 1.035,-1.134 0.386,-0.28 0.905,-0.52 1.539,-0.707 2.238,-0.66 4.945,-0.251 7.865,0.835 l 2.543,0.944 0.182,-2.707 c 0.106,-1.612 0.28,-3.190004 0.512,-4.686004 l 0.286,-1.847 -1.818,-0.43 z"
   id="path3112"
   inkscape:connector-curvature="0" />
<path
   d="m 510.38074,36.97544 c -0.508,-2.884 -1.63,-5.328 -3.335,-7.266 -1.694,-1.918 -3.876,-3.337 -6.485,-4.214 -2.479,-0.832 -5.2,-1.254 -8.087,-1.254 -4.009,0 -7.979,0.893 -11.803,2.655 -3.892,1.792 -7.138,4.534 -9.648,8.153 -2.46,3.548 -4.131,7.591 -4.965,12.012 -0.562,2.987 -0.599,5.894 -0.111,8.638 0.506,2.853 1.61,5.313 3.278,7.313 1.671,2.006 3.839,3.499 6.446,4.438 2.478,0.893 5.233,1.346 8.191,1.346 3.146,0 6.223,-0.492 9.143,-1.462 2.993,-0.99 5.696,-2.568 8.031,-4.688 2.304,-2.086 4.285,-4.651 5.892,-7.622 1.597,-2.956 2.715,-6.089 3.323,-9.317 0.571,-3.032 0.614,-5.968 0.13,-8.732 z m -25.606,23.028 c -2.337,0 -4.216,-0.529 -5.587,-1.577 -1.354,-1.031 -2.187,-2.355 -2.549,-4.044 -0.402,-1.881 -0.375,-4.066 0.079,-6.494 0.54,-2.849 1.525,-5.51 2.937,-7.908 1.358,-2.316 3.044,-3.989 5.154,-5.119 2.14,-1.152 4.291,-1.711 6.577,-1.711 1.412,0 2.785,0.211 4.077,0.628 1.162,0.377 2.114,1.003 2.912,1.918 0.761,0.867 1.241,2.092 1.433,3.643 0.217,1.744 0.132,3.661 -0.251,5.696 -0.413,2.212 -1.104,4.362 -2.053,6.389 -0.915,1.95 -2.072,3.611 -3.439,4.933 -1.346,1.3 -2.81,2.234 -4.354,2.782 -1.609,0.574 -3.27,0.864 -4.936,0.864 z"
   id="path3114"
   inkscape:connector-curvature="0" />
<path
   d="m 542.06074,24.68444 c -2.513,-0.634 -5.249,-0.563 -7.776,0.054 -1.373,0.33 -2.652,0.8 -3.801,1.393 -0.512,0.261 -1.01,0.557 -1.493,0.883 l 0.458,-1.952 -2.616,0.06 c -1.185,0.027 -2.258,0.039 -3.214,0.039 -0.832,0 -1.887,-0.012 -3.165,-0.039 l -1.732,-0.036 -0.925,5.206 c -1.646,8.744 -4.329,20.571 -7.978,35.147 l -0.652,2.602 2.681,-0.089 c 1.537,-0.05 2.682,-0.073 3.435,-0.073 0.821,0 1.904,0.023 3.243,0.073 l 1.743,0.065 0.8,-4.278 c 0.707,-3.755 1.448,-7.42 2.201,-10.888 1.023,-4.645 1.833,-7.857 2.408,-9.55 0.549,-1.624 1.144,-2.944 1.786,-3.943 0.767,-1.231 1.659,-2.298 2.653,-3.169 0.964,-0.848 1.991,-1.484 3.052,-1.893 1.931,-0.747 4.118,-0.874 7.042,-0.04 l 2.295,0.66 0.271,-2.375 c 0.236,-2.073 0.499,-3.939 0.782,-5.548 l 0.321,-1.849 -1.819,-0.46 z"
   id="path3116"
   inkscape:connector-curvature="0" />
<path
   d="m 605.36574,32.88744 c -0.161,-1.549 -0.764,-3.039 -1.793,-4.427 -1.052,-1.411 -2.591,-2.494 -4.57,-3.217 -1.823,-0.666 -3.799,-1.003 -5.871,-1.003 -3.161,0 -6.19,0.656 -9.004,1.946 -1.829,0.842 -3.558,2.079 -5.168,3.697 -0.346,-0.709 -0.798,-1.367 -1.35,-1.96 -0.676,-0.737 -1.528,-1.399 -2.542,-1.97 -0.965,-0.542 -2.063,-0.968 -3.271,-1.271 -2.853,-0.705 -5.942,-0.531 -8.854,0.213 -1.701,0.437 -3.289,1.061 -4.722,1.859 -0.569,0.318 -1.104,0.65 -1.606,0.996 l 0.637,-2.699 -2.626,0.069 c -1.997,0.055 -3.938,0.057 -6.373,0 l -1.721,-0.04 -0.316,1.691 c -0.184,0.99 -0.469,2.434 -0.844,4.289 l -5.293,23.295 c -0.603,2.513 -1.049,4.358 -1.34,5.506 l -2.153,8.173 2.709,-0.083 c 1.64,-0.052 2.788,-0.075 3.439,-0.075 0.601,0 1.697,0.023 3.294,0.073 l 1.73,0.056 0.32,-1.703 c 0.655,-3.478 1.574,-7.791 2.731,-12.82 1.15,-4.995 2.099,-8.527 2.823,-10.499 0.693,-1.881 1.444,-3.394 2.239,-4.502 0.778,-1.095 1.661,-2.023 2.635,-2.764 0.958,-0.737 1.97,-1.3 3.003,-1.673 1.911,-0.689 4.057,-0.723 5.457,-0.123 0.591,0.253 1.049,0.604 1.393,1.065 0.342,0.462 0.532,0.944 0.579,1.476 0.067,0.713 -0.004,1.638 -0.211,2.75 -0.37,1.964 -0.876,4.329 -1.545,7.219 l -2.203,9.272 c -0.792,3.375 -1.61,6.638 -2.433,9.702 l -0.707,2.632 2.725,-0.087 c 1.616,-0.05 2.762,-0.073 3.439,-0.073 0.726,0 1.81,0.023 3.25,0.073 l 1.691,0.06 2.677,-12.378 c 0.814,-3.811 1.539,-6.937 2.161,-9.299 0.544,-2.114 1.135,-3.912 1.757,-5.338 0.478,-1.092 1.006,-2.035 1.58,-2.819 0.532,-0.743 1.139,-1.413 1.828,-2.013 0.67,-0.601 1.404,-1.11 2.217,-1.533 0.697,-0.377 1.414,-0.668 2.096,-0.854 1.638,-0.417 3.732,-0.364 5.005,0.106 0.598,0.225 1.047,0.523 1.369,0.915 0.329,0.399 0.533,0.832 0.62,1.323 0.059,0.328 0.114,1.125 -0.189,2.749 -0.311,1.644 -0.743,3.605 -1.288,5.836 l -2.282,9.497 c -1.004,4.198 -1.929,7.861 -2.829,11.202 l -0.709,2.634 2.726,-0.087 c 1.591,-0.05 2.788,-0.073 3.594,-0.073 0.747,0 1.776,0.023 3.09,0.073 l 1.731,0.067 0.332,-1.699 c 0.655,-3.357 1.572,-7.551 2.722,-12.471 1.152,-4.939 2.061,-8.688 2.699,-11.146 0.657,-2.519 1.095,-4.368 1.335,-5.654 0.26,-1.394 0.321,-2.791 0.18,-4.161 z"
   id="path3118"
   inkscape:connector-curvature="0" />
<path
   d="m 23.609738,66.80844 c -3.144,0 -5.886,-0.419 -8.233,-1.265 -2.345,-0.842 -4.297,-2.023 -5.8570001,-3.541 -1.561,-1.518 -2.744,-3.323 -3.552,-5.417 -0.808,-2.094 -1.247,-4.401 -1.314,-6.931 h 5.6560001 c 0.156,1.913 0.606,3.572 1.348,4.979 0.739,1.403 1.689,2.564 2.845,3.481 1.156,0.921 2.485,1.596 3.989,2.031 1.505,0.435 3.11,0.652 4.817,0.652 1.659,0 3.169,-0.198 4.528,-0.593 1.357,-0.395 2.519,-0.972 3.485,-1.723 0.964,-0.755 1.711,-1.66 2.238,-2.719 0.527,-1.059 0.791,-2.256 0.791,-3.58 0,-1.379 -0.239,-2.553 -0.723,-3.525 -0.482,-0.968 -1.269,-1.813 -2.357,-2.529 -1.089,-0.711 -2.513,-1.359 -4.275,-1.932 -1.762,-0.573 -3.934,-1.166 -6.516,-1.778 -2.492,-0.64 -4.643,-1.375 -6.449,-2.205 -1.808,-0.826 -3.288,-1.798 -4.4450001,-2.908 -1.156,-1.11 -2.015,-2.378 -2.574,-3.809 -0.563,-1.43 -0.842,-3.09 -0.842,-4.979 0,-2.015 0.379,-3.888 1.144,-5.611 0.763,-1.723 1.841,-3.201 3.2320001,-4.439 1.393,-1.239 3.058,-2.207 5,-2.91 1.942,-0.703004 4.092,-1.053004 6.449,-1.053004 2.491,0 4.763,0.346 6.818,1.033004 2.053,0.689 3.827,1.691 5.318,3.007 1.496,1.314 2.664,2.908 3.503,4.785 0.842,1.877 1.296,4.002 1.365,6.374 h -5.69 c -0.608,-6.097 -4.289,-9.151 -11.046,-9.151 -3.299,0 -5.842,0.699 -7.624,2.09 -1.786,1.391 -2.679,3.271 -2.679,5.646 0,1.071 0.162,1.983 0.49,2.738 0.322,0.75 0.885,1.415 1.681,1.991 0.798,0.573 1.847,1.095 3.147,1.569 1.304,0.474 2.93,0.936 4.882,1.398 1.326,0.304 2.691,0.636 4.093,0.996 1.401,0.355 2.772,0.798 4.107,1.319 1.336,0.522 2.592,1.154 3.77,1.897 1.18,0.739 2.213,1.632 3.1,2.679 0.887,1.047 1.588,2.284 2.102,3.714 0.518,1.43 0.774,3.102 0.774,5.014 0,2.221 -0.409,4.264 -1.227,6.128 -0.82,1.861 -1.966,3.465 -3.436,4.805 -1.47,1.34 -3.214,2.387 -5.235,3.137 -2.018,0.759 -4.218,1.135 -6.598,1.135 z"
   id="path3120"
   inkscape:connector-curvature="0"
   style="fill:#58595b" />
<path
   d="m 60.579738,28.44444 c 2.312,0 4.4,0.435 6.261,1.3 1.863,0.869 3.452,2.125 4.764,3.773 1.313,1.644 2.325,3.655 3.032,6.029 0.708,2.375 1.061,5.066 1.061,8.077 0,3.039 -0.361,5.745 -1.079,8.12 -0.717,2.371 -1.739,4.382 -3.063,6.03 -1.326,1.647 -2.914,2.896 -4.765,3.754 -1.851,0.854 -3.921,1.28 -6.211,1.28 -2.244,0 -4.295,-0.427 -6.146,-1.28 -1.854,-0.857 -3.446,-2.095 -4.781,-3.715 -1.335,-1.624 -2.367,-3.627 -3.096,-6.014 -0.731,-2.387 -1.095,-5.109 -1.095,-8.175 0,-3.011 0.357,-5.709 1.077,-8.096 0.72,-2.387 1.739,-4.398 3.064,-6.03 1.324,-1.636 2.916,-2.884 4.781,-3.753 1.864,-0.865 3.928,-1.3 6.196,-1.3 z m 0,33.234 c 1.346,0 2.58,-0.296 3.705,-0.881 1.122,-0.589 2.086,-1.47 2.894,-2.644 0.808,-1.174 1.435,-2.64 1.887,-4.402 0.449,-1.762 0.672,-3.805 0.672,-6.128 0,-2.319 -0.223,-4.362 -0.672,-6.125 -0.452,-1.762 -1.079,-3.228 -1.887,-4.402 -0.808,-1.173 -1.772,-2.055 -2.894,-2.643 -1.125,-0.589 -2.359,-0.881 -3.705,-0.881 -1.369,0 -2.616,0.292 -3.738,0.881 -1.122,0.588 -2.086,1.47 -2.896,2.643 -0.808,1.174 -1.438,2.64 -1.885,4.402 -0.448,1.762 -0.676,3.805 -0.676,6.125 0,2.323 0.228,4.366 0.676,6.128 0.447,1.762 1.077,3.229 1.885,4.402 0.81,1.173 1.774,2.055 2.896,2.644 1.123,0.585 2.369,0.881 3.738,0.881 z"
   id="path3122"
   inkscape:connector-curvature="0"
   style="fill:#58595b" />
<path
   d="m 88.794738,34.41544 v 31.511 h -5.69 v -31.511 h -4.748 v -5.054 h 4.748 v -3.292 c 0,-7.761 2.997,-11.641004 8.991,-11.641004 0.94,0 1.762,0.045 2.456,0.134 0.696,0.091 1.292,0.209 1.784,0.363 v 5.627004 c -0.583,-0.099 -1.15,-0.178 -1.699,-0.229 -0.549,-0.05 -1.116,-0.075 -1.699,-0.075 -1.46,0 -2.517,0.438 -3.167,1.32 -0.65,0.881 -0.976,2.406 -0.976,4.575 v 3.217 h 6.059 v 5.054 h -6.059 z"
   id="path3124"
   inkscape:connector-curvature="0"
   style="fill:#58595b" />
<path
   d="m 111.86074,65.96644 c -0.63,0.178 -1.286,0.304 -1.972,0.383 -0.684,0.075 -1.395,0.115 -2.138,0.115 -1.707,0 -3.061,-0.237 -4.056,-0.708 -1.001,-0.474 -1.762,-1.182 -2.29,-2.125 -0.53,-0.944 -0.872,-2.118 -1.027,-3.524 -0.158,-1.403 -0.237,-3.035 -0.237,-4.9 v -20.792 h -3.973002 v -5.054 h 3.973002 v -9.112 h 5.726 v 9.112 h 5.251 v 5.054 h -5.251 v 21.1 c 0,1.276 0.073,2.296 0.219,3.063 0.144,0.767 0.352,1.351 0.622,1.758 0.271,0.411 0.593,0.68 0.976,0.806 0.381,0.126 0.82,0.189 1.312,0.189 0.518,0 1.011,-0.023 1.483,-0.075 0.47,-0.051 0.931,-0.114 1.381,-0.189 v 4.899 z"
   id="path3126"
   inkscape:connector-curvature="0"
   style="fill:#58595b" />
<path
   d="m 156.87374,29.36144 -9.627,36.565 h -5.488 l -6.937,-26.916 -6.937,26.916 h -5.522 l -9.697,-36.565 h 6.397 l 5.927,27.876 7.206,-27.876 h 5.251 l 7.272,27.876 5.929,-27.876 h 6.226 z"
   id="path3128"
   inkscape:connector-curvature="0"
   style="fill:#58595b" />
<path
   d="m 181.89074,62.21244 c -3.007,3.066 -6.778,4.596 -11.313,4.596 -1.549,0 -2.985,-0.257 -4.309,-0.767 -1.324,-0.51 -2.481,-1.226 -3.467,-2.142 -0.99,-0.92 -1.762,-2.031 -2.325,-3.331 -0.559,-1.304 -0.84,-2.746 -0.84,-4.327 0,-8.55 6.477,-12.83 19.427,-12.83 h 2.827 c 0,-1.581 -0.045,-2.983 -0.132,-4.208 -0.091,-1.229 -0.377,-2.252 -0.859,-3.082 -0.482,-0.83 -1.252,-1.462 -2.306,-1.896 -1.055,-0.435 -2.537,-0.652 -4.445,-0.652 -5.073,0 -7.699,2.083 -7.879,6.243 h -5.757 c 0.403,-7.583 5.062,-11.372 13.972,-11.372 2.019,0 3.839,0.202 5.455,0.612 1.616,0.407 2.991,1.13 4.125,2.162 1.134,1.035 2.003,2.45 2.61,4.251 0.604,1.798 0.909,4.078 0.909,6.832 v 23.625 h -5.692 v -3.714 z m 0,-5.895 v -8.116 h -3.973 c -8.304,0 -12.457,2.564 -12.457,7.693 0,1.865 0.617,3.295 1.852,4.291 1.235,0.996 2.873,1.494 4.916,1.494 0.944,0 1.88,-0.123 2.811,-0.363 0.931,-0.245 1.82,-0.597 2.661,-1.055 0.842,-0.458 1.622,-1.02 2.339,-1.683 0.719,-0.665 1.336,-1.42 1.851,-2.261 z"
   id="path3130"
   inkscape:connector-curvature="0"
   style="fill:#58595b" />
<path
   d="m 212.73274,35.29644 c -0.808,-0.304 -1.963,-0.458 -3.467,-0.458 -1.479,0 -2.839,0.435 -4.074,1.3 -1.235,0.869 -2.39,2.173 -3.467,3.908 v 25.881 h -5.689 v -36.565 h 5.689 v 5.054 c 2.424,-3.979 5.228,-5.971 8.417,-5.971 0.763,0 1.628,0.103 2.592,0.304 v 6.547 z"
   id="path3132"
   inkscape:connector-curvature="0"
   style="fill:#58595b" />
<path
   d="m 230.34374,66.80844 c -2.335,0 -4.467,-0.427 -6.397,-1.28 -1.932,-0.857 -3.585,-2.106 -4.967,-3.754 -1.383,-1.648 -2.454,-3.659 -3.216,-6.03 -0.763,-2.375 -1.146,-5.082 -1.146,-8.12 0,-2.983 0.371,-5.658 1.112,-8.021 0.741,-2.359 1.772,-4.37 3.098,-6.03 1.324,-1.66 2.918,-2.928 4.781,-3.809 1.863,-0.881 3.906,-1.32 6.129,-1.32 2.312,0 4.397,0.435 6.263,1.3 1.863,0.869 3.449,2.125 4.763,3.773 1.314,1.644 2.323,3.655 3.031,6.029 0.707,2.375 1.061,5.066 1.061,8.077 v 1.573 h -24.244 c 0.137,2.118 0.466,3.955 0.994,5.512 0.527,1.557 1.223,2.853 2.086,3.888 0.866,1.031 1.857,1.806 2.979,2.315 1.124,0.51 2.345,0.767 3.673,0.767 0.942,0 1.885,-0.146 2.827,-0.442 0.942,-0.292 1.79,-0.719 2.542,-1.28 0.751,-0.561 1.363,-1.26 1.833,-2.09 0.474,-0.826 0.719,-1.778 0.743,-2.849 h 5.992 c -0.247,1.889 -0.769,3.564 -1.566,5.034 -0.796,1.466 -1.806,2.699 -3.029,3.695 -1.223,0.995 -2.634,1.754 -4.226,2.275 -1.593,0.525 -3.3,0.787 -5.116,0.787 z m 8.45,-22.744 c -0.448,-3.469 -1.488,-6.089 -3.114,-7.847 -1.628,-1.762 -3.609,-2.644 -5.942,-2.644 -1.146,0 -2.223,0.217 -3.232,0.652 -1.011,0.435 -1.911,1.087 -2.695,1.952 -0.784,0.869 -1.448,1.96 -1.985,3.275 -0.54,1.312 -0.921,2.849 -1.146,4.611 h 18.114 z"
   id="path3134"
   inkscape:connector-curvature="0"
   style="fill:#58595b" />
<path
   d="m 615.05774,61.68744 c -1.342,0.041 -1.848,0.041 -3.292,0 l -0.983,-0.028 -0.054,0.984 c -0.023,0.405 -0.037,0.852 -0.047,1.338 -0.011,0.462 -0.044,1.084 -0.104,1.872 l -0.081,1.116 1.118,-0.031 c 1.342,-0.039 1.861,-0.041 3.265,0 l 0.956,0.027 0.079,-0.954 c 0.041,-0.489 0.07,-1.012 0.093,-1.572 0.018,-0.532 0.047,-1.091 0.087,-1.673 l 0.073,-1.11 -1.11,0.031 z"
   id="path3136"
   inkscape:connector-curvature="0"
   style="fill:#0095da" />
<path
   d="m 634.00574,63.97444 c -1.906,0.33 -3.638,0.204 -5.214,-0.355 -0.986,-0.354 -1.817,-0.859 -2.478,-1.51 -0.644,-0.628 -1.122,-1.47 -1.421,-2.503 -0.323,-1.112 -0.487,-2.325 -0.487,-3.609 0,-1.206 0.15,-2.424 0.444,-3.622 0.284,-1.15 0.769,-2.203 1.438,-3.131 0.657,-0.911 1.464,-1.598 2.464,-2.096 1.47,-0.729 3.177,-0.933 5.581,-0.561 0.778,0.126 1.887,0.411 3.295,0.846 l 1.553,0.48 -0.255,-1.604 c -0.076,-0.476 -0.122,-0.924 -0.134,-1.345 l -0.021,-0.727 -0.696,-0.211 c -1.8,-0.547 -3.72,-0.826 -5.707,-0.826 -2.8,0 -5.076,0.604 -6.763,1.796 -1.686,1.181 -2.928,2.817 -3.694,4.858 -0.735,1.956 -1.106,4.044 -1.106,6.208 0,1.604 0.239,3.157 0.711,4.615 0.49,1.511 1.257,2.793 2.284,3.816 1.018,1.01 2.256,1.753 3.679,2.209 1.367,0.437 2.851,0.66 4.405,0.66 1.589,0 3.333,-0.184 5.185,-0.543 l 0.725,-0.143 0.087,-0.735 c 0.052,-0.456 0.145,-0.948 0.274,-1.481 l 0.417,-1.717 -1.691,0.51 c -1.172,0.35 -2.138,0.593 -2.875,0.721 z"
   id="path3138"
   inkscape:connector-curvature="0"
   style="fill:#0095da" />
<path
   d="m 662.11674,49.73444 c -0.545,-1.566 -1.352,-2.862 -2.402,-3.847 -1.049,-0.985 -2.271,-1.691 -3.635,-2.098 -3.302,-0.978 -6.927,-0.741 -9.956,0.853 -1.872,0.988 -3.297,2.543 -4.231,4.621 -0.897,1.996 -1.352,4.222 -1.352,6.619 0,1.379 0.178,2.723 0.531,3.995 0.36,1.306 0.903,2.46 1.612,3.428 0.705,0.962 1.547,1.76 2.499,2.376 0.937,0.604 1.962,1.044 3.053,1.305 1.043,0.249 2.124,0.375 3.215,0.375 1.551,0 3.038,-0.237 4.421,-0.705 1.442,-0.488 2.717,-1.338 3.785,-2.525 1.046,-1.155 1.859,-2.605 2.423,-4.311 0.551,-1.667 0.829,-3.432 0.829,-5.246 0,-1.695 -0.266,-3.323 -0.792,-4.84 z m -13.454,13.98 c -0.838,-0.277 -1.636,-0.791 -2.377,-1.525 -0.744,-0.737 -1.27,-1.624 -1.609,-2.708 -0.354,-1.13 -0.534,-2.361 -0.534,-3.653 0,-1.85 0.316,-3.57 0.938,-5.113 0.591,-1.464 1.48,-2.517 2.721,-3.222 1.272,-0.723 2.669,-1.088 4.154,-1.088 0.994,0 1.975,0.142 2.915,0.42 0.881,0.261 1.679,0.723 2.374,1.375 0.691,0.65 1.191,1.506 1.527,2.612 0.355,1.169 0.535,2.439 0.535,3.775 0,1.456 -0.186,2.849 -0.553,4.143 -0.35,1.237 -0.897,2.286 -1.632,3.122 -0.728,0.834 -1.541,1.411 -2.485,1.76 -1.827,0.678 -4.095,0.732 -5.974,0.102 z"
   id="path3140"
   inkscape:connector-curvature="0"
   style="fill:#0095da" />
<path
   d="m 696.73474,46.19244 c -0.684,-1.061 -1.657,-1.843 -2.899,-2.326 -1.919,-0.735 -4.149,-0.867 -6.143,-0.361 -0.803,0.204 -1.543,0.484 -2.201,0.837 -0.676,0.362 -1.269,0.791 -1.76,1.276 -0.338,0.332 -0.633,0.664 -0.878,0.992 -0.195,-0.359 -0.44,-0.705 -0.742,-1.049 -0.392,-0.44 -0.878,-0.84 -1.44,-1.18 -0.554,-0.34 -1.229,-0.624 -2.008,-0.847 -1.669,-0.48 -3.602,-0.437 -5.305,0.089 -0.92,0.282 -1.754,0.686 -2.475,1.193 -0.37,0.261 -0.706,0.533 -1.006,0.813 l 0.101,-2.054 -1.124,0.067 c -0.502,0.026 -0.99,0.026 -1.508,0 l -1.068,-0.061 v 1.071 c 0,0.727 -0.008,1.6 -0.021,2.596 l -0.544,14.035 c -0.029,0.569 -0.063,1.136 -0.104,1.697 l -0.322,3.993 1.132,-0.036 c 0.704,-0.023 0.927,-0.023 1.62,0 l 1.045,0.033 v -1.045 c 0,-2.151 0.069,-4.801 0.206,-7.873 0.124,-2.75 0.294,-4.668 0.506,-5.698 0.245,-1.16 0.559,-2.09 0.937,-2.764 0.367,-0.658 0.819,-1.221 1.345,-1.669 0.521,-0.444 1.129,-0.796 1.809,-1.043 1.3,-0.468 2.835,-0.496 4,-0.065 0.542,0.202 0.969,0.462 1.313,0.802 0.331,0.324 0.564,0.686 0.713,1.104 0.108,0.304 0.237,0.909 0.237,2.061 0,1.096 -0.042,2.479 -0.125,4.143 l -0.259,5.32 c -0.069,1.825 -0.176,3.694 -0.317,5.606 l -0.083,1.123 1.126,-0.036 c 0.703,-0.023 0.926,-0.023 1.62,0 l 1.015,0.031 0.266,-9.436 c 0.082,-2.641 0.229,-4.48 0.438,-5.474 0.229,-1.126 0.523,-2.009 0.869,-2.622 0.338,-0.599 0.772,-1.12 1.29,-1.551 0.529,-0.438 1.13,-0.78 1.786,-1.02 1.124,-0.405 2.566,-0.466 3.737,-0.188 0.469,0.113 0.859,0.259 1.176,0.444 0.301,0.17 0.563,0.377 0.776,0.613 0.202,0.221 0.357,0.456 0.463,0.699 0.106,0.247 0.176,0.506 0.207,0.767 0.037,0.326 0.058,0.715 0.058,1.16 0,0.925 -0.044,2.1 -0.125,3.524 l -0.315,5.795 c -0.129,2.395 -0.255,4.449 -0.382,6.171 l -0.081,1.121 1.124,-0.036 c 0.703,-0.023 0.927,-0.023 1.62,0 l 1.037,0.033 0.008,-1.039 c 0.015,-1.995 0.081,-4.311 0.198,-6.877 0.118,-2.566 0.227,-4.546 0.326,-5.935 0.101,-1.43 0.147,-2.497 0.147,-3.2 -0.003,-1.423 -0.345,-2.677 -1.016,-3.724 z"
   id="path3142"
   inkscape:connector-curvature="0"
   style="fill:#0095da" />
<linearGradient
   id="SVGID_1_"
   gradientUnits="userSpaceOnUse"
   x1="356.13571"
   y1="237.4429"
   x2="358.15881"
   y2="296.1113"
   gradientTransform="translate(-54.491262,-235.07261)">
	<stop
   offset="0.0909"
   style="stop-color:#000000"
   id="stop3145" />
	<stop
   offset="0.2303"
   style="stop-color:#000C4D"
   id="stop3147" />
	<stop
   offset="0.8364"
   style="stop-color:#0075BF"
   id="stop3149" />
</linearGradient>
<path
   d="m 358.28774,25.28344 c -0.136,-0.47 -0.296,-0.92 -0.48,-1.381 l -0.354,-0.81 c -0.154,-0.32 -0.316,-0.636 -0.492,-0.918 -0.35,-0.587 -0.785,-1.15 -1.34,-1.733 -0.478,-0.498 -1.051,-0.99 -1.57,-1.355 -1.905,-1.33 -3.633,-1.901 -5.133,-2.339 -1.304,-0.361 -2.625,-0.62 -4.295,-0.84 -2.197,-0.276 -4.503,-0.405 -7.259,-0.405 l -0.488,0.002 c -4.356,0.04 -8.904,0.381 -14.316,1.077 -4.336,0.561 -8.843,1.326 -13.396,2.27 -3.185,0.664 -6.279,1.391 -9.238,2.166 l 1.25,-4.161 0.073,-0.363 c 0.089,-0.818 -0.285,-1.741004 -0.285,-1.741004 -1.697,-4.066 -4.25,-4.91901 -6.091,-4.91901 -2.296,0 -4.143,1.37101 -4.704,1.86101 -0.686,0.5 -0.938,0.974 -1.106,1.531 l -3.74,12.457004 -0.062,0.023 c -4.111,1.612 -7.647,3.367 -10.226,5.07 -1.489,0.984 -2.524,1.851 -3.133,2.406 -0.603,0.553 -1.009,0.998 -1.201,1.211 l -0.255,0.302 c -0.403,0.585 -0.662,1.545 -0.697,1.845 -0.186,1.207 -0.138,2.371 0.136,3.367 0.283,1.018 0.785,1.845 1.476,2.45 0.705,0.628 1.45,0.875 1.983,1.016 0.435,0.106 0.885,0.16 1.335,0.16 0.126,0 0.253,-0.004 0.3,-0.008 l 0.516,-0.02 c 0.401,-0.012 0.729,-0.045 1.136,0.002 l 0.387,0.042 c 0.407,0.043 0.769,0.079 1.084,0.089 l 0.267,0.014 c 0.46,0 1.118,-0.128 1.669,-0.731 l 0.073,-0.081 c 0.02,-0.023 0.051,-0.059 0.099,-0.106 l -6.354,21.175 c -1.525,0.48 -3.195,0.996 -4.864,1.496 -2.736,0.834 -5.455,1.599 -7.45,2.161 -1.409,0.396 -2.424,0.682 -3.139,0.963 l -0.004,-0.011 c -2.687,0.801 -4.611,1.407 -6.053,1.913 -2.067,0.725 -3.24,1.234 -3.91,1.987 -0.614,0.672 -0.824,1.566 -0.561,2.393 0.514,1.603 2.422,2.009 3.151,2.163 1.859,0.39 4.676,0.488 8.586,0.235 3.521,-0.137 7.334,-0.531 10.538,-0.938 l -0.041,0.137 c -3.62,15.331 -4.858,20.57799 -5.06,22.65798 l -0.033,-0.006 c -1.826,9.69399 -0.854,10.86599 -0.273,11.56699 0.46,0.556 1.128,0.873 1.835,0.873 0,0 0,0 0.002,0 1.786,0 3.185,-1.389 6.721,-9.56199 3.876,-8.37699 8.505,-20.69298 8.596,-20.94398 l 2.136,-7.112 c 1.221,-0.328 3.105,-0.838 5.49,-1.512 l 7.792,-2.301 c 3.451,-1.06 6.869,-2.168 10.161,-3.294 5.619,-1.93 14.126,-4.984 23.091,-9.19 4.793,-2.266 8.703,-4.382 12.311,-6.662 2.323,-1.478 4.329,-2.916 6.136,-4.396 2.442,-2.009 4.303,-3.894 5.86,-5.938 1.035,-1.365 1.851,-2.717 2.499,-4.131 0.8,-1.747 1.294,-3.536 1.474,-5.314 0.202,-1.958 0.007,-3.991 -0.56,-5.86 z m -11.992,4.311 c 0.023,0.711 -0.354,1.707 -1.036,2.736 -0.771,1.166 -1.918,2.418 -3.41,3.724 -1.31,1.148 -2.875,2.325 -4.651,3.501 -2.985,1.976 -6.448,3.916 -10.585,5.927 -8.084,3.91 -16.024,6.83 -21.288,8.683 -5.484,1.92 -11.054,3.696 -16.993,5.417 l 7.256,-24.145 c 4.764,-1.543 10.088,-2.939 15.845,-4.157 4.157,-0.867 8.284,-1.576 12.263,-2.112 4.712,-0.62 8.839,-0.956 12.606,-1.029 l 1.103,-0.008 c 1.849,0 3.461,0.073 4.925,0.221 1.008,0.109 1.887,0.249 2.636,0.423 0.518,0.115 0.964,0.251 1.282,0.372 0.029,0.147 0.045,0.295 0.047,0.447 z"
   id="path3151"
   style="fill:url(#SVGID_1_)"
   inkscape:connector-curvature="0" />
<g
   id="g3153"
   transform="translate(-54.491262,-235.07261)">
	<path
   d="m 753.403,255.8 c 0,-0.17 0.069,-0.32 0.211,-0.449 0.139,-0.13 0.332,-0.195 0.577,-0.195 h 10.704 c 0.247,0 0.438,0.065 0.579,0.195 0.14,0.128 0.211,0.279 0.211,0.449 0,0.182 -0.071,0.34 -0.211,0.476 -0.141,0.134 -0.332,0.202 -0.579,0.202 h -4.233 v 10.878 c 0,0.162 -0.109,0.291 -0.328,0.383 -0.22,0.093 -0.479,0.14 -0.776,0.14 -0.299,0 -0.558,-0.047 -0.776,-0.14 -0.22,-0.093 -0.328,-0.221 -0.328,-0.383 v -10.878 h -4.262 c -0.245,0 -0.438,-0.063 -0.577,-0.194 -0.142,-0.13 -0.212,-0.29 -0.212,-0.484 z"
   id="path3155"
   inkscape:connector-curvature="0" />
	<path
   d="M 767.92,267.358 V 255.87 c 0,-0.477 0.37,-0.713 1.104,-0.713 0.701,0 1.29,0.308 1.763,0.922 l 4.129,5.24 4.155,-5.24 c 0.509,-0.614 1.096,-0.922 1.762,-0.922 0.737,0 1.104,0.237 1.104,0.713 v 11.488 c 0,0.162 -0.108,0.291 -0.328,0.383 -0.219,0.093 -0.478,0.138 -0.776,0.138 -0.298,0 -0.555,-0.045 -0.774,-0.138 -0.219,-0.093 -0.33,-0.221 -0.33,-0.383 v -9.14 l -3.971,4.945 c -0.21,0.267 -0.5,0.399 -0.867,0.399 -0.334,0 -0.604,-0.132 -0.816,-0.399 l -3.945,-5.014 v 9.208 c 0,0.162 -0.108,0.291 -0.328,0.383 -0.219,0.093 -0.478,0.138 -0.776,0.138 -0.298,0 -0.557,-0.045 -0.774,-0.138 -0.223,-0.092 -0.332,-0.22 -0.332,-0.382 z"
   id="path3157"
   inkscape:connector-curvature="0" />
</g>
</svg>