<?xml version="1.0" encoding="utf-8"?>
<!-- Generator: Adobe Illustrator 15.1.0, SVG Export Plug-In . SVG Version: 6.00 Build 0)  -->
<!DOCTYPE svg PUBLIC "-//W3C//DTD SVG 1.1//EN" "http://www.w3.org/Graphics/SVG/1.1/DTD/svg11.dtd">
<svg version="1.1" id="Layer_1" xmlns="http://www.w3.org/2000/svg" xmlns:xlink="http://www.w3.org/1999/xlink" x="0px" y="0px"
	 width="21px" height="21px" viewBox="0 0 21 21" enable-background="new 0 0 21 21" xml:space="preserve">
<g>
	<path fill="#414141" d="M14.878,10.766c-0.323-0.869-1.013-1.558-1.88-1.881V6.763h-2.233v2.122
		c-0.868,0.323-1.557,1.012-1.88,1.881H6.764v2.231h2.122c0.323,0.867,1.012,1.556,1.88,1.88V17h2.233v-2.123
		c0.867-0.324,1.558-1.013,1.88-1.88H17v-2.231H14.878z M11.882,12.997c-0.616,0-1.117-0.499-1.117-1.116
		c0-0.615,0.5-1.115,1.117-1.115c0.617,0,1.116,0.5,1.116,1.115C12.998,12.498,12.498,12.997,11.882,12.997z"/>
	
		<rect x="7.375" y="7.213" transform="matrix(0.707 -0.7072 0.7072 0.707 -3.4419 8.3127)" fill="#414141" width="1.871" height="2.193"/>
	
		<rect x="4.5" y="4.341" transform="matrix(-0.7071 0.7071 -0.7071 -0.7071 13.1246 5.4381)" fill="#414141" width="1.871" height="2.193"/>
	
		<rect x="4.341" y="7.374" transform="matrix(-0.7073 0.7069 -0.7069 -0.7073 15.1568 10.3443)" fill="#414141" width="2.192" height="1.871"/>
	
		<rect x="7.376" y="4.34" transform="matrix(-0.707 -0.7072 0.7072 -0.707 10.3424 15.1576)" fill="#414141" width="1.871" height="2.193"/>
</g>
</svg>
