<?xml version="1.0" encoding="utf-8"?>
<!-- Generator: Adobe Illustrator 20.0.0, SVG Export Plug-In . SVG Version: 6.00 Build 0)  -->
<svg version="1.1" id="Layer_1" xmlns="http://www.w3.org/2000/svg" xmlns:xlink="http://www.w3.org/1999/xlink" x="0px" y="0px"
	 viewBox="0 0 16 16" style="enable-background:new 0 0 16 16;" xml:space="preserve">
<style type="text/css">
	.st0{fill:#414141;}
</style>
<path class="st0" d="M15.6,13.9l-4.2-4.1c0.8-1,1.2-2.3,1.2-3.6C12.7,2.8,9.8,0,6.3,0C2.8,0,0,2.8,0,6.2c0,3.4,2.8,6.2,6.3,6.2
	c1.2,0,2.3-0.3,3.3-0.9l4.3,4.2c0.5,0.5,1.2,0.5,1.7,0l0,0C16.1,15.2,16.1,14.4,15.6,13.9z M1.8,6.2c0-2.4,2-4.4,4.5-4.4
	c2.5,0,4.5,2,4.5,4.4c0,2.4-2,4.4-4.5,4.4C3.8,10.6,1.8,8.6,1.8,6.2z"/>
</svg>
