<?xml version="1.0" encoding="utf-8"?>
<!-- Generator: Adobe Illustrator 15.1.0, SVG Export Plug-In . SVG Version: 6.00 Build 0)  -->
<!DOCTYPE svg PUBLIC "-//W3C//DTD SVG 1.1//EN" "http://www.w3.org/Graphics/SVG/1.1/DTD/svg11.dtd">
<svg version="1.1" id="Layer_1" xmlns="http://www.w3.org/2000/svg" xmlns:xlink="http://www.w3.org/1999/xlink" x="0px" y="0px"
	 width="18px" height="18px" viewBox="0 0 18 18" enable-background="new 0 0 18 18" xml:space="preserve">
<rect fill="#EF5369" width="18" height="18"/>
<g>
	<path fill="#FFFFFF" d="M13.084,8.27l-6.32-3.657c-0.263-0.149-0.58-0.149-0.84,0C5.661,4.763,5.5,5.041,5.5,5.345v7.313
		c0,0.299,0.161,0.576,0.424,0.729c0.131,0.076,0.274,0.113,0.42,0.113c0.147,0,0.293-0.037,0.42-0.111l6.319-3.656
		C13.342,9.58,13.5,9.303,13.5,9S13.342,8.419,13.084,8.27z"/>
	<path fill="#FFFFFF" d="M13.084,9.73l-6.318,3.655C6.637,13.463,6.492,13.5,6.344,13.5c-0.146,0-0.289-0.037-0.42-0.111
		C5.661,13.234,5.5,12.957,5.5,12.658V5.345c0-0.304,0.161-0.582,0.424-0.732c0.262-0.149,0.578-0.149,0.84,0l6.32,3.657
		C13.342,8.419,13.5,8.697,13.5,9S13.342,9.58,13.084,9.73z"/>
</g>
</svg>
