<?xml version="1.0" encoding="utf-8"?>
<!-- Generator: Adobe Illustrator 15.1.0, SVG Export Plug-In . SVG Version: 6.00 Build 0)  -->
<!DOCTYPE svg PUBLIC "-//W3C//DTD SVG 1.1//EN" "http://www.w3.org/Graphics/SVG/1.1/DTD/svg11.dtd">
<svg version="1.1" id="Layer_1" xmlns="http://www.w3.org/2000/svg" xmlns:xlink="http://www.w3.org/1999/xlink" x="0px" y="0px"
	 width="18px" height="18px" viewBox="0 0 18 18" enable-background="new 0 0 18 18" xml:space="preserve">
<rect fill="#004C6C" width="18" height="18"/>
<g>
	<path fill="#FFFFFF" d="M10.71,4.549L10.686,4.98h0.5c0.229,0,0.385,0.027,0.469,0.077c0.084,0.052,0.129,0.112,0.129,0.185
		c0,0.14-0.396,0.669-1.204,1.591L9.559,7.941L8.79,6.488c-0.235-0.453-0.394-0.78-0.476-0.976C8.273,5.407,8.252,5.315,8.252,5.233
		c0-0.079,0.046-0.141,0.141-0.185C8.493,5.002,8.688,4.98,8.988,4.98h0.294V4.549C8.771,4.578,8.111,4.596,7.295,4.596
		c-0.878,0-1.598-0.018-2.165-0.047l-0.078,0.43h0.471c0.31,0,0.53,0.06,0.653,0.18C6.303,5.276,6.604,5.79,7.081,6.698l1.306,2.5
		L7.768,9.876l-1.201,1.295l-1.482,1.634c-0.154,0.146-0.395,0.217-0.721,0.217H4.038L3.97,13.452
		c0.563-0.04,1.123-0.063,1.678-0.063c0.545,0,1.144,0.022,1.799,0.063l0.019-0.431H7.02c-0.283,0-0.473-0.028-0.561-0.082
		c-0.088-0.057-0.132-0.135-0.132-0.241c0-0.041,0.021-0.104,0.063-0.193c0.043-0.087,0.195-0.293,0.467-0.623
		c0.477-0.577,0.805-0.963,0.99-1.153L8.701,9.8l1.104,2.106c0.217,0.414,0.322,0.688,0.322,0.816c0,0.098-0.034,0.172-0.104,0.223
		c-0.07,0.053-0.211,0.076-0.42,0.076H9.079l-0.022,0.431c0.758-0.04,1.44-0.063,2.055-0.063c0.611,0,1.256,0.022,1.933,0.063
		l0.069-0.431h-0.26c-0.359,0-0.586-0.045-0.672-0.144c-0.091-0.094-0.453-0.758-1.086-1.987L9.866,8.536l1.271-1.381
		c1.028-1.116,1.68-1.774,1.952-1.979c0.164-0.132,0.413-0.198,0.74-0.198h0.219l0.072-0.431c-0.577,0.029-1.149,0.047-1.726,0.047
		C11.835,4.596,11.271,4.578,10.71,4.549z"/>
</g>
</svg>
