<?xml version="1.0" encoding="UTF-8" standalone="no"?>
<!-- Created with Inkscape (http://www.inkscape.org/) -->

<svg
   xmlns:dc="http://purl.org/dc/elements/1.1/"
   xmlns:cc="http://creativecommons.org/ns#"
   xmlns:rdf="http://www.w3.org/1999/02/22-rdf-syntax-ns#"
   xmlns:svg="http://www.w3.org/2000/svg"
   xmlns="http://www.w3.org/2000/svg"
   xmlns:sodipodi="http://sodipodi.sourceforge.net/DTD/sodipodi-0.dtd"
   xmlns:inkscape="http://www.inkscape.org/namespaces/inkscape"
   width="5.3622222mm"
   height="5.3368878mm"
   viewBox="0 0 19 18.910232"
   id="svg6148"
   version="1.1"
   inkscape:version="0.91pre3 r13670"
   sodipodi:docname="cast_activityTypeCreateUser.svg">
  <defs
     id="defs6150" />
  <sodipodi:namedview
     id="base"
     pagecolor="#ffffff"
     bordercolor="#666666"
     borderopacity="1.0"
     inkscape:pageopacity="0.0"
     inkscape:pageshadow="2"
     inkscape:zoom="1"
     inkscape:cx="-388.35714"
     inkscape:cy="-153.40203"
     inkscape:document-units="px"
     inkscape:current-layer="layer1"
     showgrid="false"
     fit-margin-top="0"
     fit-margin-left="0"
     fit-margin-right="0"
     fit-margin-bottom="0"
     inkscape:window-width="1920"
     inkscape:window-height="1017"
     inkscape:window-x="1912"
     inkscape:window-y="-8"
     inkscape:window-maximized="1" />
  <metadata
     id="metadata6153">
    <rdf:RDF>
      <cc:Work
         rdf:about="">
        <dc:format>image/svg+xml</dc:format>
        <dc:type
           rdf:resource="http://purl.org/dc/dcmitype/StillImage" />
        <dc:title></dc:title>
      </cc:Work>
    </rdf:RDF>
  </metadata>
  <g
     inkscape:label="Layer 1"
     inkscape:groupmode="layer"
     id="layer1"
     transform="translate(-327.64285,199.95006)">
    <g
       id="g6708">
      <rect
         ry="1.7977291"
         y="-199.03983"
         x="327.64285"
         height="18"
         width="19"
         id="rect3030-1"
         style="fill:#cd5303;fill-opacity:1;stroke:none" />
      <rect
         ry="1.7977291"
         y="-199.95006"
         x="327.64285"
         height="18"
         width="19"
         id="rect3030"
         style="fill:#ff6600;fill-opacity:1;stroke:none" />
      <path
         style="fill:#803300;fill-opacity:1"
         sodipodi:nodetypes="ccccccccccccc"
         inkscape:connector-curvature="0"
         d="m 344.93674,-195.71968 0,-0.95513 -1.42416,0 0,-1.42416 -0.95513,0 0,1.42416 -1.43269,0 0,0.95513 1.43269,0 0,1.43269 0.95513,0 0,-1.43269 z"
         id="path3071-4-4" />
      <path
         sodipodi:nodetypes="ccccccsssc"
         inkscape:connector-curvature="0"
         d="m 332.02294,-185.90175 10.23984,-0.0238 c -0.0883,-1.24961 -0.55696,-3.53224 -2.73083,-4.59262 -1.54931,1.22777 -3.44903,1.13454 -4.80205,-0.0127 -2.02625,1.07375 -2.69338,3.07439 -2.70696,4.62915 z m 7.90066,-7.29201 c 0,1.54895 -1.24497,2.80462 -2.78074,2.80462 -1.53577,0 -2.78075,-1.25567 -2.78075,-2.80462 0,-1.54895 1.24498,-2.80462 2.78075,-2.80462 1.53173,0 2.77504,1.24934 2.78072,2.79421"
         style="fill:#803300;fill-opacity:1;stroke:none"
         id="path3135-1-9" />
    </g>
  </g>
</svg>
