<?xml version="1.0" encoding="UTF-8" standalone="no"?>
<!-- Created with Inkscape (http://www.inkscape.org/) -->

<svg
   xmlns:dc="http://purl.org/dc/elements/1.1/"
   xmlns:cc="http://creativecommons.org/ns#"
   xmlns:rdf="http://www.w3.org/1999/02/22-rdf-syntax-ns#"
   xmlns:svg="http://www.w3.org/2000/svg"
   xmlns="http://www.w3.org/2000/svg"
   xmlns:sodipodi="http://sodipodi.sourceforge.net/DTD/sodipodi-0.dtd"
   xmlns:inkscape="http://www.inkscape.org/namespaces/inkscape"
   width="5.3622222mm"
   height="5.3368835mm"
   viewBox="0 0 19 18.910217"
   id="svg6576"
   version="1.1"
   inkscape:version="0.91pre3 r13670"
   sodipodi:docname="cast_activityTypeDeleteUser.svg">
  <defs
     id="defs6578" />
  <sodipodi:namedview
     id="base"
     pagecolor="#ffffff"
     bordercolor="#666666"
     borderopacity="1.0"
     inkscape:pageopacity="0.0"
     inkscape:pageshadow="2"
     inkscape:zoom="2.8"
     inkscape:cx="146.63015"
     inkscape:cy="-89.663245"
     inkscape:document-units="px"
     inkscape:current-layer="layer1"
     showgrid="false"
     fit-margin-top="0"
     fit-margin-left="0"
     fit-margin-right="0"
     fit-margin-bottom="0"
     inkscape:window-width="1920"
     inkscape:window-height="1017"
     inkscape:window-x="1912"
     inkscape:window-y="-8"
     inkscape:window-maximized="1" />
  <metadata
     id="metadata6581">
    <rdf:RDF>
      <cc:Work
         rdf:about="">
        <dc:format>image/svg+xml</dc:format>
        <dc:type
           rdf:resource="http://purl.org/dc/dcmitype/StillImage" />
        <dc:title></dc:title>
      </cc:Work>
    </rdf:RDF>
  </metadata>
  <g
     inkscape:label="Layer 1"
     inkscape:groupmode="layer"
     id="layer1"
     transform="translate(66.642856,-114.33567)">
    <g
       id="g7138">
      <g
         transform="translate(-139.25864,1.9888581)"
         id="g4085-6-8">
        <rect
           style="fill:#cd5303;fill-opacity:1;stroke:none"
           id="rect3030-1-2-3-4"
           width="19"
           height="18"
           x="72.615784"
           y="113.25703"
           ry="1.7977291" />
        <rect
           style="fill:#ff6600;fill-opacity:1;stroke:none"
           id="rect3030-3-6-2"
           width="19"
           height="18"
           x="72.615784"
           y="112.34681"
           ry="1.7977291" />
      </g>
      <path
         style="fill:#803300"
         sodipodi:nodetypes="ccccccccccccc"
         inkscape:connector-curvature="0"
         d="m -48.981896,116.60951 -0.86919,-0.86919 -1.29603,1.29602 -1.29602,-1.29602 -0.86919,0.86919 1.29603,1.29602 -1.30379,1.30379 0.86919,0.86919 1.30378,-1.30379 1.30379,1.30379 0.86919,-0.86919 -1.30378,-1.30379 z"
         id="path3071-9-9-5" />
      <path
         sodipodi:nodetypes="ccccccsssc"
         inkscape:connector-curvature="0"
         d="m -62.262776,128.20064 10.23984,-0.0238 c -0.0883,-1.24961 -0.55696,-3.53224 -2.73083,-4.59262 -1.54931,1.22777 -3.44903,1.13454 -4.80205,-0.0127 -2.02625,1.07375 -2.69338,3.07439 -2.70696,4.62915 z m 7.90066,-7.29201 c 0,1.54895 -1.24497,2.80462 -2.78074,2.80462 -1.53577,0 -2.78075,-1.25567 -2.78075,-2.80462 0,-1.54895 1.24498,-2.80462 2.78075,-2.80462 1.53173,0 2.77504,1.24934 2.78072,2.79421"
         style="fill:#803300;fill-opacity:1;stroke:none"
         id="path3135-1-9" />
    </g>
  </g>
</svg>
