<?xml version="1.0" encoding="utf-8"?>
<!-- Generator: Adobe Illustrator 15.1.0, SVG Export Plug-In . SVG Version: 6.00 Build 0)  -->
<!DOCTYPE svg PUBLIC "-//W3C//DTD SVG 1.1//EN" "http://www.w3.org/Graphics/SVG/1.1/DTD/svg11.dtd">
<svg version="1.1" id="Layer_1" xmlns="http://www.w3.org/2000/svg" xmlns:xlink="http://www.w3.org/1999/xlink" x="0px" y="0px"
	 width="18px" height="18px" viewBox="0 0 18 18" enable-background="new 0 0 18 18" xml:space="preserve">
<rect fill="#0089CF" width="18" height="18"/>
<path fill="#FFFFFF" d="M14.898,6.115c0-0.531-0.207-1.031-0.584-1.405l-0.859-0.86c-0.376-0.378-0.876-0.583-1.406-0.583
	c-0.531,0-1.031,0.205-1.406,0.583L8.863,5.627C8.15,6.341,8.102,7.46,8.7,8.24L8.359,8.581C8.014,8.314,7.596,8.163,7.152,8.163
	c-0.531,0-1.031,0.207-1.406,0.583l-1.779,1.779C3.592,10.9,3.384,11.398,3.384,11.93c0,0.532,0.207,1.031,0.583,1.405l0.861,0.86
	c0.376,0.379,0.875,0.584,1.406,0.584s1.029-0.205,1.406-0.584l1.778-1.777c0.712-0.714,0.761-1.833,0.163-2.613l0.343-0.341
	c0.347,0.269,0.763,0.418,1.207,0.418c0.531,0,1.03-0.206,1.405-0.582l1.779-1.78C14.691,7.146,14.898,6.646,14.898,6.115z
	 M8.5,11.5l-1.779,1.779c-0.26,0.261-0.715,0.261-0.976,0l-0.861-0.86c-0.13-0.131-0.202-0.303-0.202-0.487
	c0-0.184,0.072-0.355,0.202-0.486l1.78-1.778c0.13-0.132,0.303-0.202,0.488-0.202c0.095,0,0.187,0.02,0.271,0.057l-1.039,1.039
	c-0.252,0.25-0.251,0.658,0,0.909l0.313,0.314c0.251,0.25,0.66,0.25,0.91,0l1.041-1.04C8.753,10.994,8.705,11.296,8.5,11.5z
	 M13.398,6.604l-1.781,1.78c-0.195,0.195-0.504,0.241-0.754,0.142l0.729-0.729c0.251-0.251,0.25-0.66,0-0.911l-0.313-0.313
	c-0.252-0.252-0.659-0.252-0.91,0L9.637,7.302c-0.107-0.251-0.06-0.553,0.146-0.757l1.777-1.779c0.131-0.13,0.306-0.201,0.488-0.201
	c0.184,0,0.357,0.071,0.487,0.201l0.862,0.86C13.527,5.759,13.6,5.931,13.6,6.115C13.6,6.299,13.527,6.473,13.398,6.604z"/>
</svg>
