<?xml version="1.0" encoding="utf-8"?>
<!-- Generator: Adobe Illustrator 15.1.0, SVG Export Plug-In . SVG Version: 6.00 Build 0)  -->
<!DOCTYPE svg PUBLIC "-//W3C//DTD SVG 1.1//EN" "http://www.w3.org/Graphics/SVG/1.1/DTD/svg11.dtd">
<svg version="1.1" id="Layer_1" xmlns="http://www.w3.org/2000/svg" xmlns:xlink="http://www.w3.org/1999/xlink" x="0px" y="0px"
	 width="18px" height="18px" viewBox="0 0 18 18" enable-background="new 0 0 18 18" xml:space="preserve">
<rect fill="#6D9ED4" width="18" height="18"/>
<g>
	<rect x="10.504" y="5" transform="matrix(0.7061 0.7081 -0.7081 0.7061 7.836 -5.8808)" fill="#FFFFFF" width="0.999" height="3"/>
	
		<rect x="5.501" y="10.001" transform="matrix(-0.7081 -0.7061 0.7061 -0.7081 2.1298 23.8824)" fill="#FFFFFF" width="1.001" height="3"/>
	<rect x="9.5" y="11" transform="matrix(-0.7071 -0.7071 0.7071 -0.7071 10.6464 27.4099)" fill="#FFFFFF" width="3" height="1"/>
	<rect x="4.5" y="6" transform="matrix(-0.7073 -0.7069 0.7069 -0.7073 5.649 15.3401)" fill="#FFFFFF" width="3" height="1.002"/>
	<rect x="8" y="3" fill="#FFFFFF" width="1" height="4"/>
	<rect x="8" y="11.001" fill="#FFFFFF" width="1" height="3.999"/>
	<rect x="10.501" y="8.5" fill="#FFFFFF" width="3.999" height="1"/>
	<rect x="2.5" y="8.5" fill="#FFFFFF" width="4" height="1"/>
</g>
</svg>
