<?xml version="1.0" encoding="utf-8"?>
<!-- Generator: Adobe Illustrator 15.1.0, SVG Export Plug-In . SVG Version: 6.00 Build 0)  -->
<!DOCTYPE svg PUBLIC "-//W3C//DTD SVG 1.1//EN" "http://www.w3.org/Graphics/SVG/1.1/DTD/svg11.dtd">
<svg version="1.1" id="Layer_1" xmlns="http://www.w3.org/2000/svg" xmlns:xlink="http://www.w3.org/1999/xlink" x="0px" y="0px"
	 width="18px" height="18px" viewBox="0 0 18 18" enable-background="new 0 0 18 18" xml:space="preserve">
<rect fill="#F9A51A" width="18" height="18"/>
<rect x="7.59" y="12.751" fill="#FFFFFF" width="2.484" height="2.483"/>
<path fill="#FFFFFF" d="M11.961,3.806c-0.809-0.659-1.809-0.991-3.004-0.991c-1.173,0-2.163,0.336-2.975,1.01
	c-0.813,0.672-1.31,1.668-1.497,2.976l2.479,0.34c0.134-1.449,0.733-2.177,1.804-2.177c0.406,0,0.748,0.124,1.03,0.366
	c0.285,0.251,0.427,0.588,0.427,1.018c0,0.348-0.078,0.639-0.227,0.875c-0.15,0.233-0.42,0.488-0.809,0.762
	c-0.737,0.522-1.188,0.921-1.36,1.197c-0.172,0.273-0.261,0.941-0.261,1.998v0.33h2.341c0-0.563,0.063-0.947,0.185-1.158
	c0.123-0.209,0.477-0.5,1.063-0.867c1.345-0.851,2.021-1.902,2.021-3.164C13.18,5.307,12.771,4.468,11.961,3.806z"/>
</svg>
