<?xml version="1.0" encoding="utf-8"?>
<!-- Generator: Adobe Illustrator 15.1.0, SVG Export Plug-In . SVG Version: 6.00 Build 0)  -->
<!DOCTYPE svg PUBLIC "-//W3C//DTD SVG 1.1//EN" "http://www.w3.org/Graphics/SVG/1.1/DTD/svg11.dtd">
<svg version="1.1" id="Layer_1" xmlns="http://www.w3.org/2000/svg" xmlns:xlink="http://www.w3.org/1999/xlink" x="0px" y="0px"
	 width="18px" height="18px" viewBox="0 0 18 18" enable-background="new 0 0 18 18" xml:space="preserve">
<rect fill="#EF4B4C" width="18" height="18"/>
<path fill="#FFFFFF" d="M14.46,3.674c-0.101-0.175-0.278-0.289-0.896,0.012c-2.234,1.092-3.974,2.219-5.34,3.303
	C6.311,5.145,4.976,4.388,4.64,4.247C4.104,4.018,3.65,4.317,3.614,4.93C3.61,4.997,3.611,5.065,3.618,5.135
	c0.024,0.277,0.19,0.743,0.521,1.047c0.769,0.662,1.719,1.19,2.8,1.903c-2.643,2.458-3.348,4.49-3.424,4.972
	c-0.108,0.672,0.336,1.308,1.009,1.426C4.598,14.494,4.672,14.5,4.746,14.5c0.293,0,0.761-0.155,1.021-0.543
	c0.808-1.209,1.307-2.999,2.576-4.872c1.324,1.034,2.789,2.474,4.328,4.772c0.363,0.48,0.582,0.58,1.037,0.473
	c0.161-0.038,0.306-0.214-0.058-0.686c-1.623-2.438-3.139-4.283-4.457-5.674c1.051-1.227,2.51-2.45,4.697-3.533
	C14.505,4.131,14.559,3.848,14.46,3.674z"/>
</svg>
