<?xml version="1.0" encoding="utf-8"?>
<!-- Generator: Adobe Illustrator 19.1.0, SVG Export Plug-In . SVG Version: 6.00 Build 0)  -->
<!DOCTYPE svg PUBLIC "-//W3C//DTD SVG 1.1//EN" "http://www.w3.org/Graphics/SVG/1.1/DTD/svg11.dtd">
<svg version="1.1" id="Layer_1" xmlns="http://www.w3.org/2000/svg" xmlns:xlink="http://www.w3.org/1999/xlink" x="0px" y="0px"
	 viewBox="0 0 60 50" enable-background="new 0 0 60 50" xml:space="preserve">
<g>
	<rect x="30" y="18" fill="#0072C6" width="5" height="2"/>
	<rect x="30" y="21" fill="#0072C6" width="10" height="1"/>
	<rect x="30" y="23" fill="#0072C6" width="10" height="1"/>
	<rect x="30" y="25" fill="#0072C6" width="8" height="1"/>
	<path fill="#0072C6" d="M58,0H2C0.9,0,0,0.9,0,2v46c0,1.1,0.9,2,2,2h56c1.1,0,2-0.9,2-2V2C60,0.9,59.1,0,58,0z M42,34H28l0-19h14
		V34z"/>
</g>
<path fill="#FFFFFF" d="M14,26c0,0,0.8,6,7,6v3l5-4.5L21,26v3C21,29,15.1,29.9,14,26z"/>
<g>
	<rect x="17" y="17" fill="none" width="1" height="1"/>
	<rect x="17" y="19" fill="none" width="1" height="1"/>
	<rect x="17" y="15" fill="none" width="1" height="1"/>
	<rect x="19" y="15" fill="none" width="1" height="1"/>
	<rect x="19" y="19" fill="none" width="1" height="1"/>
	<rect x="19" y="17" fill="none" width="1" height="1"/>
	<rect x="15" y="15" fill="#FFFFFF" width="1" height="1"/>
	<rect x="21" y="15" fill="#FFFFFF" width="1" height="1"/>
	<rect x="15" y="17" fill="#FFFFFF" width="1" height="1"/>
	<rect x="21" y="13" fill="#FFFFFF" width="1" height="1"/>
	<rect x="15" y="13" fill="#FFFFFF" width="1" height="1"/>
	<rect x="19" y="13" fill="#FFFFFF" width="1" height="1"/>
	<rect x="17" y="13" fill="#FFFFFF" width="1" height="1"/>
	<rect x="15" y="19" fill="#FFFFFF" width="1" height="1"/>
	<rect x="21" y="17" fill="#FFFFFF" width="1" height="1"/>
	<rect x="17" y="21" fill="#FFFFFF" width="1" height="1"/>
	<rect x="21" y="21" fill="#FFFFFF" width="1" height="1"/>
	<rect x="19" y="21" fill="#FFFFFF" width="1" height="1"/>
	<rect x="21" y="19" fill="#FFFFFF" width="1" height="1"/>
	<rect x="15" y="21" fill="#FFFFFF" width="1" height="1"/>
</g>
</svg>
