<?xml version="1.0" encoding="utf-8"?>
<!-- Generator: Adobe Illustrator 15.1.0, SVG Export Plug-In . SVG Version: 6.00 Build 0)  -->
<!DOCTYPE svg PUBLIC "-//W3C//DTD SVG 1.1//EN" "http://www.w3.org/Graphics/SVG/1.1/DTD/svg11.dtd">
<svg version="1.1" id="Layer_1" xmlns="http://www.w3.org/2000/svg" xmlns:xlink="http://www.w3.org/1999/xlink" x="0px" y="0px"
	 width="18px" height="18px" viewBox="0 0 18 18" enable-background="new 0 0 18 18" xml:space="preserve">
<rect fill="#6D9ED4" width="18" height="18"/>
<g>
	<path fill="#FFFFFF" d="M15.965,5.847c-0.094-0.054-0.199-0.08-0.306-0.08c-0.103,0-0.209,0.026-0.304,0.08l-4.551,2.627
		C10.616,8.582,10.503,8.783,10.503,9s0.11,0.419,0.302,0.525l4.551,2.625c0.188,0.108,0.42,0.108,0.607,0
		c0.188-0.106,0.303-0.31,0.303-0.522V6.372C16.268,6.155,16.152,5.956,15.965,5.847z"/>
	<path fill="#FFFFFF" d="M1.822,3.767v10.467h7.874V3.767H1.822z M8.718,7.994H2.799V7.001h5.919V7.994z M8.718,10H2.799V9.007
		h5.919V10z M8.718,5.911H2.799V4.917h5.919V5.911z"/>
</g>
</svg>
