<?xml version="1.0" encoding="utf-8"?>
<!-- Generator: Adobe Illustrator 15.1.0, SVG Export Plug-In . SVG Version: 6.00 Build 0)  -->
<!DOCTYPE svg PUBLIC "-//W3C//DTD SVG 1.1//EN" "http://www.w3.org/Graphics/SVG/1.1/DTD/svg11.dtd">
<svg version="1.1" id="Layer_1" xmlns="http://www.w3.org/2000/svg" xmlns:xlink="http://www.w3.org/1999/xlink" x="0px" y="0px"
	 width="18px" height="18px" viewBox="0 0 18 18" enable-background="new 0 0 18 18" xml:space="preserve">
<rect fill="#6FC067" width="18" height="18"/>
<path fill="#FFFFFF" d="M12.912,10.518c1.8,0,3.258-1.459,3.258-3.259C16.17,5.461,14.712,4,12.912,4c-1.799,0-3.26,1.46-3.26,3.257
	C9.65,9.057,11.111,10.518,12.912,10.518z M12.912,4.889c1.309,0,2.369,1.06,2.369,2.369s-1.063,2.369-2.369,2.369
	s-2.369-1.061-2.369-2.369S11.602,4.889,12.912,4.889z"/>
<path fill="#FFFFFF" d="M12.55,7.584h2.026c0.16,0,0.291-0.114,0.291-0.255c0-0.14-0.133-0.255-0.291-0.255H12.84V5.886
	c0-0.141-0.133-0.255-0.288-0.255c-0.159,0-0.29,0.115-0.29,0.255v1.441C12.257,7.469,12.389,7.584,12.55,7.584z"/>
<polygon fill="#FFFFFF" points="8.859,16.384 13.563,13.155 10.697,13.155 10.697,11.17 7.159,11.17 7.159,13.155 4.438,13.155 "/>
<path fill="#FFFFFF" d="M7.044,4V2.696H5.741V4H4.438V2.696H3.134V4H1.83v6.518h6.52V4H7.044z M7.025,9.193H3.153v-3.87h3.873V9.193
	z"/>
</svg>
