<?xml version="1.0" encoding="utf-8"?>
<!-- Generator: Adobe Illustrator 15.1.0, SVG Export Plug-In . SVG Version: 6.00 Build 0)  -->
<!DOCTYPE svg PUBLIC "-//W3C//DTD SVG 1.1//EN" "http://www.w3.org/Graphics/SVG/1.1/DTD/svg11.dtd">
<svg version="1.1" id="Layer_1" xmlns="http://www.w3.org/2000/svg" xmlns:xlink="http://www.w3.org/1999/xlink" x="0px" y="0px"
	 width="18px" height="18px" viewBox="3.5 3.5 18 18" enable-background="new 3.5 3.5 18 18" xml:space="preserve">
<rect x="3.5" y="3.5" fill="#2C9A49" width="18" height="18"/>
<path fill="#FFFFFF" d="M11,10v6h4v-6H11z M14,15h-2v-4h2V15z"/>
<polygon fill="#FFFFFF" points="7,15 7,10 6,10 6,15 6,16 7,16 10,16 10,15 "/>
<polygon fill="#FFFFFF" points="20,11 20,10 16,10 16,16 20,16 20,13 18,13 18,14 19,14 19,15 17,15 17,11 "/>
</svg>
