<?xml version="1.0" encoding="utf-8"?>
<!-- Generator: Adobe Illustrator 15.1.0, SVG Export Plug-In . SVG Version: 6.00 Build 0)  -->
<!DOCTYPE svg PUBLIC "-//W3C//DTD SVG 1.1//EN" "http://www.w3.org/Graphics/SVG/1.1/DTD/svg11.dtd">
<svg version="1.1" id="Layer_1" xmlns="http://www.w3.org/2000/svg" xmlns:xlink="http://www.w3.org/1999/xlink" x="0px" y="0px"
	 width="18px" height="18px" viewBox="0 0 18 18" enable-background="new 0 0 18 18" xml:space="preserve">
<rect fill="#9F375B" width="18" height="18"/>
<g>
	<path fill="#FFFFFF" d="M13.604,9.5H9.99c-0.381,0-0.692,0.311-0.692,0.691v3.615c0,0.381,0.312,0.691,0.692,0.691h3.613
		c0.383,0,0.692-0.313,0.692-0.691v-3.615C14.298,9.811,13.986,9.5,13.604,9.5z"/>
	<path fill="#FFFFFF" d="M7.803,3.5H4.196C3.814,3.5,3.5,3.809,3.5,4.193v3.612C3.5,8.188,3.814,8.5,4.196,8.5h3.607
		C8.191,8.5,8.5,8.188,8.5,7.805V4.193C8.5,3.809,8.191,3.5,7.803,3.5z"/>
	<polygon fill="#FFFFFF" points="10.5,7.76 10.5,4.5 13.648,4.5 	"/>
	<polygon fill="#FFFFFF" points="7.5,10.5 7.5,13.5 4.5,13.5 	"/>
</g>
</svg>
