<?xml version="1.0" encoding="utf-8"?>
<!-- Generator: Adobe Illustrator 15.1.0, SVG Export Plug-In . SVG Version: 6.00 Build 0)  -->
<!DOCTYPE svg PUBLIC "-//W3C//DTD SVG 1.1//EN" "http://www.w3.org/Graphics/SVG/1.1/DTD/svg11.dtd">
<svg version="1.1" id="Layer_1" xmlns="http://www.w3.org/2000/svg" xmlns:xlink="http://www.w3.org/1999/xlink" x="0px" y="0px"
	 width="18px" height="18px" viewBox="0 0 18 18" enable-background="new 0 0 18 18" xml:space="preserve">
<rect fill="#6FC067" width="18" height="18"/>
<g>
	<path fill="#FFFFFF" d="M12.001,8.5C13.382,8.5,14.5,7.38,14.5,6c0-1.379-1.118-2.5-2.499-2.5C10.621,3.5,9.5,4.62,9.5,5.999
		C9.5,7.379,10.62,8.5,12.001,8.5z M12.001,4.182c1.003,0,1.817,0.813,1.817,1.817s-0.814,1.817-1.817,1.817
		s-1.817-0.813-1.817-1.817S10.996,4.182,12.001,4.182z"/>
	<path fill="#FFFFFF" d="M11.723,6.25h1.555c0.123,0,0.225-0.088,0.225-0.195S13.4,5.857,13.277,5.857h-1.332v-0.91
		c0-0.108-0.103-0.196-0.221-0.196C11.602,4.75,11.5,4.838,11.5,4.947v1.104C11.498,6.162,11.6,6.25,11.723,6.25z"/>
	<path fill="#FFFFFF" d="M7.5,3.5v-1h-1v1h-1v-1h-1v1h-1v5h5v-5H7.5z M7.484,7.484H4.515V4.515h2.969V7.484z"/>
</g>
<polygon fill="#FFFFFF" points="13.5,11.5 9.5,11.5 9.5,9.5 8.5,9.5 8.5,11.5 4.5,11.5 3.5,11.5 3.5,12.5 3.5,14.5 4.5,14.5 
	4.5,12.5 8.5,12.5 8.5,14.5 9.5,14.5 9.5,12.5 13.5,12.5 13.5,14.5 14.5,14.5 14.5,12.5 14.5,11.5 "/>
</svg>
