<?xml version="1.0" encoding="utf-8"?>
<!-- Generator: Adobe Illustrator 15.1.0, SVG Export Plug-In . SVG Version: 6.00 Build 0)  -->
<!DOCTYPE svg PUBLIC "-//W3C//DTD SVG 1.1//EN" "http://www.w3.org/Graphics/SVG/1.1/DTD/svg11.dtd">
<svg version="1.1" id="Layer_1" xmlns="http://www.w3.org/2000/svg" xmlns:xlink="http://www.w3.org/1999/xlink" x="0px" y="0px"
	 width="18px" height="18px" viewBox="0 0 18 18" enable-background="new 0 0 18 18" xml:space="preserve">
<rect fill="#356D53" width="18" height="18"/>
<path fill="#FFFFFF" d="M3.5,4.5v9h11v-9H3.5z M5.5,12.5h-1v-1h1V12.5z M5.5,10.5h-1v-1h1V10.5z M5.5,8.5h-1v-1h1V8.5z M5.5,6.5h-1
	v-1h1V6.5z M7.5,12.5h-1v-1h1V12.5z M7.5,10.5h-1v-1h1V10.5z M7.5,8.5h-1v-1h1V8.5z M7.5,6.5h-1v-1h1V6.5z M9.5,12.5h-1v-1h1V12.5z
	 M9.5,10.5h-1v-1h1V10.5z M9.5,8.5h-1v-1h1V8.5z M9.5,6.5h-1v-1h1V6.5z M11.5,12.5h-1v-1h1V12.5z M11.5,10.5h-1v-1h1V10.5z
	 M11.5,8.5h-1v-1h1V8.5z M11.5,6.5h-1v-1h1V6.5z M13.5,12.5h-1v-1h1V12.5z M13.5,10.5h-1v-1h1V10.5z M13.5,8.5h-1v-1h1V8.5z
	 M13.5,6.5h-1v-1h1V6.5z"/>
</svg>
