<?xml version="1.0" encoding="utf-8"?>
<!-- Generator: Adobe Illustrator 15.1.0, SVG Export Plug-In . SVG Version: 6.00 Build 0)  -->
<!DOCTYPE svg PUBLIC "-//W3C//DTD SVG 1.1//EN" "http://www.w3.org/Graphics/SVG/1.1/DTD/svg11.dtd">
<svg version="1.1" id="Layer_1" xmlns="http://www.w3.org/2000/svg" xmlns:xlink="http://www.w3.org/1999/xlink" x="0px" y="0px"
	 width="18px" height="18px" viewBox="0 0 18 18" enable-background="new 0 0 18 18" xml:space="preserve">
<rect fill="#F16347" width="18" height="18"/>
<path fill="#FFFFFF" d="M14.273,4.403c0.229,0,0.42-0.188,0.42-0.416V3.722c0-0.232-0.188-0.416-0.42-0.416h-1.758h-0.684h-0.415
	v0.416v0.266v4.463H9.538V7.3c0-0.358-0.291-0.649-0.654-0.649H5.489c-0.362,0-0.654,0.291-0.654,0.649v1.151H3.721
	c-0.229,0-0.415,0.188-0.415,0.416v0.267c0,0.229,0.188,0.417,0.415,0.417h1.114v1.151c0,0.358,0.292,0.649,0.654,0.649h3.396
	c0.363,0,0.654-0.291,0.654-0.649V9.55h1.879v4.464v0.264v0.418h0.415h0.685h1.758c0.229,0,0.42-0.188,0.42-0.418v-0.264
	c0-0.231-0.189-0.419-0.42-0.419h-1.758V9.55h1.758c0.229,0,0.42-0.188,0.42-0.417V8.866c0-0.229-0.189-0.416-0.42-0.416h-1.758
	V4.403H14.273z"/>
</svg>
